<?xml version="1.0" encoding="UTF-8" standalone="no"?>
<!-- Created with Inkscape (http://www.inkscape.org/) -->

<svg
   width="48"
   height="48"
   viewBox="0 0 12.699999 12.699999"
   version="1.1"
   id="svg1"
   inkscape:export-filename="0.svg"
   inkscape:export-xdpi="96"
   inkscape:export-ydpi="96"
   xmlns:inkscape="http://www.inkscape.org/namespaces/inkscape"
   xmlns:sodipodi="http://sodipodi.sourceforge.net/DTD/sodipodi-0.dtd"
   xmlns="http://www.w3.org/2000/svg"
   xmlns:svg="http://www.w3.org/2000/svg">
  <sodipodi:namedview
     id="namedview1"
     pagecolor="#505050"
     bordercolor="#eeeeee"
     borderopacity="1"
     inkscape:showpageshadow="0"
     inkscape:pageopacity="0"
     inkscape:pagecheckerboard="0"
     inkscape:deskcolor="#505050"
     inkscape:document-units="px">
    <inkscape:page
       x="0"
       y="0"
       width="12.699999"
       height="12.699999"
       id="page2"
       margin="0"
       bleed="0" />
  </sodipodi:namedview>
  <defs
     id="defs1" />
  <g
     inkscape:label="Camada 1"
     inkscape:groupmode="layer"
     id="layer1">
    <path
       style="fill:#ff00ff;fill-opacity:0.996078;stroke:none;stroke-width:4.7811;paint-order:markers stroke fill"
       id="path1"
       d="M 1.7884654,5.0667318 C 1.8745068,5.2304741 1.9338502,5.410612 2.053615,5.5547587 2.0942002,5.6036066 2.1326584,5.6583456 2.1875832,5.6902286 3.1212288,6.2321924 4.0713553,6.7452535 5.0132414,7.2727659 5.0812726,7.2567828 5.152667,7.2513097 5.2173345,7.2248169 5.5207902,7.1005035 5.7552814,6.7979759 5.9557626,6.5527606 6.1150559,6.3579235 6.4022855,5.9768152 6.5513645,5.7809835 6.8010707,5.4354395 6.9041922,5.2986489 7.1415808,4.9469439 7.2308601,4.8146713 7.3155667,4.6793569 7.4043954,4.5467813 7.4612815,4.4618796 7.8026055,3.9682885 7.8679641,3.8660531 7.9297448,3.7694139 7.9857805,3.66922 8.0446887,3.5708035 8.187302,3.3575468 8.2834299,3.1169196 8.424602,2.9029257 c 0.00451,-0.00684 0.1510403,-0.203101 0.178945,-0.2200856 0.023804,-0.01449 0.055424,-0.00587 0.083136,-0.0088 C 7.6823131,2.1674911 6.7031693,1.6074751 5.6735731,1.1543943 5.5694609,1.1085792 5.8162626,1.3333454 5.8690303,1.4341124 5.9466053,1.5822517 6.0070883,1.7392 6.0624434,1.8969939 c 0.2467916,0.7035 0.34799,1.4169311 0.4657036,2.1492879 0.03635,0.292075 0.082261,0.5831184 0.1090495,0.8762249 0.037904,0.4147166 0.072304,1.334077 0.078934,1.7516302 0.00949,0.5974116 0.00576,1.0176661 -0.041627,1.6081056 -0.017951,0.2236562 -0.049247,0.4460408 -0.073869,0.6690613 -0.082672,0.4390748 -0.091824,0.5727261 -0.2220794,0.9769388 -0.079056,0.2453284 -0.1885286,0.4791624 -0.3094093,0.7059724 0,0 2.6572234,1.338142 2.6572234,1.338142 v 0 C 8.4209561,11.228195 8.1658081,10.463262 8.0220282,9.6697177 7.91998,9.0212163 7.8621937,8.736868 7.812748,8.0723146 7.7914302,7.7857936 7.7830074,7.4983959 7.7754806,7.2111813 7.7538205,6.3846217 7.7568361,5.5531104 7.8807273,4.7335779 7.9768595,4.1555384 8.0427881,3.5784376 8.3392498,3.0594874 8.394046,2.9635672 8.4599515,2.8722785 8.5387487,2.7948559 8.5938899,2.7406764 8.8006091,2.7113635 8.734748,2.670888 7.7613651,2.0726888 6.7188909,1.5949758 5.7109623,1.0570198 c 0.017526,0.034559 0.040145,0.066978 0.05258,0.1036776 0.015559,0.045922 0.022661,0.094367 0.030723,0.1421784 0.010566,0.062661 0.021171,0.1255533 0.025117,0.1889767 0.016778,0.2695977 -0.027961,0.5375386 -0.063344,0.8035988 C 5.7020645,2.5553116 5.6669169,2.7536341 5.5872893,3.0100345 5.4517008,3.4466289 5.2538872,3.8797932 4.9939543,4.257017 4.8994629,4.3941464 4.7876446,4.5184913 4.6844898,4.6492284 4.5617937,4.7625783 4.4477171,4.8860367 4.3164017,4.9892782 3.9052417,5.3125371 3.3690305,5.5679534 2.8329942,5.4672346 2.7553821,5.4526513 2.683748,5.4155547 2.6091249,5.3897148 3.438284,5.8746263 4.270414,6.3544933 5.0966023,6.8444489 5.1313304,6.8650445 5.0195988,6.8184857 4.9845605,6.7984232 4.9570326,6.7826605 4.9329147,6.7610026 4.9109299,6.7381355 4.8679817,6.6934627 4.8599533,6.6513903 4.8980398,6.6027357 Z" />
  </g>
</svg>
