<?xml version="1.0" encoding="UTF-8" standalone="no"?>
<!-- Created with Inkscape (http://www.inkscape.org/) -->

<svg
   width="48"
   height="48"
   viewBox="0 0 12.699999 12.699999"
   version="1.1"
   id="svg1"
   inkscape:export-filename="6.svg"
   inkscape:export-xdpi="96"
   inkscape:export-ydpi="96"
   xmlns:inkscape="http://www.inkscape.org/namespaces/inkscape"
   xmlns:sodipodi="http://sodipodi.sourceforge.net/DTD/sodipodi-0.dtd"
   xmlns="http://www.w3.org/2000/svg"
   xmlns:svg="http://www.w3.org/2000/svg">
  <sodipodi:namedview
     id="namedview1"
     pagecolor="#505050"
     bordercolor="#eeeeee"
     borderopacity="1"
     inkscape:showpageshadow="0"
     inkscape:pageopacity="0"
     inkscape:pagecheckerboard="0"
     inkscape:deskcolor="#505050"
     inkscape:document-units="px">
    <inkscape:page
       x="0"
       y="0"
       width="12.699999"
       height="12.699999"
       id="page2"
       margin="0"
       bleed="0" />
  </sodipodi:namedview>
  <defs
     id="defs1" />
  <g
     inkscape:label="Camada 1"
     inkscape:groupmode="layer"
     id="layer1">
    <path
       style="fill:#ff0066;fill-opacity:0.996078;stroke:none;stroke-width:6.42291;paint-order:markers stroke fill"
       id="path2"
       d="M 5.4163942,10.90318 C 5.4049402,10.88462 5.3959772,10.86426 5.3820182,10.8475 5.3443782,10.8023 5.2959772,10.76708 5.2565129,10.723469 5.1606567,10.617535 5.0841438,10.500224 5.0062432,10.380941 4.8228508,10.073072 4.7102986,9.7323649 4.6202641,9.3875753 4.5538825,9.1313967 4.5292381,8.8668201 4.5301329,8.6028118 4.5387487,8.4048697 4.6008694,8.2172038 4.6737545,8.0348977 4.7277992,7.8988998 4.7994894,7.7707049 4.879579,7.6484945 4.952101,7.5394034 5.0145631,7.4242539 5.0906596,7.3175766 5.1959088,7.1856785 5.2862813,7.0437397 5.3835624,6.9063233 5.4710131,6.7715944 5.5940406,6.6702067 5.7126605,6.5654404 5.8191902,6.4954604 5.931017,6.4452972 6.0555755,6.4184941 6.2556254,6.3752187 6.4572778,6.3498251 6.6614566,6.3347411 6.9089344,6.3182439 7.1572388,6.3239303 7.4049248,6.332098 7.5339103,6.337258 7.667314,6.328038 7.7948145,6.353812 7.8665195,6.368313 7.934923,6.396065 8.0056512,6.414754 8.213328,6.491854 8.4344346,6.5325695 8.6331164,6.631278 8.6610214,6.642232 8.8200183,6.703839 8.8463309,6.717542 8.8801429,6.735149 8.9759435,6.797809 8.9428319,6.778917 5.6217601,4.8840729 6.6359994,5.393191 7.2631518,5.8289792 c 0.1948486,0.1450845 0.3770643,0.3033082 0.544173,0.4794548 0.1155176,0.1130625 0.1972607,0.252501 0.2933214,0.3807242 0.0855,0.1366455 0.1510378,0.2834101 0.1949573,0.4383344 0.062172,0.202835 0.1050223,0.4092628 0.1331488,0.6192564 0.017046,0.1589463 0.013552,0.3182565 0.00214,0.477297 C 8.4056457,8.3938948 8.3369226,8.5523383 8.2629156,8.7058564 8.1886728,8.8806047 8.0890882,9.0418976 7.9919958,9.2043805 7.8730483,9.406266 7.7260196,9.5825765 7.5578677,9.7448975 7.3824829,9.9027018 7.2101883,10.063722 7.02065,10.204618 6.8210985,10.349816 6.5876431,10.425259 6.3595944,10.5114 6.117481,10.58598 5.8732767,10.654657 5.6231997,10.696453 c -0.188874,0.02972 -0.38011,0.02513 -0.5705341,0.02541 -0.1642679,0.0067 -0.3190579,-0.0443 -0.4623103,-0.12101 C 3.881927,10.216363 4.360673,10.475452 6.392993,11.633178 6.423156,11.650358 6.333231,11.597818 6.303969,11.579148 6.1982824,11.511699 6.0986427,11.435226 5.995436,11.36409 5.7928251,11.246952 5.6097061,11.103441 5.4269618,10.958399 5.2794999,10.845989 5.1478688,10.71364 5.0362181,10.565839 4.9281363,10.394869 4.8164834,10.227334 4.720509,10.049129 4.6093342,9.8412182 4.5444918,9.6129482 4.4842349,9.3861735 4.4456882,9.2221567 4.4379108,9.0544044 4.4317767,8.8868521 4.4078479,8.7393442 4.3946678,8.5910675 4.3828815,8.4422541 4.3745964,8.2655853 4.3679496,8.0889038 4.3643236,7.9120723 4.3620853,7.6965408 4.3573942,7.4809092 4.3630616,7.26541 c 0.00455,-0.1640314 0.00981,-0.3280376 0.015408,-0.4920588 0.00239,-0.1058711 0.00953,-0.2112548 0.00911,-0.3171796 -0.011894,-0.1280408 -0.00547,-0.255042 0.00645,-0.382569 C 4.4161915,5.9144805 4.449551,5.7574373 4.4875328,5.6014641 4.5230359,5.4553688 4.5688267,5.3122975 4.6178731,5.1702485 4.6698789,5.0023292 4.7301447,4.83735 4.7895931,4.6720003 4.8522058,4.4831384 4.9277441,4.3004385 5.0152946,4.1219786 5.1103962,3.9640855 5.1932516,3.799329 5.2894753,3.6421283 5.3889732,3.5016235 5.4940572,3.3645741 5.6032424,3.2313446 5.7313419,3.0989008 5.8570072,2.9651025 5.9982098,2.8462854 6.1300748,2.700059 6.2913246,2.5922686 6.4496755,2.4783909 6.564029,2.3870419 6.6786003,2.2964982 6.812506,2.2358309 c 0.031036,-0.039179 0.079386,-0.045045 0.1189954,-0.066713 0.039585,-0.021654 0.057469,-0.0425 0.1020517,-0.052862 0.084245,-0.00155 0.1542625,-0.044545 0.2385936,-0.054337 0.097743,-0.00682 0.195839,-0.00577 0.2937606,-0.00563 0.031294,0.00981 0.065831,-0.00516 0.09724,0.00291 0.013328,0.00342 0.023302,0.014874 0.03596,0.020269 0.046703,0.019906 0.08892,0.020737 0.1342242,0.045778 0.03151,0.021702 0.072205,0.013666 0.1056152,0.028213 0.015574,0.00679 0.026383,0.021626 0.041047,0.030198 0.042443,0.024808 0.092546,0.032011 0.139194,0.045178 -0.064149,0.010382 0.1252041,0.074252 0.095122,0.056885 C 7.5551911,1.9052124 5.6404637,0.67500781 6.2300412,1.1562724 c 0.5401899,0.44095 1.3585591,0.8411381 2.0725522,1.191058 0.041761,-0.00339 0.065921,0.0219 0.099325,0.042003 C 7.742121,2.0071734 7.0815446,1.6263568 6.4225268,1.242855 c -0.011192,-0.00651 0.025346,0.00758 0.035692,0.015382 0.012257,0.00924 0.020325,0.023008 0.030491,0.034511 0.073593,0.053308 0.1330335,0.1252503 0.2059486,0.1803786 0.00967,0.012762 0.017814,0.026832 0.028998,0.038288 0.00937,0.0096 0.02281,0.014586 0.032078,0.024278 0.021875,0.022877 0.03184,0.055739 0.054735,0.077594 0.00944,0.00901 0.022813,0.012691 0.03422,0.019037 0.010275,0.010227 0.020549,0.020461 0.030824,0.030692 0.011561,0.0048 0.02437,0.00731 0.034684,0.014406 0.011573,0.00795 0.019805,0.019915 0.02971,0.029873 0.678256,0.396318 1.3563729,0.7928731 2.0347674,1.1889535 0.012503,0.0073 0.050436,0.028471 0.037923,0.021185 C 6.6421412,1.5373298 6.4124131,1.4030216 7.0987805,1.8041816 c 0.082911,0.065249 0.1593608,0.1317126 0.2280934,0.2124463 0.054886,0.089356 0.1082381,0.1781283 0.1626235,0.2678095 0.041606,0.088154 0.051403,0.1870683 0.074716,0.2811703 0.015792,0.081761 0.040418,0.1619604 0.064349,0.2417359 -0.00382,0.060555 0.025583,0.1142793 0.048175,0.1688395 0,0 2.1142077,1.0209917 2.1142077,1.0209917 v 0 C 9.7863887,3.9444796 9.7839001,3.868546 9.7372721,3.8367456 9.7299605,3.7493292 9.7056918,3.6620238 9.6675994,3.5831347 9.6487803,3.477353 9.6070522,3.3776031 9.6043201,3.2690598 9.5915556,3.2117894 9.5789675,3.1563689 9.5447195,3.1072197 9.5345571,3.0926344 9.5189732,3.0821475 9.5097604,3.0669434 9.4884966,3.0318541 9.4845621,2.9876173 9.4545812,2.9569183 9.4093172,2.8564651 9.3529588,2.7453944 9.2590428,2.6838275 8.7461321,2.0206303 9.2412284,2.6500718 7.1951427,1.4477871 7.1813482,1.439679 7.1397455,1.4157237 7.1535567,1.4238057 7.8080306,1.8067465 8.4626063,2.1895132 9.1171309,2.572367 9.0692039,2.547404 9.0902749,2.564897 9.0559119,2.517578 9.0053009,2.496916 9.0280799,2.512078 8.9884659,2.470801 8.9762089,2.464011 8.9602909,2.467811 8.9472059,2.462811 8.8988929,2.44432 8.8979769,2.394038 8.8490949,2.376761 8.7604689,2.2440655 8.8804109,2.412861 8.7827389,2.306487 8.7706539,2.293326 8.7655949,2.274802 8.7538639,2.261322 8.6673679,2.161916 8.7693059,2.298585 8.6839659,2.211754 8.6728099,2.200395 8.6668599,2.184905 8.6583039,2.17148 8.6471239,2.16476 8.6335779,2.160955 8.6247729,2.151331 8.6147479,2.140377 8.6166029,2.119612 8.6038529,2.111996 7.9296653,1.709311 7.2476632,1.3198517 6.5695674,0.92377929 c -0.024231,-0.009751 -0.05082,-0.0140117 -0.073701,-0.0266078 -0.00946,-0.005209 -0.015814,-0.0147186 -0.023721,-0.022078 C 5.8253664,0.49627423 9.1222007,2.2608927 8.4200928,1.998458 7.6845635,1.7235309 7.0547321,1.222473 6.3732473,0.8323869 6.3470441,0.81738722 6.3434214,0.80162686 6.3123917,0.7946859 6.2987294,0.79163029 6.2844023,0.79406535 6.2704054,0.79375662 6.1768784,0.75766498 6.0865276,0.7243176 5.9883916,0.70127981 5.8842638,0.68935574 5.7848321,0.6727873 5.6796333,0.69080544 5.5695021,0.69468687 5.4584659,0.70013991 5.3517997,0.73036381 5.260422,0.75880536 5.167756,0.78215462 5.0813086,0.82253809 5.0052742,0.86917291 4.9299876,0.91603954 4.8606244,0.97243734 4.7409511,1.0625627 4.6234569,1.1549814 4.508132,1.250637 4.352749,1.3727254 4.2059618,1.5039489 4.0603625,1.6374008 3.9096886,1.7671974 3.7672871,1.9068064 3.6321625,2.0527106 3.5194673,2.1957008 3.4027208,2.336406 3.3073705,2.4919331 3.2090494,2.6551538 3.117999,2.8219236 3.0310924,2.991452 2.9363245,3.1751594 2.864155,3.3671075 2.7879058,3.558828 2.7218637,3.7240784 2.6587798,3.890309 2.5980061,4.0574967 2.5490456,4.2087351 2.49075,4.3570518 2.4560476,4.512759 2.4271376,4.676681 2.3845206,4.8376093 2.350661,5.0005577 2.330119,5.1323944 2.303609,5.261778 2.306675,5.3958912 c -4.096e-4,0.1089977 0.00683,0.2174965 0.00911,0.3264455 0.00556,0.1691816 0.010775,0.3383474 0.015188,0.5075425 0.00531,0.2150917 5.355e-4,0.4302851 -0.00189,0.6453998 -0.00337,0.1762815 -0.011501,0.3526694 -0.00695,0.5289618 0.00227,0.1534183 0.014547,0.306962 0.038214,0.4585835 0.039423,0.1768996 0.01995,0.3638191 0.073666,0.5392371 0.05356,0.243185 0.1433384,0.4758304 0.2189667,0.712779 0.085851,0.1814721 0.1657907,0.3644198 0.2844852,0.5276511 0.096597,0.1789398 0.2233854,0.329546 0.3727902,0.4676435 0.1895336,0.149834 0.3726528,0.311779 0.5823356,0.432829 0.049854,0.03109 0.1552083,0.0951 0.2033627,0.131551 0.050267,0.03806 0.1079119,0.09982 0.1634595,0.132161 1.9995739,1.16419 1.3160011,0.893088 2.1369594,1.212387 0.1724366,0.04665 0.3471829,0.06651 0.5259303,0.05317 0.1888037,-0.01012 0.3752896,-0.04299 0.5601707,-0.08178 0.2530479,-0.06169 0.5035628,-0.134519 0.749366,-0.220768 0.2476766,-0.09619 0.49651,-0.195337 0.7133557,-0.352293 0.1884981,-0.152145 0.3560312,-0.327625 0.5313298,-0.494462 0.1773956,-0.177288 0.3603983,-0.354646 0.4904099,-0.571138 0.1058233,-0.167679 0.2076483,-0.338131 0.2955563,-0.5160198 0.07869,-0.17869 0.155145,-0.3589023 0.203889,-0.5485336 0.01119,-0.085279 0.03146,-0.1744102 0.03393,-0.2604484 C 10.50281,8.9381452 10.48069,8.8490125 10.4781,8.7606521 10.4557,8.5465335 10.41044,8.3362792 10.35759,8.1277179 10.33579,7.9536419 10.29324,7.7845726 10.208675,7.6297637 10.13713,7.4638313 10.011146,7.3237649 9.9008884,7.1821377 9.7339927,7.0060374 9.5724592,6.8235203 9.3773157,6.6773514 8.6585544,6.0195528 7.7506684,5.5842532 6.8475631,5.2263253 6.6339074,5.1574207 6.4194898,5.0896568 6.2009086,5.0379254 5.9884915,4.9925836 5.7720953,4.9796527 5.555081,4.989274 5.3112559,5.0002208 5.0673646,5.0092809 4.823496,5.0191975 4.599816,5.0345327 4.3772962,5.0646821 4.1593085,5.1181662 4.005033,5.169186 3.8580231,5.2358476 3.7392237,5.3499082 3.6224659,5.4716235 3.509988,5.5964998 3.4198972,5.7400172 3.3130175,5.8735034 3.2064972,6.007262 3.0975512,6.1390566 3.0172111,6.2482737 2.9504304,6.365345 2.8817958,6.4820822 2.7947912,6.6191574 2.7216813,6.7662792 2.6724471,6.9212562 2.5950301,7.1318926 2.5299596,7.3456458 2.5141099,7.5710036 c -0.00889,0.2903027 0.035036,0.5791899 0.1001716,0.861721 0.1021803,0.3513226 0.2160868,0.6990238 0.3563468,1.0372432 0.097021,0.2131002 0.02615,0.067274 0.1268831,0.253839 0.036551,0.067695 0.073658,0.1647064 0.1294162,0.2212981 0.00743,0.00754 0.019368,0.00854 0.029048,0.012809 z" />
  </g>
</svg>
