<?xml version="1.0" encoding="UTF-8" standalone="no"?>
<!-- Created with Inkscape (http://www.inkscape.org/) -->

<svg
   width="48"
   height="48"
   viewBox="0 0 12.699999 12.699999"
   version="1.1"
   id="svg1"
   inkscape:export-filename="7.svg"
   inkscape:export-xdpi="96"
   inkscape:export-ydpi="96"
   xmlns:inkscape="http://www.inkscape.org/namespaces/inkscape"
   xmlns:sodipodi="http://sodipodi.sourceforge.net/DTD/sodipodi-0.dtd"
   xmlns="http://www.w3.org/2000/svg"
   xmlns:svg="http://www.w3.org/2000/svg">
  <sodipodi:namedview
     id="namedview1"
     pagecolor="#505050"
     bordercolor="#eeeeee"
     borderopacity="1"
     inkscape:showpageshadow="0"
     inkscape:pageopacity="0"
     inkscape:pagecheckerboard="0"
     inkscape:deskcolor="#505050"
     inkscape:document-units="px">
    <inkscape:page
       x="0"
       y="0"
       width="12.699999"
       height="12.699999"
       id="page2"
       margin="0"
       bleed="0" />
  </sodipodi:namedview>
  <defs
     id="defs1" />
  <g
     inkscape:label="Camada 1"
     inkscape:groupmode="layer"
     id="layer1">
    <path
       style="fill:#00aa44;fill-opacity:0.996078;stroke:none;stroke-width:5.39459;paint-order:markers stroke fill"
       id="path2"
       d="m 2.6216425,9.5108371 c 0.03716,0.094729 0.067049,0.1914133 0.1032642,0.286562 0.040243,0.1022445 0.1007915,0.1917056 0.1605865,0.2828479 0.062906,0.116307 0.1692053,0.191213 0.2699665,0.2717 0.6053568,0.495068 1.3013311,0.890941 2.0257427,1.185155 0.2365367,0.0924 0.4883277,0.136135 0.7371807,0.181529 0.2184746,0.04158 0.4327929,0.09494 0.6555149,0.10662 0.184549,0.0062 0.3691652,0.0094 0.553743,0.0149 0.1464315,-6.5e-5 0.2933382,0.0074 0.4386447,-0.01284 0.1654175,-0.01844 0.3210153,-0.08249 0.4792062,-0.130625 0.1660215,-0.05125 0.326237,-0.117372 0.486543,-0.184228 0.2083816,-0.08527 0.4168648,-0.169628 0.6183373,-0.270368 0.1645968,-0.08796 0.325329,-0.18364 0.4815419,-0.285756 0.1484757,-0.08733 0.276829,-0.196293 0.3874569,-0.327726 0.104926,-0.150555 0.209989,-0.302994 0.286818,-0.470074 0.07946,-0.145778 0.136606,-0.3009043 0.184651,-0.4593532 0.03964,-0.1320435 0.04797,-0.269944 0.05388,-0.4067704 C 10.55768,9.1694848 10.53842,9.0508213 10.50601,8.9328827 10.46808,8.8089493 10.38631,8.7093344 10.30224,8.6137439 10.219556,8.5130831 10.113623,8.4334274 10.004981,8.3627437 9.9105267,8.3074421 9.8240532,8.2429668 9.7367354,8.1777827 9.6527585,8.1099523 9.5671764,8.0465592 9.4735369,7.9925832 9.3769862,7.9291623 9.2778789,7.8715728 9.1864259,7.8004547 9.072621,7.6894535 8.9373009,7.6087966 8.8018001,7.5278976 7.7441312,6.8901267 5.3357389,5.551065 8.4837863,7.3421964 8.5226732,7.3643208 8.4089243,7.2931744 8.3718726,7.2680966 8.1297873,7.104246 8.3733278,7.2642549 8.1333206,7.1080923 7.9092183,6.9725314 7.6870529,6.8339702 7.4655851,6.6941628 6.5065148,6.1215786 3.795963,4.5854746 7.0948917,6.475971 7.1227827,6.4919545 7.0403801,6.4418675 7.0136019,6.4240828 6.9867708,6.4062631 6.960594,6.3874771 6.9340899,6.3691746 6.7682451,6.2626015 6.6285146,6.12336 6.4756792,5.9999491 6.3330473,5.888822 6.192321,5.7737399 6.0596317,5.6507872 5.9277398,5.5414654 5.8151019,5.4140505 5.7059936,5.2828021 5.5686302,5.130069 5.4501974,4.9651543 5.350215,4.7860605 5.2610179,4.6296827 5.1974457,4.4616189 5.1510381,4.288184 5.1114657,4.1451566 5.0777559,4.0006732 5.0463009,3.8556736 5.0070523,3.7082756 4.9913091,3.5564392 4.9838455,3.4045173 4.9797365,3.2771768 4.97853,3.1497847 4.9792073,3.0223815 4.9838273,2.9191082 4.9776173,2.8149455 4.9917253,2.7123687 5.0075843,2.6384697 5.0454033,2.5851179 5.0986164,2.534353 5.1418934,2.479355 5.2058898,2.448912 5.2570761,2.4035545 5.2907671,2.3736995 5.3207691,2.3399085 5.3534651,2.3089655 5.4599855,2.2067975 5.5975228,2.1472513 5.7290842,2.0846891 5.8868182,2.0170301 6.0494533,1.9643549 6.2115791,1.9084677 6.4360066,1.8498077 6.6675988,1.8171637 6.898253,1.7937879 c 0.2124985,-0.018864 0.4259434,-0.016537 0.6390166,-0.019791 0.1355053,0.00432 0.2720274,-0.00669 0.4074374,0.00107 0.063902,0.00366 0.1272609,0.013878 0.1909262,0.020487 0.1284669,0.018068 0.2616507,0.024529 0.3882347,0.055171 0.075695,0.018323 0.1496677,0.043284 0.2252657,0.062002 0.2499032,0.07664 0.5001771,0.1522303 0.7493995,0.2309798 0.1972939,0.042717 0.3700255,0.1394883 0.5443509,0.2359015 0.585327,0.3726314 0.04052,0.024336 -1.500536,-0.8620918 -0.021683,-0.012473 0.042717,0.026068 0.063531,0.039942 0.065061,0.043368 0.1281692,0.090227 0.1919549,0.1354479 C 8.9372918,1.7923783 9.020144,1.9331481 9.1019502,2.0793776 9.2142034,2.2630254 9.2853694,2.4658 9.3515401,2.6692973 9.3906721,2.7880682 9.4038071,2.9113624 9.4135991,3.035135 9.4182591,3.119926 9.3339601,3.1810114 9.2757919,3.2295916 9.0625459,3.3967728 8.8026042,3.4855778 8.5511474,3.5777721 8.2684803,3.6647501 8.0012377,3.785216 7.734321,3.9106269 7.5001571,4.0271711 7.2511437,4.1074007 7.0088651,4.2045416 6.7878978,4.2904913 6.5721391,4.3859138 6.3605637,4.4925763 6.1566017,4.5901123 5.967897,4.7168339 5.7797616,4.84154 5.615349,4.9651475 5.4614744,5.1014836 5.2967986,5.2247953 5.1409789,5.3362266 4.9800865,5.4398832 4.8290764,5.5579255 4.6710821,5.6807141 4.5202677,5.8122393 4.3672486,5.9411551 4.1452148,6.1146818 3.9003276,6.2569115 3.6619513,6.406786 3.4772981,6.5070919 3.340273,6.657693 3.2123552,6.8200366 3.1147964,6.9686919 3.027599,7.1232459 2.9354645,7.2751566 2.8561358,7.4156718 2.7978502,7.5652217 2.7474347,7.7180328 2.6946355,7.8697282 2.6615345,8.027072 2.6293541,8.1841284 2.6102605,8.3106592 2.5992358,8.438122 2.593283,8.5658837 c -0.010601,0.081278 -0.00372,0.1632847 -0.0079,0.2448248 0.00109,0.084044 -0.00261,0.1686792 0.00908,0.2520224 0.00482,0.076258 0.02185,0.1442958 0.052099,0.2138008 0.011229,0.072486 0.050575,0.1342787 0.067248,0.2059165 0.010147,0.064939 0.00822,0.1310502 0.011404,0.1967103 -3.175e-4,0.010006 -6.615e-4,0.02001 -9.79e-4,0.030018 0,0 1.7555394,0.8942385 1.7555394,0.8942385 v 0 c -3.44e-4,-0.01069 -6.879e-4,-0.02138 -0.00106,-0.03206 0.0027,-0.07437 -0.00289,-0.147439 -0.00715,-0.221656 -0.00357,-0.07563 2.318e-4,-0.165943 -0.052005,-0.226152 -0.00482,-0.0354 -0.00723,-0.07578 -0.028094,-0.106518 -0.00518,-0.0076 -0.015642,-0.0113 -0.019405,-0.019722 -0.010718,-0.02399 -0.00177,-0.05401 -0.017653,-0.07682 -0.00525,-0.02317 -0.016071,-0.04506 -0.019399,-0.068584 -0.00691,-0.048866 0.00839,-0.1007411 0.00114,-0.1498822 -0.00458,-0.082959 9.261e-4,-0.1663126 -0.00798,-0.2491282 -0.00233,-0.1216832 -0.0058,-0.2438884 0.00833,-0.365049 C 4.3527243,8.937618 4.3894747,8.7914899 4.4258599,8.6451381 4.476944,8.5059717 4.5407248,8.3713179 4.6033442,8.2369955 4.6833198,8.0883151 4.7560125,7.9350226 4.8581623,7.7995176 4.968022,7.6530615 5.0959928,7.5245523 5.247725,7.4206587 5.4770605,7.2538312 5.7112445,7.0943063 5.9493473,6.9401328 6.120661,6.8219143 6.2984139,6.712498 6.4591477,6.5796303 6.6000571,6.4592224 6.7487066,6.3490632 6.896423,6.2372466 7.0613676,6.1149038 7.2232169,5.9887833 7.3886143,5.8671321 7.5607136,5.7410756 7.7357545,5.616455 7.9313826,5.5289875 8.1448479,5.4297814 8.3631109,5.3426822 8.5815636,5.2551178 8.8177044,5.1533287 9.0523655,5.0487672 9.2834568,4.935851 9.5465616,4.813714 9.8191782,4.7149435 10.090379,4.6124865 10.363218,4.5040423 10.642151,4.4052699 10.893248,4.2503357 11.012893,4.164452 11.147649,4.0676523 11.162542,3.9091111 11.151157,3.7627642 11.113486,3.6196278 11.071783,3.4792987 11.004454,3.2685646 10.927086,3.0609011 10.842334,2.8564864 10.757702,2.7072691 10.710381,2.534671 10.580162,2.4162357 10.522657,2.3562725 10.46315,2.3133628 10.396925,2.2638393 10.375404,2.2477453 10.356642,2.227728 10.33349,2.2140823 8.7616588,1.2876301 9.2037156,1.5157307 8.5484409,1.1801374 8.3774535,1.0963328 8.1974794,1.041776 8.0128151,0.99576064 7.7604367,0.92208434 7.5119644,0.83533123 7.2571019,0.7702684 7.0425918,0.7132022 6.8242462,0.67305795 6.6020936,0.66223073 6.4008685,0.6502873 6.1992909,0.65791714 5.9978245,0.65873497 5.784722,0.66131995 5.57182,0.67496372 5.3606809,0.70493085 5.1204583,0.73914539 4.8779778,0.76944028 4.6451868,0.84033921 4.4669132,0.88910658 4.2869497,0.94043971 4.1221873,1.0257661 3.977446,1.0991301 3.8336381,1.1776889 3.7119554,1.2864617 3.6181265,1.3607428 3.5201793,1.4299128 3.4339085,1.5133566 3.3540305,1.594896 3.2935571,1.6867958 3.2665688,1.7990769 c -0.0022,0.012589 -0.018513,0.1046926 -0.019256,0.1141112 -0.00597,0.075697 0.00873,0.1529538 0.00402,0.2287745 6.614e-4,0.131812 -0.00114,0.2637929 0.00669,0.3954374 0.010218,0.1613487 0.026098,0.3222349 0.055014,0.481476 0.032727,0.149448 0.055481,0.3016303 0.1017932,0.447803 0.061017,0.1818354 0.1067572,0.3703582 0.1999091,0.5400545 0.09501,0.1845982 0.1979755,0.3649056 0.3292189,0.5264663 0.1103378,0.1346298 0.2095169,0.2803794 0.3435172,0.393365 0.088313,0.078779 0.045407,0.037547 0.1285978,0.1238165 0.092892,0.085564 0.2005468,0.1552895 0.2896896,0.245433 0.080354,0.056147 0.1641721,0.1133639 0.2377287,0.178393 0.003,0.00266 0.1363847,0.1375417 0.1398711,0.140553 0.024082,0.020799 0.051243,0.037738 0.076864,0.056607 C 5.776119,6.1001526 6.1868751,6.2919239 7.0363158,6.7849178 7.5133424,7.0617717 6.0820789,6.231527 5.6049768,5.954803 5.5720038,5.935679 5.6716578,5.991756 5.704998,6.010232 c 0.228083,0.1443201 0.4581884,0.2853893 0.689965,0.4236455 0.058441,0.034996 0.1794859,0.1059296 0.2357871,0.1457108 0.035868,0.025344 0.066029,0.058723 0.1037574,0.081204 1.3461023,0.8020906 3.0580018,1.7706854 0.2002271,0.1263491 -0.029385,-0.016907 0.0574,0.036093 0.0861,0.05414 0.049752,0.029686 0.097169,0.06333 0.1479937,0.09114 0.020809,0.011385 0.043923,0.018116 0.064883,0.029222 0.057036,0.03022 0.099252,0.076613 0.1544926,0.1092819 0.083095,0.079543 0.1663218,0.1632325 0.2719448,0.2124 0.084471,0.064324 0.1841084,0.1026779 0.264047,0.1728626 0.026992,0.020653 0.057031,0.037196 0.083471,0.058551 0.05134,0.041467 0.02844,0.039561 0.084703,0.078005 0.016904,0.011552 0.036835,0.018063 0.054155,0.028981 0.018172,0.011457 0.034707,0.025323 0.052061,0.037984 0.1062016,0.067054 0.2160214,0.1279212 0.3151528,0.2059627 0.07837,0.078916 0.1593525,0.1568162 0.2238227,0.2478794 0.04972,0.089819 0.083469,0.1908379 0.081587,0.2943558 -5.556e-4,0.124083 -0.00288,0.2488046 -0.025109,0.3712435 C 8.7615763,8.9291975 8.7098876,9.0759637 8.6418584,9.2135616 8.5657585,9.3615827 8.4839212,9.5074909 8.3741319,9.6338231 8.2680676,9.7460691 8.1483931,9.841077 8.0162827,9.9215643 7.8689505,10.02132 7.7148863,10.111222 7.5596786,10.198044 7.3662401,10.300599 7.1638177,10.382111 6.956113,10.451261 c -0.1670997,0.05544 -0.3352697,0.107359 -0.5024437,0.162461 -0.1481286,0.04954 -0.2973279,0.09229 -0.4551807,0.09254 -0.1435774,6.35e-4 -0.2871456,-0.0034 -0.4307228,-4.5e-4 -0.1756786,0.0042 -0.3516993,0.0043 -0.526543,-0.01628 -0.2039253,-0.02796 -0.4067821,-0.06305 -0.609867,-0.09647 -0.2544124,-0.05477 -0.507893,-0.121027 -0.7407208,-0.240545 -0.6304266,-0.323812 -0.111166,-0.05906 1.4747903,0.859704 0.019603,0.01136 -0.039618,-0.022 -0.059134,-0.03351 -0.052887,-0.03118 -0.1007576,-0.06879 -0.1533718,-0.100363 -0.090126,-0.07965 -0.1867548,-0.148916 -0.2833288,-0.219483 -0.021278,-0.03013 -0.039135,-0.06258 -0.060528,-0.09263 -0.037434,-0.05258 -0.087156,-0.09669 -0.1049835,-0.161595 -0.019505,-0.03109 -0.05241,-0.08568 -0.065168,-0.119049 -0.01475,-0.03858 -0.010472,-0.0843 -0.033541,-0.120264 z" />
  </g>
</svg>
