<?xml version="1.0" encoding="UTF-8" standalone="no"?>
<!-- Created with Inkscape (http://www.inkscape.org/) -->

<svg
   width="48"
   height="48"
   viewBox="0 0 12.699999 12.699999"
   version="1.1"
   id="svg1"
   inkscape:export-filename="8.svg"
   inkscape:export-xdpi="96"
   inkscape:export-ydpi="96"
   xmlns:inkscape="http://www.inkscape.org/namespaces/inkscape"
   xmlns:sodipodi="http://sodipodi.sourceforge.net/DTD/sodipodi-0.dtd"
   xmlns="http://www.w3.org/2000/svg"
   xmlns:svg="http://www.w3.org/2000/svg">
  <sodipodi:namedview
     id="namedview1"
     pagecolor="#505050"
     bordercolor="#eeeeee"
     borderopacity="1"
     inkscape:showpageshadow="0"
     inkscape:pageopacity="0"
     inkscape:pagecheckerboard="0"
     inkscape:deskcolor="#505050"
     inkscape:document-units="px">
    <inkscape:page
       x="0"
       y="0"
       width="12.699999"
       height="12.699999"
       id="page2"
       margin="0"
       bleed="0" />
  </sodipodi:namedview>
  <defs
     id="defs1" />
  <g
     inkscape:label="Camada 1"
     inkscape:groupmode="layer"
     id="layer1">
    <path
       style="fill:#d4ff2a;fill-opacity:0.996078;stroke:none;stroke-width:6.47037;paint-order:markers stroke fill"
       id="path2"
       d="M 10.092183,2.8723916 C 9.9641024,2.7681726 9.856457,2.642655 9.723885,2.5423227 9.0440661,2.0278252 8.2529119,1.6799119 7.5138384,1.2549037 7.1946056,1.1184712 6.860157,1.038816 6.5151992,1.0096967 6.1931319,0.98499773 5.8701462,0.98895916 5.5480503,1.008091 5.2840462,1.0073293 5.035516,1.0863822 4.8020288,1.2034047 4.5439309,1.3228704 4.3355239,1.5146711 4.1311793,1.7073465 3.922253,1.9010654 3.7238599,2.1054169 3.5441648,2.3265769 3.3976264,2.5088371 3.2824044,2.7109883 3.183037,2.9219417 3.101504,3.1117974 3.0518886,3.310161 3.0126214,3.5121331 2.9768082,3.7222597 2.9372263,3.9310834 2.9080393,4.1422823 2.8817533,4.3265931 2.8811923,4.5086185 2.9179293,4.6910792 2.9593043,4.8821098 3.0273459,5.0657374 3.1069261,5.2437946 3.23285,5.5136445 3.442413,5.7344401 3.6472242,5.9464527 4.3364518,6.6382382 5.247591,6.9971553 6.0993408,7.4863308 6.2212748,7.5563598 6.3189882,7.5900732 6.4491958,7.6421827 6.7702516,7.780345 7.1084277,7.8389846 7.4545492,7.8610455 7.8464743,7.8391169 8.1721959,7.7179983 8.5079592,7.5226882 8.8026269,7.3437199 9.0311828,7.0970198 9.2109213,6.8061323 9.4018596,6.4814818 9.5268403,6.1254086 9.6568308,5.7736764 9.7971876,5.4035639 9.8988167,5.0195683 9.9545294,4.627855 c 0.042366,-0.3336109 0.053409,-0.6697772 0.072106,-1.0051376 0.0078,-0.1925405 0.01895,-0.384973 0.03097,-0.5772981 -0.001,-0.020219 -0.0028,-0.040414 -0.0031,-0.060658 -1.84e-4,-0.014363 -2.99e-4,-0.028838 0.0018,-0.043057 0.0017,-0.011874 0.01991,-0.028989 0.0094,-0.034721 C 9.2489426,2.4623342 7.9206438,1.1630087 7.9257157,1.9681481 c 0.00715,0.1841446 0.00974,0.3686446 0.00688,0.5529211 0.00651,0.2124941 -0.00607,0.4244213 -0.020354,0.6363018 -0.00912,0.2522487 -0.022103,0.5043751 -0.021173,0.7568351 -0.0057,0.2501316 0.00397,0.5004083 -0.00543,0.7504066 -0.019813,0.2357489 -0.038741,0.4714108 -0.048916,0.7077977 -0.00725,0.2606222 -0.043233,0.5193386 -0.0735,0.7779936 -0.032997,0.2082843 -0.080082,0.4134893 -0.097948,0.6238041 -0.028907,0.2870091 -0.078107,0.570874 -0.1429903,0.851765 -0.0786,0.313738 -0.1646864,0.625205 -0.2558978,0.9354883 C 7.1908641,8.8394694 7.0839819,9.1078922 6.9394155,9.356921 6.7914275,9.5919038 6.6551806,9.8336013 6.5030163,10.065904 6.3804972,10.254223 6.2273181,10.415174 6.0611374,10.5646 5.9178891,10.683231 5.73403,10.719563 5.5672668,10.790758 c -0.2346729,0.08819 -0.4858642,0.107674 -0.7341775,0.116299 -0.1131459,-3.8e-4 -0.2038346,-0.02601 -0.2968426,-0.08909 -0.031998,-0.0217 -0.1268465,-0.08809 -0.0932,-0.06905 1.6854566,0.954048 2.4265117,1.444589 1.711348,0.974383 -0.1812716,-0.12597 -0.3348881,-0.286243 -0.4816918,-0.449875 -0.066659,-0.06498 -0.035375,-0.03195 -0.094192,-0.09876 0,0 -2.1603305,-0.883219 -2.1603305,-0.883219 v 0 c 0.079422,0.05893 0.040389,0.02516 0.115582,0.103006 0.18518,0.150049 0.3322878,0.342466 0.5145536,0.496542 0.7314128,0.56971 0.1870556,0.153654 2.1718283,1.287421 0.1436334,0.08205 0.3144951,0.07108 0.4719185,0.05625 0.2621483,-0.03416 0.5245424,-0.07501 0.7744687,-0.164889 0.2035893,-0.06479 0.4093652,-0.135903 0.5580951,-0.297648 0.1654018,-0.171924 0.3099295,-0.357665 0.4283748,-0.565645 0.1547827,-0.235998 0.3093172,-0.47167 0.4463562,-0.718699 0.04208,-0.07413 0.1095667,-0.18861 0.1432917,-0.266355 C 9.1243984,10.032987 9.1738248,9.8288649 9.2389324,9.6347048 9.3216691,9.3179097 9.4211358,9.0059203 9.4949927,8.6869309 9.5570942,8.4052744 9.6413115,8.1290201 9.7028958,7.8471505 9.7420492,7.6339351 9.7367413,7.4147298 9.7736652,7.2006778 9.7964733,6.9382755 9.8469065,6.6805253 9.8729159,6.418539 c 0.0057,-0.2367 0.016511,-0.4731984 0.036708,-0.7091548 0.016867,-0.2527497 0.00734,-0.5061214 0.010075,-0.7593024 0.00531,-0.2468976 -6.029e-4,-0.4943733 0.02171,-0.7406282 0.015946,-0.2137847 0.054508,-0.4257422 0.046707,-0.6406791 -0.0022,-0.1735286 -0.0021,-0.3485042 0.020308,-0.5207837 0.0027,-0.013478 0.02084,-0.034953 0.0082,-0.040436 -0.01243,-0.0054 -0.0085,0.041295 -0.020504,0.035099 C 9.2914305,2.6803025 8.5975992,2.2971368 7.9008676,1.9196613 c -0.00777,-0.00421 0.019405,-0.00323 0.026441,0.00213 0.019831,0.015114 0.03137,0.067479 0.036974,0.085561 0.059328,0.180824 0.021786,0.399018 0.047002,0.5865285 0.012923,0.333347 0.014033,0.6682977 -0.018917,1.0005841 C 7.9435873,3.9722647 7.8681684,4.3459388 7.7275177,4.7016461 7.6001966,5.035064 7.4597449,5.3668069 7.2750101,5.6728552 7.0971191,5.9235669 6.9096754,6.1497011 6.6378542,6.3051186 6.3165012,6.4786432 6.0174843,6.5643476 5.6481232,6.5225524 5.3249214,6.4820007 5.0088516,6.4070188 4.7128419,6.2667391 4.0174012,5.9286781 2.9736712,5.2848983 6.1122725,7.1055485 6.161368,7.1340271 6.0140877,7.0482903 5.9677368,7.0155322 5.8954507,6.9644453 5.7798926,6.8612424 5.7132051,6.8033635 5.524209,6.6174913 5.3427905,6.426409 5.2010205,6.2007793 5.1258936,6.0377668 5.0531405,5.8735297 5.0038543,5.7008684 4.9691909,5.5378676 4.9244025,5.378364 4.9509289,5.2092239 4.9638798,5.0028175 4.9999249,4.8000733 5.039273,4.5972983 5.0797127,4.4132087 5.1241723,4.2298673 5.1867841,4.0518091 5.2703467,3.8547904 5.3704579,3.6643418 5.4991581,3.4927118 5.6651507,3.2735592 5.8479027,3.0713383 6.0620346,2.8974111 6.2484238,2.7189583 6.4540676,2.5601823 6.6965762,2.4655358 6.9194179,2.3862915 7.1470291,2.3353257 7.3841396,2.3246063 c 0.3102129,-0.020534 0.6211453,-0.01258 0.9298335,0.026653 0.326408,0.054949 0.646862,0.1383851 0.937387,0.3030738 C 8.6649446,2.3137951 8.0781412,1.9739244 7.4921138,1.6327187 c -0.045159,-0.026294 0.09188,0.049884 0.1366291,0.07687 0.1042294,0.062853 0.2219192,0.1402854 0.2724828,0.255277 z" />
  </g>
</svg>
