<?xml version="1.0" encoding="UTF-8" standalone="no"?>
<!-- Created with Inkscape (http://www.inkscape.org/) -->

<svg
   width="54.194603"
   height="45"
   viewBox="0 0 14.338988 11.906249"
   version="1.1"
   id="svg1"
   inkscape:export-filename="multiply.svg"
   inkscape:export-xdpi="96"
   inkscape:export-ydpi="96"
   xmlns:inkscape="http://www.inkscape.org/namespaces/inkscape"
   xmlns:sodipodi="http://sodipodi.sourceforge.net/DTD/sodipodi-0.dtd"
   xmlns="http://www.w3.org/2000/svg"
   xmlns:svg="http://www.w3.org/2000/svg">
  <sodipodi:namedview
     id="namedview1"
     pagecolor="#505050"
     bordercolor="#eeeeee"
     borderopacity="1"
     inkscape:showpageshadow="0"
     inkscape:pageopacity="0"
     inkscape:pagecheckerboard="0"
     inkscape:deskcolor="#505050"
     inkscape:document-units="px">
    <inkscape:page
       x="-1.3402372e-17"
       y="0"
       width="14.338988"
       height="11.906249"
       id="page2"
       margin="0"
       bleed="0" />
  </sodipodi:namedview>
  <defs
     id="defs1" />
  <ellipse
     style="fill:#8787de;fill-opacity:0.996078;stroke:none;stroke-width:5.1377;paint-order:markers stroke fill"
     id="path8"
     cx="6.9777188"
     cy="5.9531245"
     rx="6.2366071"
     ry="5.9531245" />
  <g
     id="g38"
     transform="matrix(0.91553284,0,0,0.91553284,1.0721441,-0.60580038)">
    <path
       style="fill:#008066;fill-opacity:0.996078;stroke:#ffffff;stroke-width:0.550264;stroke-dasharray:none;stroke-opacity:1;paint-order:markers stroke fill"
       id="path32"
       d="m -0.77144225,4.6860609 c 0.1068924,0.5328399 0.10838462,1.0772975 0.10397037,1.6182352 -0.0131477,0.561391 -0.0759398,1.1190236 -0.14893456,1.6751158 -0.0142788,0.1084652 -0.0208007,0.2176696 -0.0283338,0.3267319 -0.004107,0.059456 -0.006144,0.1152739 -0.0253256,0.1717756 -0.0459399,-0.3398488 0.002236,0.057023 0.8579964,0.4160864 0.02522312,0.010583 -0.01265897,-0.053453 -0.01472507,-0.080728 -0.0035587,-0.046981 -0.0032706,-0.094229 -0.0020958,-0.1413296 0.004837,-0.1939163 0.01575196,-0.2418691 0.03964903,-0.4460316 C 0.08507593,7.6477636 0.20046311,7.0763486 0.3219233,6.5066209 0.38738404,6.2061656 0.43884396,5.9022856 0.51661394,5.604627 c 0.0324997,-0.08657 0.037945,-0.212244 0.12328195,-0.2663148 0.15499487,-0.048769 0.31527629,-0.025834 0.47103881,0.00461 0.043437,0.011322 0.087806,0.019537 0.1303115,0.033967 0.046798,0.015888 0.092375,0.035462 0.1369635,0.056777 0.050173,0.023985 0.1952748,0.1065051 0.1469692,0.078952 C 1.3318685,5.4023578 1.1416892,5.2860827 0.94315991,5.1855199 0.8795585,5.1533032 1.0619388,5.2645223 1.1192119,5.3069821 1.1764059,5.3493841 1.2306461,5.3956311 1.2863632,5.4399564 1.5528377,5.6760989 1.6983426,5.9491142 1.765491,6.2975627 1.77726,6.3586337 1.781951,6.4208588 1.790182,6.482507 1.806639,6.7422148 1.799252,7.0102044 1.70286,7.2557583 1.684867,7.3015953 1.660787,7.3448023 1.63975,7.3893245 1.4788783,7.6820116 1.2739733,7.8160032 0.98045303,7.9539723 0.69948064,8.0692247 0.39949616,8.1056621 0.09910545,8.1243557 c -0.14089781,0.00384 -0.28394852,0.012769 -0.42384154,-0.011118 -0.0291687,-0.00498 -0.0859149,-0.022524 -0.11607958,-0.031436 -0.055316,-0.015975 -0.0306413,-0.00475 -0.074939,-0.031584 0,0 0.76847313,0.6017392 0.76847313,0.6017392 v 0 c 0.0482414,0.00813 0.023129,0.00376 0.0753249,0.013187 0.16906932,0.020317 0.33963334,1.256e-4 0.50834801,-0.014711 C 1.1404385,8.6169339 1.4461488,8.5712935 1.7286268,8.447544 1.8348208,8.3945093 1.9041289,8.3642634 2.0028787,8.297358 2.1786353,8.1782783 2.3132746,8.014959 2.4181023,7.8317133 2.4423035,7.783992 2.4701359,7.7379445 2.4907059,7.6885489 2.5983699,7.4300121 2.5889158,7.1397507 2.5703114,6.8663872 2.5306222,6.5964297 2.484452,6.3225108 2.3447027,6.0826851 2.2576798,5.9333437 2.1975864,5.884318 2.0795145,5.7593347 2.0252178,5.7135123 1.9723731,5.6659121 1.9166246,5.621868 1.5898505,5.3636993 1.1740353,5.1546279 0.83726833,4.9612784 0.69569043,4.8799936 0.5411823,4.8250775 0.38154567,4.7929216 0.2238065,4.7668522 0.02360879,4.7315354 -0.13124065,4.7939535 c -0.0189441,0.00764 -0.0355104,0.020193 -0.0532656,0.030291 -0.0128643,0.012853 -0.0272475,0.02435 -0.0385929,0.038562 -0.0659169,0.082577 -0.0620169,0.204948 -0.082478,0.3028671 -0.0418372,0.3162914 -0.0651646,0.6347949 -0.10620834,0.9512188 -0.0763676,0.5769115 -0.16843109,1.1524519 -0.31222146,1.7169611 -0.0491371,0.1818391 -0.0938492,0.3645706 -0.14218554,0.5465841 -0.007334,0.027615 -0.046167,0.066431 -0.0226568,0.082668 0.2757093,0.190415 0.57472313,0.3452251 0.87041757,0.5028268 0.0104115,0.00555 0.0057035,-0.022897 0.00855531,-0.034344 C -0.00958325,8.7502154 -0.01738377,8.5689734 -0.0229442,8.3876643 -0.04892786,7.8021623 -0.05745864,7.2161611 -0.03165442,6.6303424 -0.00960964,6.1311197 0.00505167,5.625373 0.10998399,5.1351662 Z" />
    <path
       style="fill:#d35f5f;fill-opacity:0.996078;stroke:#ffffff;stroke-width:0.550264;stroke-dasharray:none;stroke-opacity:1;paint-order:markers stroke fill"
       id="path34"
       d="M 3.679013,8.4807071 C 3.6751982,8.4690181 3.6701916,8.4576508 3.6675782,8.4456365 3.6533764,8.380259 3.6507789,8.3233835 3.6459171,8.2552159 3.6314895,8.0528996 3.6316645,7.8515628 3.6318786,7.6487968 c 0.00422,-0.4885358 0.00407,-0.9771644 0.018133,-1.4655466 0.012984,-0.1945603 -2.808e-4,-0.390145 0.00738,-0.584656 0.00345,-0.043455 0.00471,-0.086926 0.00389,-0.1304887 0,0 -0.9343635,-0.2957675 -0.9343635,-0.2957675 v 0 c 0.00365,0.04491 0.00523,0.089923 0.00884,0.1348386 0.026091,0.2046922 0.081709,0.4058689 0.089908,0.6132553 0.040487,0.4879312 0.040855,0.9787286 0.00791,1.4672478 -0.025492,0.2698453 -0.054569,0.5396388 -0.1014604,0.8066781 z" />
    <path
       style="fill:#442178;fill-opacity:0.996078;stroke:#ffffff;stroke-width:0.550264;stroke-dasharray:none;stroke-opacity:1;paint-order:markers stroke fill"
       id="path35"
       d="m 4.1578004,5.4353307 c 0.1456671,0.2858249 0.2163614,0.6029846 0.2857177,0.9139885 0.081465,0.3988014 0.107592,0.8058398 0.1236765,1.2116947 0.00699,0.1686708 -0.00204,0.3396448 0.022582,0.5071901 -0.00151,0.035423 0.025778,0.066316 0.029526,0.1002104 0.00122,0.011065 -0.00159,0.022212 -0.00235,0.033316 0.2999655,0.1340922 0.5885121,0.2973972 0.8998968,0.4022767 0.03006,0.010126 0.010597,-0.062548 0.015896,-0.093822 0.071993,-0.4974722 0.236551,-0.9737145 0.4160279,-1.440984 0.1732931,-0.4469992 0.3940776,-0.8720626 0.6383705,-1.2836984 0,0 -0.7727534,-0.4406159 -0.7727534,-0.4406159 v 0 C 5.6239557,5.7895268 5.4419512,6.237573 5.2605831,6.6859756 5.1508929,6.968418 5.0404109,7.2505434 4.9267446,7.5314171 4.9216946,7.5439051 4.7779762,7.8948628 4.7606079,7.934183 c -0.017963,0.040667 -0.03849,0.080153 -0.057735,0.1202291 -0.1955853,0.3394874 -0.036578,0.020886 0.8354377,0.5077967 0.00948,0.00529 -0.017881,0.018645 -0.028408,0.015965 -0.00524,-0.00132 -0.03779,-0.083183 -0.045758,-0.091066 C 5.4039282,8.3166631 5.3820133,8.1357201 5.3594491,7.9569769 5.3122297,7.5432985 5.2813693,7.1273992 5.2037519,6.7177142 5.1511125,6.4286122 5.0908984,6.1403601 5.0523063,5.8490208 Z" />
    <path
       style="fill:#71c837;fill-opacity:0.996078;stroke:#ffffff;stroke-width:0.550264;stroke-dasharray:none;stroke-opacity:1;paint-order:markers stroke fill"
       id="path36"
       d="M 7.7768069,8.651656 C 7.6965903,8.362995 7.6403238,8.0658569 7.6081777,7.7678921 7.5971181,7.6653762 7.5925302,7.5622649 7.5847091,7.4594512 7.5603146,6.9945368 7.5981156,6.5317518 7.6591078,6.0714305 c 0,0 -0.7536549,-0.3916783 -0.7536549,-0.3916783 v 0 c -0.014997,0.4739836 -0.022905,0.948069 -0.028648,1.4222547 -9.525e-4,0.2321927 -0.004,0.3334403 0.00455,0.5592322 0.00615,0.16261 0.021868,0.3255576 0.022294,0.4884274 5.98e-5,0.022942 -0.00266,0.045808 -0.004,0.068712 z" />
    <path
       style="fill:#d4aa00;fill-opacity:0.996078;stroke:#ffffff;stroke-width:0.463853;stroke-dasharray:none;stroke-opacity:1;paint-order:markers stroke fill"
       id="path32-2"
       d="m 8.2786857,5.4181919 c 0.090106,0.4491647 0.091364,0.9081228 0.087643,1.3641137 -0.011085,0.4732323 -0.064015,0.9432964 -0.125546,1.4120621 -0.012037,0.091432 -0.017534,0.1834879 -0.023881,0.2754232 -0.00346,0.050123 -0.00514,0.097172 -0.021352,0.1448001 -0.038726,-0.2864795 0.00185,0.048066 0.7232601,0.3507463 0.02126,0.00892 -0.01067,-0.045056 -0.01242,-0.068052 -0.003,-0.039602 -0.0028,-0.079432 -0.0018,-0.119136 0.004,-0.1634642 0.01328,-0.2038868 0.03342,-0.375988 0.06265,-0.4873621 0.159914,-0.9690446 0.2623,-1.4493044 0.05518,-0.253273 0.09856,-0.5094328 0.164117,-0.7603482 0.0274,-0.072975 0.03199,-0.178914 0.103923,-0.2244938 0.130655,-0.041111 0.265766,-0.021777 0.397069,0.00389 0.03662,0.00954 0.07402,0.016469 0.109847,0.028633 0.03945,0.013393 0.07787,0.029893 0.1154562,0.047861 0.04229,0.020219 0.164609,0.08978 0.123889,0.066554 -0.162953,-0.092945 -0.3232682,-0.1909612 -0.4906212,-0.275732 -0.05361,-0.027158 0.100127,0.066596 0.148406,0.1023882 0.04821,0.035743 0.09394,0.074728 0.1409022,0.1120925 0.224629,0.1990596 0.347284,0.4292016 0.403888,0.7229311 0.0099,0.051481 0.01388,0.1039341 0.02081,0.1559013 0.01388,0.2189243 0.0077,0.4448299 -0.07361,0.6518229 -0.01516,0.038639 -0.03546,0.075061 -0.0532,0.1125915 -0.135609,0.2467249 -0.308336,0.3596745 -0.5557632,0.4759774 -0.236849,0.097154 -0.489726,0.1278692 -0.742945,0.1436275 -0.1187706,0.0032 -0.2393576,0.010765 -0.3572816,-0.00937 -0.02459,-0.00421 -0.07242,-0.018984 -0.09785,-0.026503 -0.04663,-0.013471 -0.02583,-0.00396 -0.06317,-0.026621 0,0 0.6477946,0.5072442 0.6477946,0.5072442 v 0 c 0.04066,0.00683 0.0195,0.0032 0.06349,0.011119 0.14252,0.017129 0.286299,1.062e-4 0.428519,-0.0124 0.2563,-0.028239 0.5140042,-0.066712 0.7521222,-0.1710281 0.08952,-0.044702 0.147942,-0.070202 0.231185,-0.1266014 0.148156,-0.1003801 0.261652,-0.2380521 0.350018,-0.3925218 0.0204,-0.040226 0.04386,-0.079045 0.0612,-0.1206821 0.09076,-0.2179373 0.08279,-0.4626171 0.0671,-0.6930527 C 11.062206,7.0285636 11.023286,6.7976599 10.905483,6.5954955 10.832126,6.4696061 10.781469,6.4282793 10.681938,6.3229229 10.636169,6.2842962 10.591622,6.244171 10.544629,6.2070434 10.26917,5.9894165 9.9186518,5.8131769 9.6347698,5.6501903 c -0.119345,-0.06852 -0.24959,-0.1148124 -0.384157,-0.1419187 -0.132968,-0.021975 -0.301728,-0.051746 -0.4322606,8.682e-4 -0.01597,0.00644 -0.02993,0.017022 -0.0449,0.025534 -0.01084,0.010835 -0.02297,0.020526 -0.03253,0.032506 -0.05557,0.069609 -0.05228,0.1727638 -0.06953,0.255306 -0.03527,0.2666222 -0.05494,0.5351092 -0.08953,0.8018431 -0.06438,0.4863155 -0.141982,0.9714752 -0.2631914,1.4473364 -0.041423,0.1532837 -0.079112,0.3073194 -0.1198568,0.4607506 -0.00615,0.023274 -0.03892,0.055998 -0.019102,0.069688 0.2324132,0.1605129 0.4844712,0.2910122 0.7337298,0.4238641 0.0088,0.00472 0.0048,-0.019304 0.0073,-0.028947 2.47e-4,-0.1528908 -0.0063,-0.3056713 -0.01102,-0.4585082 -0.0219,-0.493557 -0.0291,-0.9875346 -0.0073,-1.4813585 0.01858,-0.4208267 0.03095,-0.8471529 0.1193956,-1.2603794 z" />
    <path
       style="fill:#ff0000;fill-opacity:0.996078;stroke:#ffffff;stroke-width:0.44944;stroke-dasharray:none;stroke-opacity:1;paint-order:markers stroke fill"
       id="path38"
       d="m 13.012569,8.51634 c -0.141895,0.00565 -0.285298,6.699e-4 -0.427639,-7.131e-4 -0.21282,-0.0013 -0.425558,-0.00662 -0.638298,-0.012158 -0.127943,-0.00569 -0.25539,0.010215 -0.383123,0.015339 -0.07138,0.00289 -0.14279,0.00104 -0.214186,4.539e-4 -0.03331,-0.00174 -0.06665,-0.00204 -0.09998,-0.00294 -0.05182,0.00278 -0.103603,0.00447 -0.155514,0.00458 -0.02043,-5.186e-4 -0.03886,0.00231 -0.05711,-0.00918 -0.0063,-0.00397 -0.02158,-0.02016 -0.01509,-0.016495 0.22491,0.1269976 0.447371,0.2582869 0.67129,0.3870246 0.0053,0.00304 -0.01134,-0.00539 -0.01542,-0.00994 -0.0052,-0.00584 -0.0078,-0.013584 -0.01178,-0.020376 -0.01643,-0.071135 -4.75e-4,-0.1468615 0.01639,-0.2166981 0.02127,-0.089135 0.04833,-0.1767219 0.07297,-0.2649602 0.03024,-0.089832 0.05104,-0.1820158 0.07212,-0.2742297 0.02238,-0.095708 0.04092,-0.1917893 0.05169,-0.2895022 0.0099,-0.1010226 0.0021,-0.2027811 0.02177,-0.302713 0.0025,-0.00721 0.0038,-0.01502 0.0076,-0.021611 0.0058,-0.00983 0.0989,-0.025883 0.111549,-0.027809 0.08866,-0.010815 0.178083,-0.01039 0.267223,-0.0092 0.07242,-4.971e-4 0.143883,-0.015862 0.216289,-0.021537 0.102121,-0.00691 0.204502,-0.00812 0.306817,-0.00729 0.07489,3.026e-4 0.149688,0.00415 0.224545,0.00547 0.04837,1.56e-5 0.09674,5.619e-4 0.145095,9.72e-4 0.04722,0.00158 0.09495,-0.00571 0.141126,0.00529 0.07805,0.00989 0.156857,0.011764 0.235283,0.01754 0.02964,0.00496 0.02411,-0.00424 0.02747,0.016834 -0.22186,-0.1614694 -0.439039,-0.3295735 -0.665578,-0.4844084 -0.01003,-0.00682 -0.02392,0.00372 -0.03596,0.00493 -0.05642,0.00568 -0.08299,0.0058 -0.142401,0.00831 -0.187415,0.00705 -0.374705,0.00264 -0.561767,-0.00907 -0.133463,-0.00897 -0.266826,-0.019724 -0.400539,-0.02419 -0.07186,-0.00174 -0.143679,-0.00527 -0.215553,-0.00617 -0.05848,0.00256 -0.11827,0.00725 -0.169424,-0.025283 0.223589,0.1260055 0.448092,0.2504023 0.670766,0.378016 0.008,0.00455 -0.02093,0.0034 -0.03633,-0.021973 -0.0209,-0.034453 -0.01871,-0.079964 -0.02023,-0.1181143 0.002,-0.1142825 0.01057,-0.2283072 0.0156,-0.3424667 0.0027,-0.1019232 0.0037,-0.2038994 0.0045,-0.3058527 -0.0038,-0.093033 -0.01471,-0.1855277 -0.0188,-0.2785644 -0.0035,-0.054433 -1.85e-4,-0.1088678 4.33e-4,-0.1632942 -5.7e-5,-0.00653 -2.6e-4,-0.013074 -1.7e-4,-0.019614 1.91e-4,-0.014691 0.0015,-0.02776 0.0026,-0.027125 0.0036,0.00211 0.0015,0.00839 0.0036,0.01206 0.05211,0.00702 0.106579,0.00138 0.159349,6.485e-4 0.08415,-1.762e-4 0.168304,8.249e-4 0.252457,6.267e-4 0.07953,4.537e-4 0.159057,5.402e-4 0.238586,9.719e-4 0.07381,-2.377e-4 0.147619,2.593e-4 0.221431,4.538e-4 0.06624,-0.00171 0.132444,0.00104 0.198667,0.00184 0.04576,5.402e-4 0.09154,3.242e-4 0.137287,0.00147 0.03903,-4.106e-4 0.07804,1.725e-4 0.117057,-2.079e-4 0.02948,-0.012547 0.05955,-0.022001 0.0914,-0.025209 0,0 -0.659457,-0.4608148 -0.659457,-0.4608148 v 0 c -0.02656,0.00682 -0.05401,0.019394 -0.08171,0.013943 -0.03922,-3.674e-4 -0.07842,1.907e-4 -0.117631,-2.079e-4 -0.04439,0.00121 -0.08882,8.822e-4 -0.133222,0.00147 -0.06454,7.995e-4 -0.129062,0.00361 -0.193623,0.00184 -0.07339,1.801e-4 -0.146788,6.917e-4 -0.220184,4.539e-4 -0.07871,4.106e-4 -0.157424,4.537e-4 -0.236138,6.267e-4 -0.08433,-5.187e-4 -0.168653,-1.84e-4 -0.252978,-7.132e-4 -0.06424,-7.347e-4 -0.135222,-0.010521 -0.194998,0.016837 -0.0371,0.031995 -0.05314,0.067339 -0.04842,0.1165535 0.0015,0.057976 0.0075,0.1157603 0.01057,0.1736716 0.0074,0.092249 0.01656,0.1842803 0.02559,0.2763782 4.75e-4,0.1017738 0.0013,0.2035394 -8.99e-4,0.3053104 -0.0015,0.1140659 -0.0039,0.2281879 -0.01579,0.3417579 -8.98e-4,0.00848 -0.0099,0.089556 -0.01025,0.1005658 -0.009,0.3336087 0.433463,0.366139 0.72289,0.5086351 0.06143,0.00462 0.122713,0.00415 0.184334,0.00534 0.06686,-7.995e-4 0.133691,-0.00372 0.200578,-0.00228 0.126464,0.00222 0.252931,0.00449 0.379267,0.011075 0.188335,0.0076 0.37663,0.00121 0.565024,0.00655 0.08151,0.00295 0.08839,0.00247 0.165474,0.00785 0.01738,0.00121 0.06546,0.015423 0.05206,0.00431 -0.204405,-0.1696236 -0.421265,-0.3236513 -0.631898,-0.4854768 -0.0053,0.016703 3.03e-4,0.010521 -0.02179,0.012543 -0.07925,-0.00227 -0.157786,-0.011304 -0.236036,-0.023941 -0.05017,-7.131e-4 -0.100355,-9.72e-4 -0.150529,-0.00119 -0.04753,3.674e-4 -0.09505,8.658e-4 -0.142602,7.563e-4 -0.07,0.00112 -0.139946,0.00494 -0.209969,0.00578 -0.105718,0.00207 -0.211563,0.00106 -0.317155,0.00701 -0.07102,0.00575 -0.141428,0.017846 -0.212837,0.017377 -0.09235,0.0034 -0.185272,0.0053 -0.276631,0.020204 -0.07724,0.018017 -0.157745,0.043706 -0.171385,0.1333421 -0.007,0.1027877 -0.0044,0.2058455 -0.01422,0.308509 -0.0097,0.094774 -0.02853,0.1871374 -0.05192,0.2794085 -0.01961,0.091082 -0.03597,0.1825396 -0.06645,0.2709523 -0.02778,0.087946 -0.05433,0.1763011 -0.07872,0.2652265 -0.02189,0.080971 -0.03576,0.1632566 -0.04241,0.2469149 0.01421,0.3374502 0.474706,0.5082666 0.788376,0.4799781 0.05609,1.344e-4 0.11207,0.00198 0.168074,0.00479 0.03115,-7.348e-4 0.06231,-7.78e-4 0.09341,-0.00329 0.06735,-0.00222 0.134361,-0.00901 0.201506,-0.014528 0.120806,-0.010477 0.241747,-0.022305 0.363082,-0.023489 0.207299,-0.00419 0.414694,-0.00656 0.621919,0.00262 0.16158,0.00786 0.322571,0.019869 0.483278,0.038435 z" />
  </g>
</svg>
