<?xml version="1.0" encoding="UTF-8" standalone="no"?>
<!-- Created with Inkscape (http://www.inkscape.org/) -->

<svg
   width="48"
   height="48"
   viewBox="0 0 12.699999 12.699999"
   version="1.1"
   id="svg1"
   inkscape:export-filename="minus.svg"
   inkscape:export-xdpi="96"
   inkscape:export-ydpi="96"
   xmlns:inkscape="http://www.inkscape.org/namespaces/inkscape"
   xmlns:sodipodi="http://sodipodi.sourceforge.net/DTD/sodipodi-0.dtd"
   xmlns="http://www.w3.org/2000/svg"
   xmlns:svg="http://www.w3.org/2000/svg">
  <sodipodi:namedview
     id="namedview1"
     pagecolor="#505050"
     bordercolor="#eeeeee"
     borderopacity="1"
     inkscape:showpageshadow="0"
     inkscape:pageopacity="0"
     inkscape:pagecheckerboard="0"
     inkscape:deskcolor="#505050"
     inkscape:document-units="px">
    <inkscape:page
       x="0"
       y="0"
       width="12.699999"
       height="12.699999"
       id="page2"
       margin="0"
       bleed="0" />
  </sodipodi:namedview>
  <defs
     id="defs1" />
  <ellipse
     style="fill:#8787de;fill-opacity:0.996078;stroke:none;stroke-width:5.1377;paint-order:markers stroke fill"
     id="path8"
     cx="6.2696795"
     cy="6.614583"
     rx="6.2366071"
     ry="5.9531245" />
  <g
     inkscape:label="Camada 1"
     inkscape:groupmode="layer"
     id="layer1"
     transform="translate(0.2315104,-0.76067702)">
    <path
       style="fill:#008000;fill-opacity:0.996078;stroke:#ffffff;stroke-width:0.550264;stroke-dasharray:none;stroke-opacity:1;paint-order:markers stroke fill"
       id="path15"
       d="M 1.9766215,5.1711727 C 1.7890522,5.2914578 1.5463907,5.2822398 1.3327479,5.282426 1.0264122,5.2737768 0.72353176,5.2300253 0.42255774,5.1755479 0.31546146,5.1527059 0.2063621,5.1316049 0.10114343,5.1007479 c -0.0813991,-0.019947 -0.14039264,-0.050453 -0.22605215,-0.04621 -0.0702695,0.057009 -0.0587427,0.1352018 -0.0487471,0.2155367 0.0102955,0.082747 0.0128312,0.095353 0.0258934,0.1816552 0.0331151,0.2089219 0.0490224,0.4201141 0.0503408,0.6315318 -0.003619,0.1200139 -0.004744,0.2400133 -0.006487,0.3600524 0.002857,0.070433 -0.0104836,0.1390234 -0.0225219,0.207895 -0.0165285,0.068784 -0.0140716,0.1399836 -0.0112046,0.2101016 0.0123296,0.1033463 -0.0115176,0.2080152 0.005044,0.3102602 0.29957149,0.1563476 0.59136976,0.3285905 0.89871445,0.469043 0.0279815,0.012787 0.060324,-0.012248 0.0907385,-0.016875 0.0464447,-0.00707 0.0930549,-0.013118 0.1397578,-0.018211 0.22628817,-0.024675 0.44975297,-0.023053 0.67710277,-0.020635 0.202388,0.00659 0.4048475,0.018359 0.6061342,0.041031 0.060025,0.00676 0.1412201,0.00926 0.1961501,0.041276 C 1.6054808,7.0209376 1.9488595,7.0782223 1.3544189,7.1015064 c -0.2337657,0.011176 -0.46782533,-0.0033 -0.70152669,0.00437 -0.14924568,0.00805 -0.29846951,0.014997 -0.44793883,0.016185 -0.0931749,0.0097 -0.18330845,-0.011925 -0.27454966,-0.026499 -0.12107467,-0.026733 -0.12319668,0.1270918 -0.13353932,0.2087168 -0.0117618,0.1330532 -0.0193707,0.2664788 -0.0325837,0.3994026 -0.009015,0.088555 -0.001876,0.1772954 -0.006668,0.2660329 -0.005277,0.1645124 -0.0189026,0.3285395 -0.0316723,0.4925999 -0.007124,0.1441884 -0.021123,0.2874677 -0.0384276,0.4306903 -0.0118936,0.1147702 -0.0218657,0.2297443 -0.0140952,0.3450447 0.007837,0.088383 0.0166984,0.1765654 0.0143986,0.265385 -0.0499208,0.3436924 -0.0140324,0.056922 0.87547599,0.4748336 0.0121742,0.00572 0.0136427,-0.023191 0.0207839,-0.034589 0.032676,-0.052157 0.0681264,-0.092023 0.1128674,-0.1343467 C 0.75521041,9.7607335 0.77175871,9.7410005 0.844796,9.7076111 1.0784632,9.600789 1.3464938,9.5886333 1.5979161,9.5722969 c 0.2604713,-0.014727 0.5205831,0.00333 0.7802245,0.02159 0,0 -0.6789234,-0.4976146 -0.6789234,-0.4976146 v 0 c -0.2560911,-0.00285 -0.5122022,-0.00792 -0.7683146,-0.00384 -0.221563,0.00664 -0.29968675,0.00338 -0.51431027,0.030317 -0.18768246,0.023553 -0.37732688,0.061987 -0.5263147,0.185847 -0.006303,0.00533 -0.1748716,0.1569924 -0.16816335,0.1612321 C 0.5835277,10.01423 0.63858182,10.281641 0.56205448,9.9432354 0.55093124,9.8517983 0.54678715,9.7597482 0.53561716,9.6683225 0.52442544,9.5577955 0.52405707,9.4479979 0.53756,9.3373002 0.55050971,9.189759 0.55572716,9.0425155 0.5591791,8.8944615 0.56986662,8.733611 0.59161459,8.5741282 0.60972663,8.414023 c 0.012087,-0.089664 0.0243698,-0.1784011 0.0146223,-0.2691866 -0.00544,-0.1304327 -0.003581,-0.2620322 0.0193919,-0.3908758 0.004057,-0.018264 0.007141,-0.036771 0.0121724,-0.054791 0.0289948,-0.1038381 0.008963,-0.031112 0.013218,-0.026764 0.005435,0.00555 0.0419905,0.00727 0.0427238,0.00734 0.0914782,0.010332 0.18330473,0.012557 0.27519531,0.00547 0.14070086,-0.011216 0.28121726,-0.024752 0.42203906,-0.034452 0.2321824,-0.010726 0.4647455,-0.00891 0.6970592,-0.00319 0.090006,0.00304 0.1799966,0.00639 0.2700003,0.00948 0.018775,6.35e-4 0.037535,0.00196 0.056321,0.00206 0.013748,8.81e-5 0.05204,0.00703 0.041219,-0.00146 C 2.216176,7.455821 1.9479252,7.2680674 1.6850431,7.0732701 1.6615301,7.0961561 1.5731818,7.0926531 1.5530308,7.0935981 1.371081,7.1021381 1.1887574,7.1009281 1.0066981,7.0983581 0.76115347,7.0919081 0.51578156,7.0865791 0.2701944,7.0829061 -0.23269806,7.0753861 -0.27811,6.9511857 0.77897684,7.5332909 c -0.012663,0.00453 -0.0247713,0.016089 -0.0379891,0.0136 -0.0336347,-0.00633 -0.018379,-0.2111034 -0.0171361,-0.2451507 0.004725,-0.064165 0.007557,-0.128456 0.0144556,-0.1924473 0.0110864,-0.075976 0.028237,-0.1504318 0.0180948,-0.2277859 -0.002107,-0.1258379 -0.005431,-0.251461 -0.018397,-0.3768024 -0.0154218,-0.2127715 -0.0256125,-0.4258867 -0.047364,-0.6381609 -0.007152,-0.086712 -0.008652,-0.085426 -0.009754,-0.1676892 -2.494e-4,-0.018611 -1.5689e-4,-0.037231 4.9186e-4,-0.055831 3.4872e-4,-0.010001 0.005399,-0.020341 0.002499,-0.02992 -0.002724,-0.009 -0.0217387,0.032914 -0.0155287,0.023545 0.0694463,0.013732 0.1358443,0.041686 0.20575115,0.054157 0.0985684,0.019137 0.19698935,0.039675 0.29756895,0.045253 0.2885759,0.027986 0.5778318,0.046789 0.8674634,0.060093 0.2570332,0.00262 0.5317767,0.010054 0.7712711,-0.097634 z" />
    <path
       style="fill:#ff7f2a;fill-opacity:0.996078;stroke:#ffffff;stroke-width:0.550264;stroke-dasharray:none;stroke-opacity:1;paint-order:markers stroke fill"
       id="path16"
       d="M 3.8230607,6.8748696 C 3.7236303,6.8650641 3.6255844,6.877653 3.5272396,6.8929327 3.3305299,6.9406302 3.1711081,7.0681459 3.0222361,7.1990138 2.8635604,7.3628985 2.7528239,7.5634921 2.6418983,7.7607885 2.5570601,7.9010584 2.4979512,8.0522317 2.4630898,8.2118726 c -0.02066,0.098758 -0.023475,0.1996434 -0.017539,0.2999962 0.011076,0.140953 0.055985,0.2749925 0.1025569,0.4073852 0.03928,0.1155997 0.094323,0.2246736 0.159604,0.3275613 0.012327,0.015243 0.023741,0.031271 0.036981,0.045727 0.02356,0.025725 0.069796,0.067907 0.099253,0.085113 0.4111699,0.2401665 0.6355701,0.4208092 1.009161,0.5520409 0.1105789,0.043152 0.227444,0.066465 0.3451206,0.07894 0.09114,0.01361 0.1751041,-0.01115 0.261331,-0.035657 0.05839,-0.029797 0.1242767,-0.044848 0.1823075,-0.07518 0.033352,-0.017433 0.064436,-0.038951 0.097532,-0.056865 0.1003774,-0.064759 0.1867183,-0.1453771 0.2564953,-0.2420281 0.076585,-0.1167336 0.1185061,-0.2489483 0.1479616,-0.3841667 0.030432,-0.1548109 0.036366,-0.3130272 0.038461,-0.4703718 8.732e-4,-0.15496 0.00135,-0.3099265 0.00246,-0.4648929 0.00246,-0.137396 0.00611,-0.274175 -0.020675,-0.4094496 C 5.1353973,7.7497921 5.0817443,7.6413156 5.0037269,7.546087 4.7130911,7.258086 4.3464919,6.9786884 3.9350937,6.932753 3.8537887,6.925213 3.7720175,6.923523 3.690403,6.922953 3.2345141,6.897675 4.1519255,7.2130818 4.425534,7.5155376 c 0.067284,0.00718 0.1297287,0.032656 0.1940481,0.052895 0.03813,0.015071 0.072447,0.032222 0.1072853,0.05313 0.01003,0.00602 0.041199,0.022164 0.031067,0.016319 C 3.7785347,7.0728488 3.6825087,7.0163661 3.9724272,7.1865773 4.0330062,7.2323693 4.0866015,7.2870134 4.130031,7.3492151 4.179436,7.4311741 4.20637,7.5224904 4.229136,7.6146668 4.255991,7.7398218 4.267395,7.8678344 4.257328,7.9954209 4.235444,8.1305262 4.183816,8.2588782 4.1364489,8.386714 c -0.039465,0.087911 -0.070572,0.1788292 -0.101523,0.2699419 -0.022199,0.078129 -0.031728,0.1587513 -0.037195,0.2395283 -9.95e-5,0.056988 -0.00823,0.1127678 -0.021482,0.1680268 -0.020558,0.059476 -0.028064,0.1228963 -0.053714,0.1805281 -0.078755,0.1178293 0.074771,0.2069899 0.1542653,0.2658279 0.040612,0.030059 0.082032,0.059009 0.1230477,0.088514 0.2139502,0.1546387 0.4142612,0.3269771 0.6168008,0.49603 0.2508009,0.215996 0.9010594,0.826018 0.9718958,0.44573 3.704e-4,-0.0084 7.408e-4,-0.01679 0.00108,-0.02518 0,0 -0.875009,-0.454966 -0.875009,-0.454966 v 0 c -7.408e-4,0.0051 -0.00148,0.01015 -0.00225,0.01523 -0.00116,0.0093 -2.167e-4,0.0048 -0.00277,0.01356 0.2983364,0.141813 0.5966729,0.283626 0.8950094,0.425439 0.00702,0.0033 -0.013126,-0.0083 -0.019957,-0.01202 -0.068398,-0.03699 -0.011171,3.44e-4 -0.093062,-0.05947 C 5.4645762,10.285655 5.2566233,10.103362 5.0400732,9.931912 5.0047849,9.905795 4.9694964,9.8796772 4.9342079,9.8535596 c -0.025789,-0.020709 -0.050824,-0.042392 -0.077365,-0.062127 -0.016063,-0.011946 -0.032436,-0.023775 -0.050302,-0.032805 -0.025358,-0.012816 -0.04339,-0.00399 -0.043596,-0.00682 -7.408e-4,-0.010083 0.00852,-0.018336 0.012787,-0.027504 0.026122,-0.061611 0.040012,-0.1263079 0.059623,-0.1900454 0.021593,-0.061708 0.033662,-0.1257591 0.02956,-0.1912557 0.00159,-0.073219 0.00425,-0.1471226 0.023847,-0.2181669 0.026493,-0.092737 0.048987,-0.1866252 0.083703,-0.276856 C 5.0153089,8.7111819 5.072912,8.5787601 5.1024099,8.4381066 5.1222859,8.3001729 5.1119099,8.1701067 5.0914829,8.0325845 5.0757396,7.9336852 5.0612449,7.8352374 5.0168139,7.7444195 4.9823874,7.6713773 4.9386825,7.6086247 4.8803223,7.5524 4.6170915,7.2627781 4.2209701,7.1013381 3.8514999,6.9735166 c -0.069768,-0.022315 -0.140671,-0.03857 -0.2114187,-0.057046 -0.3906658,0.019733 0.5120869,0.6333196 0.8420541,0.582223 0.075155,7.7e-5 0.150949,0.00103 0.2240324,0.021024 0.2964053,0.1060897 0.820589,0.467623 -0.711002,-0.4264202 -0.013123,-0.00766 0.02711,0.013843 0.039917,0.022024 0.00276,0.00177 0.079273,0.057793 0.08083,0.058932 0.08858,0.084608 0.1478888,0.1624007 0.1850056,0.2818632 0.01315,0.043838 0.023138,0.071326 0.029747,0.1169538 0.013181,0.091016 0.0022,0.1837526 0.00732,0.2752047 0.00183,0.1549628 0.00384,0.3099197 0.00161,0.4648914 -0.00319,0.1510866 -0.00391,0.3030641 -0.031631,0.4521941 C 4.2798388,8.887055 4.2397135,9.0054233 4.167438,9.1087441 4.1050093,9.1931943 4.0256621,9.2630819 3.9335858,9.3141338 3.8465937,9.3605258 3.7552344,9.3976958 3.6594203,9.4218748 3.5803798,9.4400913 3.5016139,9.4438987 3.42128,9.4291032 3.3115065,9.4127308 3.2046008,9.3841909 3.1021293,9.3409252 2.795141,9.21261 2.409657,8.949937 3.7337669,9.7253116 3.7679426,9.7453247 3.6642709,9.6866668 3.632998,9.6623667 3.6190862,9.6515558 3.6061859,9.6395067 3.5927797,9.6280746 3.5127004,9.5390733 3.458963,9.4259909 3.4058379,9.3198459 3.3615718,9.1979309 3.3178396,9.0738932 3.3098158,8.9433361 3.2995447,8.8498128 3.305855,8.7549891 3.3100444,8.6611882 3.3274249,8.5066271 3.371818,8.3590775 3.4469345,8.2220799 3.5448259,8.0289386 3.6532008,7.8402865 3.8129342,7.690577 3.9536759,7.5668256 4.1103155,7.4585012 4.3031462,7.4445796 c 0.1027491,-0.00519 0.2075413,-0.00507 0.3054731,0.030988 z" />
    <path
       style="fill:#ffcc00;fill-opacity:0.996078;stroke:#ffffff;stroke-width:0.550264;stroke-dasharray:none;stroke-opacity:1;paint-order:markers stroke fill"
       id="path17"
       d="m 5.4472041,6.8160709 c 0.040626,0.1314595 0.042982,0.2719641 0.051114,0.4083944 0.00779,0.2015651 0.011028,0.4032911 0.016161,0.6049573 0.007,0.1358183 0.026724,0.2703126 0.049103,0.4042769 0.018381,0.1145448 0.047367,0.2271146 0.076434,0.3393297 0.026112,0.1052534 0.058307,0.2091256 0.095683,0.3109121 0.039391,0.09171 0.089363,0.1787554 0.1445344,0.2618166 0.040701,0.045966 0.084808,0.088731 0.1205677,0.1386739 0.044341,0.053473 0.097334,0.095073 0.1521521,0.1373195 0.1391387,-0.09785 -0.1646141,-0.1410356 -0.092092,-0.056506 0.1646771,0.1919408 0.6496001,0.5016076 1.0223289,0.5999027 0.039863,0.010513 0.083723,0.00149 0.1232571,0.01418 0.071628,0.022696 0.1465498,0.026352 0.2208162,0.032216 0.081078,0.0062 0.1434444,-0.048788 0.2060858,-0.092366 C 7.7462759,9.8475733 7.8271818,9.7469031 7.8997303,9.6367076 7.9995552,9.472541 8.0476236,9.2870062 8.0890537,9.1013899 8.1334195,8.8961571 8.139116,8.6856597 8.1531519,8.4769397 8.16541,8.3035339 8.1825172,8.1304845 8.1927817,7.9569406 c 0.00416,-0.090097 0.01274,-0.1799894 0.015478,-0.2701382 0.00355,-0.052038 -0.01247,-0.1024808 -0.021736,-0.1532649 -0.00314,-0.019709 -0.00638,-0.040116 -0.00506,-0.060187 2.053e-4,-0.00313 0.00475,-0.00782 0.00193,-0.0092 C 7.2881018,7.0238074 7.2710878,6.7157586 7.3045531,7.0795424 c 0.010644,0.1355992 0.010406,0.2718123 0.012713,0.4077435 6.879e-4,0.1493626 -0.0014,0.2987201 -0.00249,0.4480769 -0.00302,0.1309193 -0.00293,0.2617155 4.498e-4,0.3926215 0.00559,0.1436561 0.00175,0.2873399 -0.0042,0.4308956 -0.00383,0.074089 -0.00927,0.1479402 -0.00705,0.2221627 0.00265,0.079613 0.0022,0.1592299 0.0013,0.2388706 -0.00344,0.047514 7.144e-4,0.095885 -0.00411,0.143166 l 0.8623433,0.5208545 c 0.037898,0.02289 0.010922,-0.1929802 0.00934,-0.221973 -8.731e-4,-0.079197 -0.00138,-0.1583724 0.0013,-0.2375402 0.00235,-0.076601 -0.00356,-0.1528628 -0.00705,-0.2293477 -0.00576,-0.1449843 -0.00987,-0.2900987 -0.0042,-0.4351755 0.00347,-0.1307592 0.00338,-0.2614078 4.233e-4,-0.3921832 -0.00111,-0.1502605 -0.00324,-0.3005206 -0.00273,-0.4507875 0.00212,-0.1313913 0.00119,-0.2631641 0.012539,-0.3941595 0.043508,-0.3642408 0.015158,-0.037443 -0.8775337,-0.5036989 -0.0034,-0.00177 0.00262,0.00725 0.00326,0.011033 0.00382,0.022527 0.00319,0.045832 0.00485,0.068529 0.00469,0.049038 0.01207,0.098895 0.032911,0.1439727 0.00265,0.093159 0.00973,0.1861751 0.009,0.2794479 C 7.3452476,7.6979394 7.343028,7.8739043 7.327872,8.0492809 7.31352,8.2532096 7.3123162,8.458993 7.267354,8.6595318 7.2279369,8.8329387 7.1847365,9.0052022 7.0831418,9.1546606 c -0.074393,0.095635 -0.153248,0.1828871 -0.2628704,0.2393357 -0.063916,0.033791 -0.1085964,0.048483 -0.1805599,0.03529 -0.069564,-0.00617 0.3629077,0.3065946 0.3317287,0.2888616 -0.00843,-0.0048 -0.018883,-0.00628 -0.026247,-0.012602 -0.00777,-0.00667 -0.011784,-0.016743 -0.017679,-0.025114 C 6.8159667,9.5864131 6.8475375,9.5795739 6.7783659,9.5217749 6.701574,9.4628393 6.6576223,9.3698435 6.6115898,9.2866257 6.5646509,9.1913765 6.5368225,9.0889029 6.5098564,8.9865152 6.4765086,8.8772275 6.4493727,8.7668108 6.4247149,8.655221 6.4035614,8.5202477 6.3720739,8.3872081 6.3559946,8.2512967 6.3350555,8.0505957 6.3252966,7.849701 6.33432,7.6478581 6.33583,7.5140321 6.33289,7.3801524 6.3346375,7.2464064 Z"
       sodipodi:nodetypes="cccccccccsscccccccccscccccccccsccccccccccccccccccsccccccccc" />
    <path
       style="fill:#5fd35f;fill-opacity:0.996078;stroke:#ffffff;stroke-width:0.550264;stroke-dasharray:none;stroke-opacity:1;paint-order:markers stroke fill"
       id="path18"
       d="M 9.4347233,8.1568788 C 9.4487251,8.0001076 9.5029914,7.8494648 9.5582271,7.7031814 9.6207733,7.5456035 9.6917298,7.3904397 9.7978332,7.2572469 9.8844263,7.1533323 9.9993753,7.1224539 10.127543,7.1033848 c 0.17684,-0.010112 0.323781,0.028788 0.47343,0.121797 C 9.1183748,6.4313749 9.6723611,6.8304443 9.9738703,6.9041993 c 0.064172,0.015698 0.092913,0.1494856 0.1272317,0.233516 0.07892,0.1997432 0.110316,0.4111365 0.122223,0.6242118 0.0049,0.2299753 -0.02334,0.4590245 -0.05043,0.6869638 -0.02101,0.224255 -0.04702,0.4478142 -0.08251,0.6702401 -0.01624,0.1121685 -0.03098,0.2245273 -0.03843,0.3376483 -0.0036,0.075353 -3.44e-4,0.1508363 -0.0038,0.2262105 -0.0033,0.014711 -0.0015,0.017537 -0.0044,0.00902 0.295602,0.1424037 0.593626,0.2798886 0.886808,0.4272112 0.0068,0.0034 -0.0155,0.01214 -0.02159,0.0076 -0.0092,-0.0069 -0.02134,-0.0782 -0.02352,-0.08882 -0.03512,-0.1838661 -0.05284,-0.3703204 -0.07101,-0.5564291 -0.02221,-0.1684784 -0.02505,-0.3385613 -0.04115,-0.5075451 -0.0064,-0.1008626 -0.01675,-0.2008873 -0.03194,-0.3007667 -0.05619,-0.397539 -0.458125,-0.3745203 -0.8989075,-0.6124868 -0.013359,-0.00721 -0.030146,0.00364 -0.045255,0.00512 -0.016277,0.00159 -0.032595,0.00273 -0.048892,0.0041 -0.1276316,0.015044 -0.245428,0.064439 -0.3645434,0.1096941 -0.097262,0.043412 -0.2041311,0.085225 -0.2816225,0.1615946 -0.018015,0.017753 -0.033103,0.038253 -0.049655,0.05738 -0.093166,0.1249834 -0.1889281,0.2480763 -0.2679155,0.3827172 -0.071902,0.124184 -0.095469,0.2643568 -0.1036627,0.4055591 -0.0029,0.1427445 0.031036,0.2649667 0.1025496,0.38731 0.01479,0.017973 0.027954,0.037421 0.044372,0.053922 0.017542,0.017629 0.035585,0.035538 0.057081,0.048046 0.5945349,0.3459227 0.6689547,0.5175337 1.166879,0.5354347 0.201937,0.0037 0.363135,-0.06871 0.519933,-0.188956 0.0596,-0.050757 0.03217,-0.026243 0.08268,-0.073095 L 9.8251638,9.4460532 v 0 C 9.7903125,9.4916961 9.8099451,9.4680862 9.7653162,9.516065 9.6270124,9.6320162 9.4834739,9.6721054 9.3026238,9.6575104 9.2165387,9.6457338 9.1934009,9.646345 9.1107498,9.6202619 9.0831755,9.6115597 9.0051686,9.5739151 9.0298278,9.5890151 9.2740832,9.7385859 9.5241043,9.8785338 9.7706256,10.02434 9.790181,10.035907 9.7299427,10.003922 9.7107565,9.9917519 9.6927833,9.980351 9.6765266,9.9664445 9.6594117,9.9537911 9.6455978,9.9384611 9.6298779,9.9246544 9.6179679,9.9078023 9.5583711,9.8234769 9.5426469,9.7217756 9.5291044,9.62211 9.5283901,9.494643 9.5519459,9.3696943 9.6118746,9.2559806 9.6769904,9.1239737 9.7690714,9.0069826 9.8648101,8.8958468 9.9561668,8.8170054 10.057657,8.7521569 10.172111,8.7117074 c 0.115707,-0.039605 0.233213,-0.07774 0.357341,-0.071216 0.01571,0.00217 0.03179,0.00249 0.04714,0.00648 0.01255,0.00328 0.04697,0.021836 0.03584,0.015174 C 10.066575,8.4597723 9.8960418,7.8981509 9.9192313,8.5518148 c 0.025479,0.1716812 0.041451,0.344203 0.061714,0.5166259 0.022595,0.180286 0.033469,0.3618259 0.03974,0.543362 0.002,0.038343 0.0053,0.052412 -0.0014,0.089002 -0.0029,0.015716 -0.025818,0.038814 -0.01179,0.046458 0.373683,0.2035945 0.854511,0.7676203 0.911912,0.3793803 -0.0037,-0.07537 -0.0015,-0.1507996 -0.0022,-0.2262175 -0.0016,-0.1150938 -0.0019,-0.230309 0.0066,-0.3451857 0.01377,-0.2269284 0.02979,-0.4542679 0.06048,-0.6795569 0.03288,-0.2308968 0.06454,-0.4632613 0.06435,-0.6968986 -0.0034,-0.2192634 -0.03307,-0.4380807 -0.102719,-0.6467956 -0.02786,-0.088671 -0.05038,-0.1806628 -0.101276,-0.259801 C 10.637354,6.9499066 10.070326,6.7782093 9.8630141,6.6334116 9.7001351,6.5656407 9.5259077,6.5328905 9.3495862,6.5594981 9.1903851,6.5938952 9.0802695,6.6396563 8.9763476,6.7707864 8.8753873,6.9181839 8.8169986,7.0879622 8.7494536,7.2522828 8.690279,7.397948 8.6299323,7.5433898 8.5648515,7.6864722 Z"
       sodipodi:nodetypes="cccccscccccccccccccscccsccccscccccsccsssscsccccccccccccccccccccccccc" />
    <path
       style="fill:#164450;fill-opacity:0.996078;stroke:#ffffff;stroke-width:0.550264;stroke-dasharray:none;stroke-opacity:1;paint-order:markers stroke fill"
       id="path19"
       d="m 11.548705,4.0657004 c 0.01634,0.1351849 0.02173,0.271285 0.0267,0.4072562 0.0074,0.2541883 0.0087,0.5084664 0.0086,0.7627392 3.97e-4,0.2575004 -3.44e-4,0.5149947 -0.0029,0.7724819 0.0049,0.2454632 -0.01567,0.4899633 -0.03809,0.7340845 -0.02789,0.2343153 -0.04375,0.4695465 -0.05548,0.7051458 -0.0082,0.1708097 -0.01873,0.3415476 -0.02256,0.5125261 -0.006,0.1118963 -0.0043,0.2238894 -0.0029,0.3358695 -0.0019,0.1181343 0.0076,0.2358268 0.01586,0.3535495 0.0072,0.1012025 0.01355,0.2023488 0.01836,0.3037101 0.0035,0.097953 -0.0041,0.1956612 -0.0074,0.2934647 -0.0045,0.055071 -0.0028,0.1103897 -0.0022,0.1655717 0.0036,0.072651 0.0025,0.1454357 0.0021,0.2181461 -0.0028,0.051962 -0.0041,0.1038685 -0.0032,0.1558927 2.04e-4,0.045234 -6.8e-5,0.090561 -0.002,0.1357651 7.67e-4,0.042544 0.002,0.085048 3.97e-4,0.1275875 -0.0039,0.02439 -0.0011,0.04876 3.17e-4,0.07319 0,0 0.916159,0.377793 0.916159,0.377793 v 0 c -0.02024,0.0099 -0.02026,0.0087 -0.03754,-0.0031 -0.0015,-0.04241 -4.49e-4,-0.08478 3.97e-4,-0.127189 -0.0019,-0.04589 -0.0022,-0.09189 -0.002,-0.13781 8.73e-4,-0.05311 -5.82e-4,-0.106112 -0.0032,-0.159168 -4.23e-4,-0.07199 -0.0016,-0.1440547 0.0021,-0.2159764 6.88e-4,-0.055869 0.0023,-0.1118518 -0.0019,-0.1676281 -0.003,-0.1009478 -0.01046,-0.2017736 -0.0086,-0.3028518 0.0028,-0.1024538 0.0073,-0.2056416 -0.0071,-0.3074451 -0.01447,-0.1153887 -0.03227,-0.2306354 -0.02426,-0.3473534 0.0012,-0.1129935 0.0022,-0.2259787 -0.0036,-0.3388839 -0.0032,-0.1746136 -0.01103,-0.3491764 -0.0073,-0.5238675 0.0069,-0.2351381 0.0238,-0.4696206 0.05078,-0.7033569 0.01703,-0.2469073 0.04478,-0.4936095 0.0398,-0.7414788 -0.0026,-0.2584768 -0.0033,-0.5169604 -0.0029,-0.7754501 -1.47e-4,-0.2513658 0.0011,-0.5027395 0.0086,-0.7540182 0.0048,-0.1269153 0.0097,-0.2540492 0.0267,-0.380048 z" />
  </g>
</svg>
