<?xml version="1.0" encoding="UTF-8" standalone="no"?>
<!-- Created with Inkscape (http://www.inkscape.org/) -->

<svg
   width="48"
   height="48"
   viewBox="0 0 12.699999 12.699999"
   version="1.1"
   id="svg1"
   inkscape:export-filename="plus.svg"
   inkscape:export-xdpi="96"
   inkscape:export-ydpi="96"
   xmlns:inkscape="http://www.inkscape.org/namespaces/inkscape"
   xmlns:sodipodi="http://sodipodi.sourceforge.net/DTD/sodipodi-0.dtd"
   xmlns="http://www.w3.org/2000/svg"
   xmlns:svg="http://www.w3.org/2000/svg">
  <sodipodi:namedview
     id="namedview1"
     pagecolor="#505050"
     bordercolor="#eeeeee"
     borderopacity="1"
     inkscape:showpageshadow="0"
     inkscape:pageopacity="0"
     inkscape:pagecheckerboard="0"
     inkscape:deskcolor="#505050"
     inkscape:document-units="px">
    <inkscape:page
       x="0"
       y="0"
       width="12.699999"
       height="12.699999"
       id="page2"
       margin="0"
       bleed="0" />
  </sodipodi:namedview>
  <defs
     id="defs1" />
  <ellipse
     style="fill:#8787de;fill-opacity:0.996078;stroke:none;stroke-width:5.1377;paint-order:markers stroke fill"
     id="path8"
     cx="6.2696795"
     cy="6.614583"
     rx="6.2366071"
     ry="5.9531245" />
  <g
     inkscape:label="Camada 1"
     inkscape:groupmode="layer"
     id="layer1">
    <path
       style="fill:#ff0000;fill-opacity:0.996078;stroke:#ffffff;stroke-width:0.550264;stroke-dasharray:none;stroke-opacity:1;paint-order:markers stroke fill"
       id="path9"
       d="M 0.77155006,8.158351 C 0.87991691,7.8106089 0.93222754,7.4473333 0.98917841,7.0883404 1.0722824,6.5548933 1.1669458,6.023429 1.2443305,5.4890898 c 0.024462,-0.1658741 0.045366,-0.332265 0.070325,-0.4980677 0.00946,-0.062853 0.011338,-0.1425779 0.051538,-0.1953858 -0.075378,0.3665796 0.01681,0.016544 -0.82434513,-0.3829587 -0.0300585,-0.014277 0.0371852,0.055244 0.0540755,0.083915 0.0593998,0.1008314 0.11369073,0.2045872 0.17006306,0.3071418 0.03673,0.066821 0.0731302,0.1338218 0.10969529,0.2007328 0.21521728,0.3864895 0.40748458,0.7843024 0.56460238,1.1978496 0.029053,0.085159 0.041508,0.1136009 0.060715,0.1949201 0.00408,0.017267 0.00733,0.034754 0.00962,0.052346 9.895e-4,0.00759 -0.00391,0.029421 1.911e-4,0.022955 0.018678,-0.029475 0.013356,-0.1089076 0.045121,-0.094462 C 1.8484309,6.5110947 2.1085856,6.7060588 2.3849126,6.8700501 2.3145999,6.5926057 2.3927512,6.30375 2.4641316,6.0347651 2.5652,5.7353891 2.7067294,5.4503731 2.8880491,5.191319 2.9697985,5.0745222 3.0251017,5.0159905 3.1166351,4.9106215 c 0.032701,-0.030907 0.064468,-0.062835 0.098104,-0.092722 0.00981,-0.00872 0.1052023,-0.094938 0.138463,-0.095142 0.013264,-8.15e-5 0.03804,0.036039 0.0263,0.029865 C 2.537571,4.3099254 2.4850143,4.0004298 2.5795995,4.3908577 2.5794686,4.4466157 2.5815995,4.502424 2.579208,4.5581302 2.571318,4.7415906 2.5508,4.9243042 2.539339,5.1075766 2.514752,5.5007392 2.497033,5.8943291 2.4726,6.287525 2.436254,6.745673 2.40195,7.2033838 2.415432,7.6631095 c 0,0 0.7879188,0.3892769 0.7879188,0.3892769 v 0 C 3.1902795,7.9910946 3.1744484,7.930327 3.1641358,7.8685111 3.0954812,7.4569806 3.1015994,7.0372861 3.1190114,6.6220173 3.1274913,6.488688 3.1330131,6.3551377 3.144451,6.2220293 3.1853363,5.7462069 3.2650473,5.2730795 3.4127621,4.8181404 3.5176791,4.3939165 3.4814849,4.6820321 2.5856373,4.1812894 2.5690202,4.1719999 2.4425626,4.3394962 2.4364319,4.3476997 2.4093439,4.3839447 2.3830297,4.4207617 2.3563286,4.4572927 2.0999272,4.8211773 1.8927076,5.2157332 1.7213767,5.6265289 1.6210949,5.8878042 1.5186433,6.1538636 1.5071649,6.4369619 c 0.2791243,0.185592 0.5404222,0.4012925 0.837373,0.5567754 0.030963,0.016214 0.038091,-0.060032 0.046592,-0.093933 0.00319,-0.012719 -0.036716,-0.09661 -0.040984,-0.1063204 C 2.2876775,6.6513379 2.3261109,6.7343546 2.2469553,6.5725511 2.0500093,6.1659992 1.8502397,5.7608396 1.651962,5.354953 1.5754598,5.192539 1.5585229,5.1628943 1.4943853,5.0047828 1.478442,4.9654792 1.4628245,4.9259991 1.4492184,4.8858266 1.4398231,4.8580864 1.4495386,4.8178957 1.4254469,4.8012394 0.57096647,4.2104542 0.76106016,4.0027867 0.51205416,4.3274566 c -0.008662,0.082784 -0.002207,0.163594 -0.001238,0.2467856 0.002024,0.173917 -0.00537,0.3478247 -0.0175707,0.5212813 C 0.44721486,5.6351716 0.39311483,6.1764228 0.27228049,6.705274 0.21760029,6.934677 0.1596071,7.1581552 0.07603247,7.378964 0.03984045,7.474585 0.01942327,7.5290602 -0.03257151,7.6117258 c -0.01107562,0.017608 -0.02530536,0.033024 -0.03795803,0.049537 z" />
    <path
       style="fill:#ff7f2a;fill-opacity:0.996078;stroke:#ffffff;stroke-width:0.550264;stroke-dasharray:none;stroke-opacity:1;paint-order:markers stroke fill"
       id="path10"
       d="M 4.6071423,8.3072519 C 4.5569053,8.0246689 4.5853483,7.7344756 4.6066925,7.4503006 4.6211705,7.2453811 4.6430375,7.041648 4.6751475,6.8387952 c 0,0 -0.8146547,-0.4243676 -0.8146547,-0.4243676 v 0 C 3.854746,6.626557 3.8499597,6.8387915 3.8373152,7.050647 3.8150109,7.3219777 3.7767116,7.5912468 3.7272274,7.8589152 Z" />
    <path
       style="fill:#ff5599;fill-opacity:0.996078;stroke:#ffffff;stroke-width:0.550264;stroke-dasharray:none;stroke-opacity:1;paint-order:markers stroke fill"
       id="path11"
       d="m 6.1958408,8.4771831 c -0.036446,-0.2064633 -0.033162,-0.4157 -0.023982,-0.6241957 0.01714,-0.2192964 0.021394,-0.4430984 0.079035,-0.6566545 0.00478,-0.00658 0.01039,-0.02685 0.014327,-0.019738 0.00695,0.012549 0.011509,0.049195 -0.00143,0.043013 C 5.9897042,7.0887164 5.7311312,6.92722 5.4592943,6.7917179 c -0.03488,-0.017386 0.063311,0.045837 0.091671,0.072569 0.089057,0.083945 0.1798452,0.1965571 0.2581275,0.2886512 0.2158637,0.2510612 0.4062983,0.5213474 0.5881634,0.7974811 0.2236882,0.3443213 0.3416331,0.316073 0.9407077,0.60156 0.048771,0.023241 0.1309335,-0.2258581 0.137233,-0.2438093 0.12676,-0.4287681 0.219058,-0.8667156 0.3230906,-1.3013527 0.016023,-0.064111 0.032047,-0.1282224 0.048071,-0.1923336 0,0 -0.7627974,-0.406987 -0.7627974,-0.406987 v 0 c -0.00908,0.067229 -0.018152,0.134457 -0.02723,0.2016855 C 6.9784729,7.037067 6.8809829,7.4671147 6.667533,7.8506522 6.649885,7.8785612 6.634687,7.9081792 6.614588,7.9343782 6.604301,7.9477872 6.592638,7.9618532 6.577109,7.9685212 6.571949,7.9707412 6.563044,7.9516062 6.567889,7.9544292 6.833286,8.1088578 7.0961312,8.2676228 7.3602499,8.4242191 7.3425629,8.4112991 7.3232459,8.4003561 7.3071889,8.3854581 7.2845249,8.3644288 7.2654982,8.3397943 7.2446524,8.3169626 7.0284855,8.0450659 6.8273524,7.7612345 6.6058279,7.4934285 6.5139847,7.3699877 6.4908665,7.3416273 6.4088605,7.2223224 6.3908,7.1960493 6.3834473,7.1589344 6.3561002,7.1425432 6.2849051,7.0998688 5.5873113,6.4107055 5.4099484,6.702802 c -0.00787,0.012954 -0.00593,0.029724 -0.00889,0.044585 -0.010972,0.2307253 0.00273,0.4624508 -0.025866,0.6924446 -0.019661,0.1959803 -0.033316,0.3929989 -0.061651,0.5877933 z" />
    <path
       style="fill:#222b00;fill-opacity:0.996078;stroke:#ffffff;stroke-width:0.550264;stroke-dasharray:none;stroke-opacity:1;paint-order:markers stroke fill"
       id="path12"
       d="m 8.1920753,6.4432677 c 0.029845,0.2023801 0.029654,0.4079195 0.041632,0.6118635 0.024006,0.2522368 0.096989,0.4955696 0.20021,0.7259957 0.031569,0.054725 0.059321,0.1310359 0.1179107,0.1652053 C 9.2616516,8.3603016 9.1627083,8.4577876 9.6514619,8.455899 9.8728986,8.444906 10.047308,8.404602 10.21303,8.2463916 c 0.1092,-0.1042493 0.126403,-0.154822 0.20214,-0.2843244 0.125657,-0.2575549 0.193164,-0.539139 0.246978,-0.8193605 0.0269,-0.1178888 0.0034,-0.2343372 -0.02072,-0.350126 -0.01442,-0.057188 -0.0073,-0.029352 -0.0213,-0.083514 0,0 -0.8775829,-0.4186269 -0.8775829,-0.4186269 v 0 c 0.015663,0.056678 0.00719,0.028135 0.025508,0.085603 0.035822,0.1068819 0.05533,0.2197618 0.063915,0.3319772 C 9.8223852,6.987886 9.7806689,7.2665507 9.6490308,7.5178654 9.577434,7.6331026 9.5620548,7.6784479 9.4576606,7.766724 9.3021412,7.8982315 9.1103421,7.9259825 8.9134529,7.9101935 8.8717437,7.9032165 8.8293893,7.8993668 8.7883257,7.8892623 8.7564087,7.8814095 8.667355,7.8392368 8.695314,7.8565183 8.941635,8.0087701 9.1967894,8.1462955 9.4451278,8.295234 9.4627702,8.3058146 9.4055467,8.2826318 9.3879738,8.2719347 9.3397451,8.2425726 9.3223439,8.210303 9.2881241,8.1657424 9.1590635,7.9500567 9.0666014,7.7159899 9.046178,7.4631231 9.0350178,7.2728819 9.0410027,7.0799401 9.0719854,6.8916039 Z" />
    <path
       style="fill:#008080;fill-opacity:0.996078;stroke:#ffffff;stroke-width:0.550264;stroke-dasharray:none;stroke-opacity:1;paint-order:markers stroke fill"
       id="path13"
       d="m 10.504713,8.1363649 c 0.04216,0.1335569 0.160507,0.2153232 0.266493,0.2968932 0.329837,0.2262203 0.663365,0.472895 1.04794,0.5886176 0.0981,0.02952 0.199901,0.04554 0.300779,0.06174 0.122043,0.0045 0.262586,0.02934 0.375219,-0.03446 0.017,-0.0096 0.0314,-0.02324 0.0471,-0.03487 0.101122,-0.093576 0.12489,-0.2249006 0.149458,-0.3540342 0.02751,-0.1496192 0.03864,-0.2655956 -0.01159,-0.4112368 C 12.631278,8.1149067 12.535019,8.0222565 12.423063,7.9393078 12.024431,7.6871575 11.635207,7.442147 11.196458,7.2816079 11.094703,7.2541269 10.990715,7.2311693 10.901204,7.1734433 c 0.267156,0.1536507 0.534312,0.3073014 0.801469,0.460952 -0.02206,-0.016558 -0.03731,-0.024794 -0.05192,-0.049863 -0.0291,-0.049927 -0.03231,-0.1082511 -0.03706,-0.1640948 -0.0045,-0.1274337 0.02795,-0.251187 0.06127,-0.3729567 0.04214,-0.1363752 0.08698,-0.2479587 0.17571,-0.3612991 0.13698,-0.1575212 0.299709,-0.2269497 0.491074,-0.2967939 0.03534,-0.010308 0.07068,-0.020619 0.106015,-0.030928 0,0 -0.76607,-0.5205423 -0.76607,-0.5205423 v 0 c -0.03439,0.012398 -0.06877,0.024797 -0.103155,0.037196 -0.200203,0.074748 -0.398789,0.1584143 -0.539618,0.3267342 -0.0942,0.1189646 -0.166072,0.2404139 -0.203828,0.3888272 -0.03622,0.1303112 -0.07409,0.2605608 -0.07486,0.397271 -0.01763,0.5347073 0.244883,0.4032702 0.901277,0.7934264 0.09432,0.034715 0.193345,0.053107 0.287213,0.089214 0.346002,0.1334299 0.988429,0.525105 -0.409319,-0.2770004 0.109401,0.064661 0.209993,0.1389451 0.270225,0.2541846 0.0121,0.024236 0.04008,0.077082 0.04732,0.1040482 0.02277,0.084804 0.0054,0.1742564 -0.0066,0.2589067 -0.02046,0.1002122 -0.03643,0.2145273 -0.122576,0.2804821 -0.109795,0.057059 -0.234793,0.046225 -0.354112,0.030075 -0.09928,-0.019071 -0.195348,-0.040019 -0.289414,-0.078403 -0.03004,-0.012258 -0.116077,-0.057761 -0.08826,-0.041048 0.24024,0.1443694 0.483974,0.2828428 0.725961,0.4242644 -0.02435,-0.014772 -0.04871,-0.029545 -0.07306,-0.044317 -0.08906,-0.063646 -0.189602,-0.1253956 -0.25137,-0.217746 z" />
  </g>
</svg>
