<?xml version="1.0" encoding="UTF-8" standalone="no"?>
<!-- Created with Inkscape (http://www.inkscape.org/) -->

<svg
   width="48"
   height="48"
   viewBox="0 0 12.699999 12.699999"
   version="1.1"
   id="svg1"
   inkscape:export-filename="9.svg"
   inkscape:export-xdpi="96"
   inkscape:export-ydpi="96"
   xmlns:inkscape="http://www.inkscape.org/namespaces/inkscape"
   xmlns:sodipodi="http://sodipodi.sourceforge.net/DTD/sodipodi-0.dtd"
   xmlns="http://www.w3.org/2000/svg"
   xmlns:svg="http://www.w3.org/2000/svg">
  <sodipodi:namedview
     id="namedview1"
     pagecolor="#505050"
     bordercolor="#eeeeee"
     borderopacity="1"
     inkscape:showpageshadow="0"
     inkscape:pageopacity="0"
     inkscape:pagecheckerboard="0"
     inkscape:deskcolor="#505050"
     inkscape:document-units="px">
    <inkscape:page
       x="0"
       y="0"
       width="12.699999"
       height="12.699999"
       id="page2"
       margin="0"
       bleed="0" />
  </sodipodi:namedview>
  <defs
     id="defs1" />
  <ellipse
     style="fill:#8787de;fill-opacity:0.996078;stroke:none;stroke-width:5.1377;paint-order:markers stroke fill"
     id="path8"
     cx="6.2696795"
     cy="6.614583"
     rx="6.2366071"
     ry="5.9531245" />
  <g
     inkscape:label="Camada 1"
     inkscape:groupmode="layer"
     id="layer1">
    <path
       style="fill:#000080;fill-opacity:0.996078;stroke:#ffffff;stroke-width:0.716381;stroke-dasharray:none;stroke-opacity:1;paint-order:markers stroke fill"
       id="path5"
       d="M 5.5441436,8.8439603 C 5.4664581,8.2024861 5.4765615,7.540118 5.4784942,6.8889043 c 0.01224,-0.6957979 0.051756,-1.3907672 0.1249913,-2.0759194 0.016253,-0.152048 0.046545,-0.381744 0.066817,-0.5390404 0.00787,-0.061172 0.015746,-0.1223466 0.023619,-0.1835206 0,0 -0.9202489,-0.8110361 -0.9202489,-0.8110361 v 0 c 0.00149,0.069526 0.00297,0.1390516 0.00445,0.2085763 0.021147,0.9203635 0.047565,1.8441543 -0.027792,2.7605852 -0.016195,0.1853122 -0.02938,0.3714523 -0.048589,0.5559358 -0.041076,0.3944633 -0.1019448,0.7828594 -0.1674838,1.1673385 z" />
    <path
       id="path3"
       style="fill:#ff0000;fill-opacity:0.996078;stroke:#ffffff;stroke-width:0.494228;stroke-dasharray:none;stroke-opacity:1;paint-order:markers stroke fill"
       d="m 0.58731051,3.9525139 c 0.0333892,0.051473 0.0653968,0.1036696 0.0964555,0.1564039 -0.0456891,0.05388 -0.0853495,0.111815 -0.11676106,0.1742504 l 0.20998007,-0.00862 c 0.20449841,0.3806616 0.36153908,0.7864864 0.52009388,1.1887096 0.035096,0.092938 0.070007,0.1861559 0.10525,0.2790327 -0.04208,0.022226 -0.083842,0.044115 -0.1263695,0.065517 l 0.1545874,0.00824 c 0.2575637,0.678286 0.5166751,1.3559773 0.7559911,2.0418794 0.1044432,0.3251063 0.2199846,0.6481839 0.2813806,0.988573 0.00858,0.047562 0.013002,0.096438 0.019499,0.144564 L 3.4173486,8.9201349 C 3.2305645,8.549003 3.0467513,8.1762191 2.8663166,7.8018978 2.5636921,7.1646636 2.2794922,6.5167332 2.0464354,5.8481154 l 0.2225704,0.011794 C 2.4185417,5.7821835 2.5729336,5.7141917 2.7200386,5.6319934 2.9488073,5.4847582 3.1697744,5.3261592 3.3903664,5.1685894 3.5649673,5.0320358 3.7400638,4.8980067 3.8780079,4.7303743 4.0109565,4.5688127 4.0913931,4.3923151 4.1440225,4.2087356 4.1566792,4.1426755 4.1738716,4.0764696 4.1822296,4.0105395 4.2140387,3.7596179 4.204784,3.4723913 3.999044,3.3105853 3.9506973,3.272562 3.8872692,3.2519047 3.8311158,3.2224954 3.3060494,3.0985764 3.5932267,3.1460897 2.537742,3.1967521 2.3582925,3.2053653 2.1475764,3.2613441 1.9737799,3.321534 1.688341,3.4203885 1.6259988,3.4649662 1.3567503,3.6042515 1.1966245,3.705409 1.0218742,3.8085608 0.8714382,3.9296995 Z M 2.3290738,3.5442247 c 0.1662345,-0.085896 0.3398995,-0.1549209 0.5183485,-0.2024528 0.025891,0.00548 0.055552,0.011929 0.089525,0.019334 0.04944,0.024172 0.104478,0.041681 0.1484071,0.072342 0.1966354,0.1372411 0.2429214,0.388092 0.213232,0.621321 -0.00792,0.06223 -0.02845,0.1247048 -0.042659,0.1870311 -0.023958,0.058892 -0.04284,0.118718 -0.071439,0.1766218 C 3.0743874,4.6413421 2.8879908,4.8438905 2.6814516,5.0112098 2.6256987,5.0563761 2.5662264,5.0971517 2.5085,5.14022 2.3244094,5.2708129 2.1268827,5.381258 1.924407,5.4813119 1.9175785,5.4596679 1.9108125,5.4380793 1.9041072,5.4163861 1.8652776,5.2788964 1.822099,5.1430931 1.7878484,5.0040154 1.7354801,4.7913742 1.6892798,4.5347298 1.6640015,4.311561 1.6594381,4.2712861 1.6552329,4.2232572 1.6521492,4.1727319 1.6849335,4.035439 1.8340941,3.8907682 1.9431613,3.7998139 2.0135183,3.7411409 2.091237,3.6903432 2.1653291,3.6355854 2.2190523,3.6033616 2.2736648,3.5728622 2.3290738,3.5442247 Z" />
    <path
       style="fill:#d4ff2a;fill-opacity:0.996078;stroke:#ffffff;stroke-width:0.550264;stroke-dasharray:none;stroke-opacity:1;paint-order:markers stroke fill"
       id="path6"
       d="m 6.0106298,5.7312643 c 0.00466,0.1505209 -0.012186,0.2998087 -0.027801,0.4492495 -0.021548,0.2738554 -0.024621,0.5493586 -0.012335,0.8237345 0.021794,0.2317681 0.061249,0.4642517 0.1384341,0.6843819 0.034423,0.068785 0.080395,0.1613634 0.1495532,0.2030902 0.3253737,0.196315 0.6536303,0.3879746 0.985266,0.5735156 0.024682,0.013807 0.053707,0.01849 0.081567,0.023356 0.029717,0.00516 0.060167,0.00448 0.090251,0.00666 C 7.6815279,8.456643 7.7760333,8.3147942 7.9034469,8.0967441 8.0331336,7.8177331 8.0920407,7.5135641 8.147073,7.2128399 8.178457,7.0085858 8.206666,6.8038499 8.232569,6.5988273 c 0.00744,-0.064731 0.00348,-0.034502 0.011533,-0.090734 0,0 -0.9881271,-0.5036753 -0.9881271,-0.5036753 v 0 c 0.00778,0.062152 0.0042,0.029025 0.010283,0.099434 0.016067,0.2128065 0.020002,0.4268511 -0.00637,0.6391434 -0.039137,0.2887902 -0.1005939,0.5791198 -0.2465382,0.8349247 -0.022192,0.032083 -0.04202,0.065936 -0.066576,0.096249 -0.074644,0.09214 -0.1776312,0.1756123 -0.3006755,0.1843099 -0.027023,0.00192 -0.054085,-0.00327 -0.081128,-0.0049 C 6.5381872,7.845469 6.5106502,7.839507 6.4846182,7.829231 6.4588582,7.819058 6.4349522,7.8047 6.4101192,7.792436 6.6915293,7.9574813 6.9729394,8.122527 7.2543498,8.2875721 7.2771588,8.3009891 7.2069648,8.2635961 7.1853298,8.2483551 7.1243601,8.2054297 7.1195408,8.1893731 7.0747121,8.1301704 7.0597929,8.103463 7.0431109,8.0776624 7.0299592,8.0500368 6.9416814,7.8645963 6.9107126,7.6570567 6.8732398,7.4573209 6.8695671,7.4100866 6.86384,7.3629671 6.8622332,7.3156182 6.8548878,7.0990476 6.8818867,6.8824442 6.9090509,6.6681566 6.9313981,6.5337428 6.9582788,6.398333 7.0099914,6.2717003 Z" />
    <path
       style="fill:#7fff2a;fill-opacity:0.996078;stroke:#ffffff;stroke-width:0.550264;stroke-dasharray:none;stroke-opacity:1;paint-order:markers stroke fill"
       id="path7"
       d="m 8.4129699,7.2809447 c -0.027732,0.079488 -0.028237,0.1758296 0.022775,0.2478586 0.2201014,0.3107854 0.4460535,0.617385 0.6690804,0.926077 0.2039775,0.1310075 0.4512405,0.159248 0.6870087,0.1842292 0.1676224,0.00998 0.348645,0.00466 0.484326,-0.1100894 0.07643,-0.064642 0.09854,-0.1196309 0.148403,-0.2047178 0.09237,-0.1906158 0.153701,-0.400107 0.159576,-0.6130239 9.05e-4,-0.031679 -0.0017,-0.063371 -0.0025,-0.09506 -0.0046,-0.027884 -0.0064,-0.05633 -0.01363,-0.083627 -0.007,-0.026422 -0.01333,-0.054293 -0.02894,-0.076732 C 10.321774,7.1434992 10.104839,6.8304261 9.8708581,6.5303726 9.8510463,6.5049648 9.8135989,6.5007094 9.7841031,6.4877249 9.7505135,6.4729423 9.6194937,6.4238203 9.585923,6.4111003 9.4967896,6.3787077 9.4080479,6.3451275 9.3300659,6.2899886 c -0.021996,-0.015546 -0.044605,-0.030926 -0.063007,-0.0506 -0.018977,-0.020278 -0.064221,-0.090652 -0.048037,-0.06808 0.1847045,0.2576112 0.3690678,0.5154649 0.5536024,0.7731967 -0.017047,-0.034726 -0.037208,-0.068096 -0.051151,-0.1041794 -0.047714,-0.1234547 -0.08985,-0.3312311 0.00344,-0.4455187 0.02572,-0.031511 0.063003,-0.051464 0.094504,-0.077196 0.057497,-0.018061 0.1131051,-0.043925 0.1724938,-0.054182 0.2192959,-0.037877 0.4273239,-0.025153 0.6480479,0.00515 0.291801,0.040061 0.560414,0.1102516 0.841449,0.1966567 0.125439,0.038568 0.248412,0.084744 0.372618,0.1271146 0.386594,0.1453425 0.205927,0.074137 0.542756,0.2116848 0,0 -0.46324,-0.8070073 -0.46324,-0.8070073 v 0 C 11.642284,5.9486629 11.800018,5.9772151 11.460815,5.9087785 11.059451,5.8166334 11.127879,5.8343129 10.699773,5.7269945 10.550471,5.6895678 10.401814,5.6495653 10.252262,5.6131465 10.052117,5.5644071 9.6997483,5.4740124 9.481062,5.465077 9.4013804,5.461825 9.3224947,5.4822561 9.2432107,5.490845 9.1932677,5.519272 9.1356974,5.537243 9.0933862,5.576127 8.9445488,5.7129068 8.9982852,6.0108394 9.0454372,6.180298 c 0.2177437,0.3137497 0.4295297,0.6317188 0.6532307,0.9412491 0.018278,0.025289 0.045754,0.042681 0.071063,0.060934 0.097853,0.070586 0.2185061,0.095816 0.3279461,0.1417646 0.06932,0.031133 0.122815,0.050924 0.185,0.095648 0.02592,0.018644 0.08925,0.090075 0.0719,0.063265 -0.176812,-0.273284 -0.3694885,-0.535982 -0.5520929,-0.8054326 -0.015101,-0.022282 0.035919,0.04056 0.049503,0.063801 0.014602,0.024986 0.022915,0.053147 0.034373,0.07972 0.00656,0.032178 0.01527,0.063989 0.019675,0.096532 C 9.9336119,7.121583 9.8893121,7.3214928 9.7967032,7.5034861 9.7564719,7.5685083 9.7343249,7.616032 9.6769866,7.6668872 9.5666192,7.7647023 9.4183897,7.7808706 9.2774039,7.775945 9.2291581,7.768868 9.1803986,7.7647143 9.1326773,7.7547125 8.9393669,7.7142094 8.7498689,7.6317379 8.6138734,7.4854346 8.8072346,7.7628427 9.00281,8.0387201 9.1939576,8.317657 9.2040746,8.3325 9.1690376,8.291824 9.1572126,8.278323 9.1136646,8.228614 9.1389026,8.261814 9.1184666,8.209667 9.1072996,8.18124 9.1045126,8.200877 9.1128866,8.176348 Z" />
  </g>
</svg>
