<?xml version="1.0" encoding="UTF-8" standalone="no"?>
<!-- Created with Inkscape (http://www.inkscape.org/) -->

<svg
   width="28.669674"
   height="37.275654"
   viewBox="0 0 7.5855173 9.862516"
   version="1.1"
   id="svg1"
   inkscape:export-filename="1.svg"
   inkscape:export-xdpi="96"
   inkscape:export-ydpi="96"
   sodipodi:docname="0.svg"
   inkscape:version="1.4.2 (ebf0e940d0, 2025-05-08)"
   xmlns:inkscape="http://www.inkscape.org/namespaces/inkscape"
   xmlns:sodipodi="http://sodipodi.sourceforge.net/DTD/sodipodi-0.dtd"
   xmlns="http://www.w3.org/2000/svg"
   xmlns:svg="http://www.w3.org/2000/svg">
  <sodipodi:namedview
     id="namedview1"
     pagecolor="#505050"
     bordercolor="#eeeeee"
     borderopacity="1"
     inkscape:showpageshadow="0"
     inkscape:pageopacity="0"
     inkscape:pagecheckerboard="0"
     inkscape:deskcolor="#505050"
     inkscape:document-units="px"
     inkscape:zoom="13.091654"
     inkscape:cx="14.322101"
     inkscape:cy="18.637828"
     inkscape:window-width="1366"
     inkscape:window-height="696"
     inkscape:window-x="0"
     inkscape:window-y="0"
     inkscape:window-maximized="1"
     inkscape:current-layer="layer1">
    <inkscape:page
       x="0"
       y="0"
       width="7.5855174"
       height="9.8625164"
       id="page2"
       margin="0"
       bleed="0" />
  </sodipodi:namedview>
  <defs
     id="defs1" />
  <g
     inkscape:label="Camada 1"
     inkscape:groupmode="layer"
     id="layer1"
     transform="translate(-2.866245,-1.4538026)">
    <path
       style="fill:#00b5a0;fill-opacity:0.99607801;stroke:none;stroke-width:3.77963;paint-order:markers stroke fill"
       id="path1"
       d="m 5.5167941,1.4538026 c -0.00916,0.012692 -0.016243,0.027179 -0.027476,0.038077 C 5.4385209,1.5411627 5.3428316,1.5737337 5.2801054,1.600704 5.2009131,1.6347541 5.1213721,1.667988 5.0420909,1.7018308 4.7673246,1.8171582 4.5307352,2.0000223 4.3059822,2.1921579 4.2221432,2.274981 4.1391177,2.3603792 4.0750367,2.4600126 c -0.020239,0.031468 -0.036463,0.06535 -0.055302,0.097676 -0.086382,0.1482227 -0.017996,0.021273 -0.096983,0.1729926 -0.084421,0.1692233 -0.1554875,0.3450709 -0.2279246,0.519799 -0.012749,0.028183 -0.024523,0.056828 -0.038246,0.08455 -0.012869,0.025997 -0.028458,0.050582 -0.041479,0.076504 -0.044141,0.087873 -0.030697,0.070501 -0.070305,0.1586749 -0.015019,0.033435 -0.059457,0.1234325 -0.075646,0.1564707 -0.066107,0.153015 -0.1293134,0.3070085 -0.2003988,0.4577522 -0.061776,0.1617838 -0.110586,0.3290049 -0.1633984,0.4940496 -0.00789,0.026755 -0.015293,0.05366 -0.023677,0.080265 -0.00797,0.025308 -0.045469,0.1342063 -0.053639,0.1608344 -0.025646,0.083589 -0.045092,0.1688482 -0.064683,0.2539901 -0.045992,0.1764303 -0.074381,0.3564485 -0.090897,0.5378222 -0.019502,0.245403 0.012482,0.4906694 0.019764,0.7359324 0.00113,0.2014879 -0.0098,0.4026549 0.00173,0.6039857 0.01375,0.1727387 0.035524,0.344473 0.061596,0.5157447 0.023998,0.1510981 0.055674,0.3007465 0.086677,0.4505316 0.028676,0.1089886 0.043051,0.2231544 0.08922,0.3269817 0.00942,0.02118 0.021165,0.041239 0.031747,0.061859 0.07575,0.1517101 0.1761177,0.2892485 0.2843406,0.4191942 0.1394177,0.1651574 0.3085509,0.3022789 0.4813954,0.4307406 0.878512,0.5989094 1.8134544,1.1139958 2.7635781,1.5905118 0.2095308,0.09725 0.4268557,0.178574 0.6477767,0.245995 0.2260878,0.07189 0.456441,0.12952 0.6884553,0.178604 0.1672286,0.03395 0.33779,0.0404 0.5078411,0.04287 0.1401825,0.0069 0.2794182,-0.004 0.4158285,-0.03705 0.022078,-0.0062 0.044365,-0.01179 0.066234,-0.01874 0.021015,-0.0067 0.041233,-0.01574 0.062351,-0.02208 0.04741,-0.01422 0.08094,-0.0169 0.1283912,-0.03239 0.027258,-0.0089 0.103952,-0.04185 0.1313567,-0.0534 0.083382,-0.0441 0.1693137,-0.08452 0.2449862,-0.141646 0.02366,-0.01786 0.097199,-0.08178 0.1199434,-0.101353 0.085028,-0.06905 0.1571008,-0.150503 0.2216859,-0.23848 0.01713,-0.02334 0.035473,-0.04588 0.050817,-0.07044 0.018174,-0.02909 0.033028,-0.06012 0.049535,-0.09019 0.0155,-0.02892 0.08653,-0.160429 0.09971,-0.189289 0.01597,-0.03498 0.02796,-0.07165 0.04295,-0.107052 0.01445,-0.03414 0.03124,-0.06726 0.04534,-0.101551 0.03886,-0.09454 0.04422,-0.1195802 0.07475,-0.2178272 0.05805,-0.2234577 0.103075,-0.4494412 0.128615,-0.6788795 0.0058,-0.2511377 0.0069,-0.5023776 0.01864,-0.753352 0.0087,-0.2193494 0.01214,-0.439072 0.01405,-0.6586697 -0.0019,-0.2365313 -0.03894,-0.4703218 -0.07054,-0.7040862 -0.03906,-0.248605 -0.06656,-0.4988919 -0.09585,-0.7488007 -0.0174,-0.1412765 -0.02545,-0.2838403 -0.04673,-0.4246465 -0.0099,-0.06549 -0.02243,-0.1305518 -0.03358,-0.1958408 C 10.182072,5.5405632 10.137638,5.3574148 10.069252,5.1809698 10.024721,5.0686356 9.9852619,4.9538001 9.9336147,4.8443817 9.9084585,4.7910867 9.8807233,4.739043 9.8550444,4.6859979 9.7881059,4.5486382 9.7076445,4.4181637 9.625344,4.2895687 9.5420668,4.167661 9.4505522,4.0529268 9.3522333,3.9430012 9.2662813,3.8436978 9.1971689,3.731134 9.1110308,3.6321147 9.0617701,3.5749631 9.0146137,3.5129879 8.9581922,3.4623576 8.8346205,3.3514699 8.9914729,3.5045364 8.886514,3.4003511 8.1708748,2.7498978 7.6409334,2.6431225 6.440681,1.9555061 6.420468,1.9439259 6.362882,1.9336405 6.341864,1.9291764 6.324154,1.9221024 6.307048,1.9132711 6.288733,1.9079548 6.267233,1.9017138 6.244733,1.8996118 6.222904,1.8946454 6.1234422,1.8720144 6.0254915,1.844051 5.9256329,1.8231849 5.780487,1.7895361 5.6329142,1.7670296 5.4862453,1.7407194 c -0.083676,-0.00973 -0.1684219,-0.03466 -0.2531594,-0.02884 -0.034482,0.00186 -0.068895,0.00263 -0.1033282,9.95e-5 0,0 2.2262573,1.6165119 2.2262573,1.6165119 v 0 c 0.030071,-0.0032 0.060265,-0.00169 0.090368,9.669e-4 0.056567,0.00779 0.1143878,-0.00109 0.1711903,0.008 0.130076,0.013732 0.2582997,0.039523 0.3841308,0.075266 0.1001971,0.030927 0.202404,0.059658 0.298074,0.1033028 0.022773,0.010388 0.044234,0.023465 0.066756,0.034386 0.021647,0.010498 0.043806,0.019901 0.06571,0.029852 0.7784691,0.4886541 1.4351364,0.8474283 -2.1597997,-1.241785 -0.012691,-0.00738 0.027005,0.011515 0.040546,0.017179 0.01318,0.00551 0.027185,0.00931 0.039619,0.016349 0.01422,0.00805 0.026538,0.01907 0.039807,0.028605 0.1518416,0.099401 -0.064374,-0.045397 0.086605,0.06695 0.014721,0.010954 0.031758,0.01843 0.047083,0.028521 0.048704,0.032066 0.089728,0.072429 0.1351454,0.1087177 0.1765863,0.1840744 -0.088947,-0.089892 0.094115,0.089564 0.067402,0.066074 0.1229557,0.1441101 0.1791289,0.2194518 0.033504,0.04449 0.05257,0.071737 0.089575,0.1132714 0.064768,0.072694 0.1364445,0.1397151 0.1917744,0.2205291 0.099271,0.1189892 0.1796756,0.2509543 0.2663165,0.3791763 0.095865,0.1470124 0.1742799,0.3050491 0.2452892,0.4654301 0.040054,0.109621 0.090368,0.2166533 0.1235198,0.3286916 0.00886,0.029925 0.014998,0.060585 0.022593,0.090854 0.00783,0.031197 0.015781,0.062362 0.023672,0.093543 0.012967,0.065139 0.024044,0.1306474 0.037244,0.1957397 0.029668,0.1462987 0.077212,0.288588 0.097194,0.4370163 0.037145,0.2494868 0.077904,0.4985261 0.1043377,0.749458 0.022988,0.2201303 0.027256,0.4414204 0.039083,0.6623331 0.014504,0.2220458 0.00992,0.4448334 0.020507,0.6670235 0.00874,0.2409717 0.010042,0.4832534 -0.024002,0.7225555 -0.020369,0.2135426 -0.053307,0.42564 -0.1134775,0.632017 C 8.0026388,8.860387 7.9270003,9.0433551 7.8037072,9.1990203 7.7026778,9.309768 7.6009204,9.4205331 7.4760997,9.5053938 7.3751199,9.5771638 7.2617673,9.6300209 7.1450377,9.6711467 7.0265902,9.7081961 6.9053404,9.7376017 6.7821849,9.7537597 6.6584045,9.762959 6.5345883,9.765145 6.4105142,9.7616278 6.2659924,9.7564564 6.1215204,9.7463701 5.9791737,9.7194266 5.7687499,9.6799732 5.5616341,9.6264393 5.3613213,9.5498006 5.1434257,9.4628303 4.9241144,9.3778162 4.7180203,9.2646914 4.6429058,9.225596 4.5911911,9.1994765 4.5172234,9.1577166 4.4827964,9.1382811 4.3805788,9.0781184 4.4148109,9.0978966 7.9866926,11.161499 7.0393906,10.610154 6.2878736,10.182946 6.2021432,10.129137 6.11322,10.075506 6.0353256,10.010352 5.9684096,9.9543789 5.910256,9.8873563 5.8395414,9.8355305 5.7881493,9.7796691 5.73153,9.7241173 5.6869169,9.6624721 5.6729323,9.6431487 5.6627871,9.6212749 5.6492964,9.6016012 5.5161562,9.4074803 5.6944046,9.681633 5.5768472,9.4988547 5.5216912,9.3841485 5.4413914,9.2814358 5.4149371,9.1542604 5.4102079,9.1381739 5.377613,9.0279868 5.3740363,9.0131866 5.3678497,8.9875995 5.3650584,8.9612557 5.3585243,8.935759 5.3521766,8.9109706 5.3420223,8.8872822 5.3354398,8.8625554 5.3218854,8.8116475 5.3157717,8.758929 5.2998477,8.7085676 5.288288,8.6541634 5.2746719,8.6002084 5.2635143,8.545723 5.2462404,8.4613766 5.2361072,8.3768151 5.225662,8.2915116 5.222162,8.2629336 5.217662,8.2344876 5.213657,8.2059756 5.186176,7.9938836 5.140068,7.7842949 5.122924,7.5709358 5.120244,7.5284958 5.116214,7.4861188 5.114874,7.4436153 5.109244,7.264818 5.132409,7.0873423 5.157313,6.9107503 5.183781,6.741555 5.208597,6.5722215 5.249829,6.4058121 5.268993,6.3260051 5.293415,6.2484111 5.315224,6.1693344 5.324374,6.1361584 5.347421,6.043197 5.357781,6.0104535 5.366691,5.9823035 5.37762,5.9548355 5.38754,5.9270265 5.432222,5.7701044 5.479015,5.613507 5.5477362,5.4651265 c 0.06068,-0.1541917 0.1201665,-0.308851 0.184995,-0.461365 0.027331,-0.066073 0.037642,-0.093297 0.068534,-0.1584931 0.01314,-0.02773 0.028514,-0.054394 0.040934,-0.082453 0.022063,-0.049846 0.041634,-0.1138404 0.06131,-0.1642586 0.011634,-0.029814 0.024701,-0.05905 0.037051,-0.088575 C 6.0136341,4.339575 6.0925969,4.1718307 6.1665149,4.001896 6.1844538,3.9595101 6.2199536,3.8741377 6.2397664,3.8335532 6.296214,3.717925 6.367613,3.6092428 6.4424701,3.5049558 c 0.02496,-0.028503 0.04847,-0.058344 0.074879,-0.085509 0.156204,-0.1606772 0.3513965,-0.2712047 0.5683416,-0.3261681 0.1750492,-0.037625 0.3340215,-0.064245 0.5141352,-0.05301 0.031793,0.00198 0.064053,0.00292 0.094982,0.010551 0.020482,0.00505 0.038161,0.017994 0.057242,0.02699 z" />
  </g>
</svg>
