<?xml version="1.0" encoding="UTF-8" standalone="no"?>
<!-- Created with Inkscape (http://www.inkscape.org/) -->

<svg
   width="512"
   height="512"
   viewBox="0 0 135.46666 135.46666"
   version="1.1"
   id="svg1"
   inkscape:export-filename="1.svg"
   inkscape:export-xdpi="96"
   inkscape:export-ydpi="96"
   sodipodi:docname="0.svg"
   inkscape:version="1.4.2 (ebf0e940d0, 2025-05-08)"
   xmlns:inkscape="http://www.inkscape.org/namespaces/inkscape"
   xmlns:sodipodi="http://sodipodi.sourceforge.net/DTD/sodipodi-0.dtd"
   xmlns="http://www.w3.org/2000/svg"
   xmlns:svg="http://www.w3.org/2000/svg">
  <sodipodi:namedview
     id="namedview1"
     pagecolor="#505050"
     bordercolor="#eeeeee"
     borderopacity="1"
     inkscape:showpageshadow="0"
     inkscape:pageopacity="0"
     inkscape:pagecheckerboard="0"
     inkscape:deskcolor="#505050"
     inkscape:document-units="px"
     inkscape:zoom="0.57857483"
     inkscape:cx="240.2455"
     inkscape:cy="413.94818"
     inkscape:window-width="1366"
     inkscape:window-height="696"
     inkscape:window-x="0"
     inkscape:window-y="0"
     inkscape:window-maximized="1"
     inkscape:current-layer="layer1">
    <inkscape:page
       x="0"
       y="0"
       width="135.46666"
       height="135.46666"
       id="page2"
       margin="0"
       bleed="0" />
  </sodipodi:namedview>
  <defs
     id="defs1">
    <rect
       x="-20.740619"
       y="-6.9135396"
       width="625.67533"
       height="708.6378"
       id="rect3" />
    <rect
       x="-383.70145"
       y="241.97388"
       width="383.70145"
       height="884.93306"
       id="rect2" />
    <rect
       x="10.370309"
       y="10.370309"
       width="490.86131"
       height="494.31808"
       id="rect1" />
  </defs>
  <g
     inkscape:label="Camada 1"
     inkscape:groupmode="layer"
     id="layer1"
     transform="translate(-2.866245,-1.4538026)">
    <text
       xml:space="preserve"
       transform="matrix(0.26458332,0,0,0.26458332,2.866245,1.4538026)"
       id="text1"
       style="font-weight:900;font-size:682.667px;font-family:'FONTSPRING DEMO - Lupio Black';-inkscape-font-specification:'FONTSPRING DEMO - Lupio Black,  Heavy';text-align:start;letter-spacing:8.43px;word-spacing:0.74px;writing-mode:lr-tb;direction:ltr;white-space:pre;shape-inside:url(#rect1);fill:#999999;fill-opacity:0.996078;stroke:#ffffff;stroke-width:10;stroke-linecap:round;stroke-linejoin:bevel;paint-order:stroke fill markers"><tspan
         x="10.371094"
         y="1125.8293"
         id="tspan1">0</tspan></text>
    <text
       xml:space="preserve"
       transform="matrix(0.26458332,0,0,0.26458332,2.866245,1.4538026)"
       id="text2"
       style="fill:#999999;text-orientation:auto;-inkscape-font-specification:'FONTSPRING DEMO - Lupio Black,  Heavy';font-family:'FONTSPRING DEMO - Lupio Black';font-size:682.66666667px;font-weight:900;stroke-width:10;letter-spacing:8.43px;word-spacing:0.74px;stroke-linecap:round;stroke-linejoin:bevel;paint-order:stroke fill markers;fill-opacity:0.99607801;stroke:#ffffff;text-align:start;writing-mode:lr-tb;direction:ltr;white-space:pre;shape-inside:url(#rect2)" />
    <path
       d="m 149.66992,461.76815 c -33.52864,0 -62.337238,-7.56836 -86.425779,-22.70507 C 39.31836,423.92636 20.926432,402.3606 8.0683594,374.36581 -4.6269529,346.37102 -10.974609,313.00513 -10.974609,274.26815 c 0,-38.89974 6.3476561,-72.347 19.0429684,-100.34179 C 20.926432,145.76881 39.31836,124.12167 63.244141,108.98495 87.332682,93.848231 116.14128,86.279872 149.66992,86.279872 c 33.69141,0 62.5,7.568359 86.42578,22.705078 23.92578,15.13672 42.23633,36.78386 54.93164,64.94141 12.85807,27.99479 19.28711,61.44205 19.28711,100.34179 0,38.73698 -6.42904,72.18425 -19.28711,100.3418 -12.69531,27.99479 -31.00586,49.56055 -54.93164,64.69727 -23.92578,14.97395 -52.73437,22.46093 -86.42578,22.46093 z m 0,-78.125 c 13.50911,0 25.0651,-4.39453 34.66797,-13.18359 9.76563,-8.78906 17.25261,-21.32161 22.46094,-37.59766 5.20833,-16.4388 7.8125,-35.97005 7.8125,-58.59375 0,-22.78645 -2.60417,-42.3177 -7.8125,-58.59375 -5.20833,-16.4388 -12.69531,-29.05273 -22.46094,-37.84179 -9.60287,-8.95183 -21.15886,-13.42774 -34.66797,-13.42774 -13.34635,0 -24.90234,4.47591 -34.66797,13.42774 -9.76562,8.78906 -17.252598,21.40299 -22.460934,37.84179 -5.208333,16.27605 -7.8125,35.8073 -7.8125,58.59375 0,22.6237 2.604167,42.15495 7.8125,58.59375 5.208336,16.27605 12.695314,28.8086 22.460934,37.59766 9.76563,8.78906 21.32162,13.18359 34.66797,13.18359 z"
       id="text3"
       style="font-weight:900;font-size:500px;font-family:'Adwaita Sans';-inkscape-font-specification:'Adwaita Sans Heavy';letter-spacing:8.43px;word-spacing:0.74px;white-space:pre;fill:#008080;fill-opacity:0.996078;stroke:#ffffff;stroke-width:10;stroke-linecap:round;stroke-linejoin:bevel;paint-order:stroke fill markers"
       transform="matrix(0.26458332,0,0,0.26458332,32.133561,-3.1192155)"
       aria-label="0"
       sodipodi:nodetypes="sccsccsscsccssccsccsccscss" />
  </g>
</svg>
