<?xml version="1.0" encoding="UTF-8" standalone="no"?>
<!-- Created with Inkscape (http://www.inkscape.org/) -->

<svg
   width="48"
   height="48"
   viewBox="0 0 12.699999 12.699999"
   version="1.1"
   id="svg1"
   inkscape:export-filename="1.svg"
   inkscape:export-xdpi="96"
   inkscape:export-ydpi="96"
   sodipodi:docname="2.svg"
   inkscape:version="1.4.2 (ebf0e940d0, 2025-05-08)"
   xmlns:inkscape="http://www.inkscape.org/namespaces/inkscape"
   xmlns:sodipodi="http://sodipodi.sourceforge.net/DTD/sodipodi-0.dtd"
   xmlns="http://www.w3.org/2000/svg"
   xmlns:svg="http://www.w3.org/2000/svg">
  <sodipodi:namedview
     id="namedview1"
     pagecolor="#505050"
     bordercolor="#eeeeee"
     borderopacity="1"
     inkscape:showpageshadow="0"
     inkscape:pageopacity="0"
     inkscape:pagecheckerboard="0"
     inkscape:deskcolor="#505050"
     inkscape:document-units="px"
     showguides="true"
     inkscape:zoom="10.166667"
     inkscape:cx="23.999999"
     inkscape:cy="23.999999"
     inkscape:window-width="1366"
     inkscape:window-height="696"
     inkscape:window-x="0"
     inkscape:window-y="0"
     inkscape:window-maximized="1"
     inkscape:current-layer="layer1">
    <inkscape:page
       x="0"
       y="0"
       width="12.699999"
       height="12.699999"
       id="page2"
       margin="0"
       bleed="0" />
    <sodipodi:guide
       position="10.70678,12.684039"
       orientation="0,-1"
       id="guide1"
       inkscape:locked="false" />
  </sodipodi:namedview>
  <defs
     id="defs1" />
  <g
     inkscape:label="Camada 1"
     inkscape:groupmode="layer"
     id="layer1">
    <path
       style="fill:#ff7f2a;fill-opacity:0.99607801;stroke:none;stroke-width:0.31697081;paint-order:markers stroke fill;stroke-dasharray:none;stroke-opacity:1"
       id="path1"
       d="m 5.8508643,5.6527396 c 0.00447,-0.025508 0.011142,-0.050728 0.013425,-0.076524 0.00399,-0.045043 -0.00198,-0.090534 0.00101,-0.1356532 0.00632,-0.09511 0.021058,-0.1901552 0.034069,-0.284481 0.022696,-0.1064567 0.0435,-0.21502 0.080685,-0.3177275 0.034325,-0.094809 0.08323,-0.1855541 0.1222023,-0.278602 C 6.205856,4.34322 6.38596,4.1830373 6.5633959,4.0276377 6.7309124,3.8782923 6.9205609,3.7614687 7.1275471,3.6750767 7.2421508,3.6272432 7.3526538,3.5952673 7.4707767,3.5580256 7.7593503,3.4473414 8.0647737,3.3882676 8.3708582,3.3520695 8.5696148,3.3336435 8.7685936,3.3469995 8.967451,3.3518525 12.428825,4.8466574 8.2074641,2.6853154 7.1549275,2.077489 c -0.029099,-0.01679 0.057207,0.035252 0.085417,0.053497 0.074149,0.047957 0.1455015,0.098709 0.2153081,0.1527029 0.128738,0.1045158 0.2252495,0.2371369 0.3077609,0.3794532 0.08087,0.180676 0.1148977,0.3820258 0.124178,0.578971 0.012975,0.2253131 -0.07784,0.3697803 -0.1825173,0.5570664 C 7.5550581,4.0518325 7.3404218,4.2504597 7.1201104,4.4404353 6.9550475,4.5834674 6.7762278,4.7104701 6.6114644,4.8537866 6.2526942,5.1658563 6.73194,4.7662842 6.3748533,5.0611329 6.1167714,5.2708004 5.8913501,5.5157116 5.6589957,5.7525579 5.610233,5.8039368 5.5621595,5.8559793 5.5127073,5.9066949 5.4600843,5.9606622 5.408258,6.0155341 5.3527963,6.0665797 5.1319529,6.2698381 4.8671862,6.4449404 4.6161953,6.6088323 4.279743,6.8206307 3.933382,7.0154921 3.5778514,7.1932137 3.4083963,7.3102355 3.2181215,7.3998747 3.058015,7.530603 3.0308598,7.5527751 2.8729657,7.7047284 2.8481936,7.7284184 2.7798326,7.7964907 2.7237068,7.8752677 2.6590472,7.9465491 2.6279564,7.980824 2.5929334,8.0114202 2.5622226,8.0460361 2.5312965,8.0808945 2.5041588,8.1189476 2.474332,8.154751 2.4133243,8.2279835 2.3712969,8.2736447 2.3080984,8.3441678 2.1813179,8.5131426 2.0507017,8.6824492 1.951993,8.8698086 1.937423,8.8983176 1.923187,8.9269986 1.908284,8.9553346 1.894909,8.9807636 1.879691,9.0052326 1.867165,9.0310906 1.827833,9.1122886 1.801139,9.1989074 1.7625076,9.280353 c -0.00685,0.036458 -0.033268,0.065935 -0.037239,0.1031454 -0.00358,0.03357 0.00218,0.071575 0.00318,0.1053626 0.00786,0.063558 -0.00867,0.1262282 2.857e-4,0.1890274 8.758e-4,0.011634 7.594e-4,0.023384 0.00263,0.034897 0.00595,0.036629 0.018002,0.072067 0.024446,0.108613 0.012334,0.06995 0.018752,0.1416341 0.028341,0.2120236 -1.563e-4,0.06584 7.805e-4,0.138054 -0.026306,0.200123 -0.015592,0.03573 -0.052358,0.06596 -0.07962,0.0922 -0.6711534,1.249271 -0.1376937,0.183977 3.3516945,2.112133 0.036625,0.02024 0.04838,-0.0683 0.071838,-0.102947 0.035043,-0.05176 0.039556,-0.05683 0.080131,-0.09773 0.00804,-0.0039 0.015412,-0.0097 0.024127,-0.01155 0.00602,-0.0013 0.012295,0.0037 0.018317,0.0024 0.0096,-0.002 0.017555,-0.009 0.026898,-0.01198 0.011546,-0.0037 0.02418,-0.0037 0.035479,-0.0081 0.042675,-0.01667 0.082616,-0.03967 0.1245558,-0.05812 0.1664684,-0.05767 0.3406693,-0.08436 0.5107519,-0.127868 0.55358,-0.141607 -0.2232578,0.04103 0.4018557,-0.102724 0.2557045,-0.06475 0.5179944,-0.07951 0.7795164,-0.09964 0.090518,-0.007 0.1807652,-0.01733 0.2713421,-0.02347 0.2289672,-0.01553 0.2884506,-0.01317 0.5145124,-0.01584 0.353032,-0.01 0.7039189,0.03186 1.0558967,0.04659 0.1539354,0.0046 0.3077554,0.01718 0.4617058,0.01966 0.043719,7.14e-4 0.087431,-0.0018 0.1311466,-0.0027 l 0.1457867,0.0042 c 0.3548121,0.03305 0.7076691,0.08229 1.0606871,0.130461 0.282954,0.02904 0.562223,0.08522 0.840635,0.142097 L 8.6292903,9.9251092 v 0 C 8.3981926,9.9361235 8.1675582,9.9157056 7.9388106,9.8823708 7.5673071,9.8334554 7.1948973,9.7917439 6.8246246,9.733685 6.5408471,9.6968836 6.2548434,9.6448639 5.9677195,9.6722633 5.6869281,9.6968352 5.4131492,9.7724766 5.1353838,9.8182273 4.6317283,9.9152794 4.1211058,9.9723257 3.6085902,9.994783 c -0.4153913,0.012128 -0.8315594,-0.0037 -1.2464495,0.025596 -0.1777358,0.0072 -0.3310687,0.0022 -0.4739994,0.121648 -0.010233,0.0046 -0.020622,0.0088 -0.030698,0.01375 -0.011032,0.0054 -0.020358,0.01815 -0.032593,0.01715 -0.027144,-0.0022 -0.00541,-0.124732 0.024571,-0.107765 3.4657613,1.961219 3.2967803,2.079116 3.2922333,2.069936 -0.00773,-0.01554 -0.00459,-0.03442 -0.00646,-0.05168 -0.011321,-0.104679 0.00327,-0.207605 0.018068,-0.311445 0.014782,-0.06686 0.021974,-0.134561 0.036199,-0.201285 0.00611,-0.02866 0.018873,-0.0557 0.024291,-0.0845 0.00204,-0.01078 0.00167,-0.02188 0.00249,-0.03282 0.0098,-0.06353 -0.00983,-0.127522 -0.0023,-0.191909 4.497e-4,-0.02712 0.00563,-0.05826 0.00298,-0.08517 -0.00315,-0.03204 -0.02422,-0.06043 -0.024784,-0.09316 -0.025302,-0.118779 -0.016859,-0.241101 0.02522,-0.355445 C 5.2970207,10.55507 5.3641148,10.375681 5.4767384,10.220416 5.6028954,10.004014 5.7569996,9.8068431 5.9381405,9.6334826 6.1232141,9.4600982 5.9354523,9.6310484 6.1341991,9.4651308 6.2750952,9.3475034 6.4090511,9.2207646 6.5613776,9.1172554 6.8632227,8.8858172 7.1631749,8.6518335 7.4690663,8.4257394 7.5923897,8.3327796 7.7174812,8.2421479 7.8396454,8.1476697 8.0867112,7.9565961 8.3256093,7.7540018 8.590721,7.5873341 8.8792271,7.3918317 9.165315,7.1926163 9.4176152,6.9506115 9.6469328,6.7315945 9.888228,6.5253208 10.123752,6.3129946 c 0.08739,-0.074425 0.173102,-0.1508506 0.262041,-0.2234123 0.16793,-0.1370071 0.345199,-0.2668955 0.481912,-0.4373253 0.02728,-0.035705 0.05656,-0.069972 0.08185,-0.1071165 0.124774,-0.1832552 0.191688,-0.3954627 0.237716,-0.6103723 0.0062,-0.072061 0.01649,-0.1658795 0.01371,-0.2385983 -0.0058,-0.1512406 -0.05163,-0.2974226 -0.06495,-0.4476647 C 11.108409,4.0429732 11.057297,3.8798814 10.923422,3.7167573 10.853465,3.6341602 10.7828,3.5610797 10.698304,3.4930199 10.670256,3.4704282 10.643891,3.4451615 10.612837,3.4269211 7.6194315,1.6686447 8.4590933,2.1171918 7.2620501,1.4800197 7.0474895,1.3712087 6.8278959,1.2718297 6.5901715,1.2252806 6.3684644,1.1799012 6.1407728,1.1319908 5.9136846,1.145864 5.7239414,1.1607764 5.534202,1.1967463 5.3560679,1.2649657 5.1880961,1.3252839 5.0227683,1.3911434 4.8603417,1.4653122 4.8125799,1.4871215 4.7662596,1.5120251 4.7183121,1.5334231 4.6662606,1.5566528 4.6130698,1.5772404 4.5604487,1.599149 4.2093196,1.7521779 3.8634915,1.9201916 3.5308291,2.110202 3.4309351,2.1762334 3.3569219,2.2204059 3.2663873,2.2984826 3.1250363,2.4203833 3.0081019,2.5699023 2.9071438,2.7258703 c -0.02391,0.036755 -0.050914,0.071676 -0.071735,0.1102662 -0.018013,0.033384 -0.02995,0.069708 -0.044312,0.1048176 C 2.7330068,3.0829681 2.684623,3.2281738 2.6307485,3.3717132 2.5938055,3.4481112 2.5568675,3.525698 2.509364,3.596368 2.505974,3.601418 2.460232,3.667306 2.441607,3.670108 2.434447,3.671188 2.435997,3.65676 2.433187,3.650084 Z"
       sodipodi:nodetypes="ccccsccscccsscccccsccssccscsssccssccccsscscssccccccscccccccccccscccccccccccccscccccccccccscccsccccccscccccssccscccccccc" />
  </g>
</svg>
