<?xml version="1.0" encoding="UTF-8" standalone="no"?>
<!-- Created with Inkscape (http://www.inkscape.org/) -->

<svg
   width="512"
   height="512"
   viewBox="0 0 135.46666 135.46666"
   version="1.1"
   id="svg1"
   inkscape:export-filename="1.svg"
   inkscape:export-xdpi="96"
   inkscape:export-ydpi="96"
   sodipodi:docname="2.svg"
   inkscape:version="1.4.2 (ebf0e940d0, 2025-05-08)"
   xmlns:inkscape="http://www.inkscape.org/namespaces/inkscape"
   xmlns:sodipodi="http://sodipodi.sourceforge.net/DTD/sodipodi-0.dtd"
   xmlns:xlink="http://www.w3.org/1999/xlink"
   xmlns="http://www.w3.org/2000/svg"
   xmlns:svg="http://www.w3.org/2000/svg">
  <sodipodi:namedview
     id="namedview1"
     pagecolor="#505050"
     bordercolor="#eeeeee"
     borderopacity="1"
     inkscape:showpageshadow="0"
     inkscape:pageopacity="0"
     inkscape:pagecheckerboard="0"
     inkscape:deskcolor="#505050"
     inkscape:document-units="px"
     showguides="true"
     inkscape:zoom="0.63541669"
     inkscape:cx="240.78688"
     inkscape:cy="287.2131"
     inkscape:window-width="1366"
     inkscape:window-height="696"
     inkscape:window-x="0"
     inkscape:window-y="0"
     inkscape:window-maximized="1"
     inkscape:current-layer="layer1">
    <inkscape:page
       x="0"
       y="0"
       width="135.46666"
       height="135.46666"
       id="page2"
       margin="0"
       bleed="0" />
    <sodipodi:guide
       position="10.70678,12.684039"
       orientation="0,-1"
       id="guide1"
       inkscape:locked="false" />
  </sodipodi:namedview>
  <defs
     id="defs1">
    <color-profile
       name="sRGB"
       xlink:href="file:///usr/share/color/icc/colord/sRGB.icc"
       id="color-profile2" />
    <rect
       x="-20.74062"
       y="-6.9135394"
       width="625.67535"
       height="708.63782"
       id="rect3" />
  </defs>
  <g
     inkscape:label="Camada 1"
     inkscape:groupmode="layer"
     id="layer1">
    <path
       style="font-weight:900;font-size:500px;font-family:'Adwaita Sans';-inkscape-font-specification:'Adwaita Sans Heavy';letter-spacing:8.43px;word-spacing:0.74px;white-space:pre;fill:#00ff00;fill-opacity:0.996078;stroke:#ffffff;stroke-width:10;stroke-linecap:round;stroke-linejoin:bevel;paint-order:stroke fill markers"
       d="M -2.4296875,455.90878 V 385.108 L 134.28906,274.75643 q 10.25391,-8.30078 21.24024,-17.57812 10.98632,-9.52148 18.55468,-21.48438 7.56836,-12.20703 7.56836,-27.83203 0,-12.93945 -5.61523,-22.70507 -5.61524,-9.76563 -15.86914,-15.13672 -10.00977,-5.61524 -23.68164,-5.61524 -14.64844,0 -25.87891,6.83594 -11.230467,6.83594 -17.578123,20.01953 -6.103516,13.18359 -6.103516,32.22656 H -6.0917969 q 0,-42.48047 17.3339849,-73.24218 17.333984,-30.76172 49.316406,-47.36329 31.982422,-16.601558 76.171876,-16.601558 40.2832,0 71.77734,13.916018 31.49414,13.91601 49.31641,40.03906 18.0664,25.87891 18.0664,62.01172 0,27.09961 -10.49804,48.33984 -10.25391,21.24024 -28.8086,40.03907 -18.31054,18.55468 -42.48046,38.33007 l -58.8379,47.85157 v 0.48828 h 141.60157 v 78.61328 z"
       id="text3"
       transform="matrix(0.26458332,0,0,0.26458332,30.757053,-2.9123612)"
       aria-label="2" />
  </g>
</svg>
