<?xml version="1.0" encoding="UTF-8" standalone="no"?>
<!-- Created with Inkscape (http://www.inkscape.org/) -->

<svg
   width="48"
   height="48"
   viewBox="0 0 12.699999 12.699999"
   version="1.1"
   id="svg1"
   inkscape:export-filename="2.svg"
   inkscape:export-xdpi="96"
   inkscape:export-ydpi="96"
   xmlns:inkscape="http://www.inkscape.org/namespaces/inkscape"
   xmlns:sodipodi="http://sodipodi.sourceforge.net/DTD/sodipodi-0.dtd"
   xmlns="http://www.w3.org/2000/svg"
   xmlns:svg="http://www.w3.org/2000/svg">
  <sodipodi:namedview
     id="namedview1"
     pagecolor="#505050"
     bordercolor="#eeeeee"
     borderopacity="1"
     inkscape:showpageshadow="0"
     inkscape:pageopacity="0"
     inkscape:pagecheckerboard="0"
     inkscape:deskcolor="#505050"
     inkscape:document-units="px">
    <inkscape:page
       x="0"
       y="0"
       width="12.699999"
       height="12.699999"
       id="page2"
       margin="0"
       bleed="0" />
  </sodipodi:namedview>
  <defs
     id="defs1" />
  <g
     inkscape:label="Camada 1"
     inkscape:groupmode="layer"
     id="layer1">
    <path
       style="fill:#00ff00;fill-opacity:0.996078;stroke:none;stroke-width:5.39459;paint-order:markers stroke fill"
       id="path2"
       d="M 4.3365194,3.5707878 C 4.3509127,3.3541695 4.5366936,3.1768375 4.6818226,3.0334898 4.9656027,2.7724364 5.3060593,2.5898798 5.6606824,2.4453077 6.0374342,2.2872709 6.4365161,2.2253428 6.8401718,2.1888422 7.2171342,2.1642061 7.5955111,2.1862572 7.9660867,2.2580437 8.3222074,2.3275085 8.6472551,2.4863302 8.9528674,2.676552 6.2395253,1.1636212 7.4631099,1.6967093 7.9256835,2.181025 8.0485306,2.3096461 8.0553791,2.3321589 8.1576154,2.4798169 8.3485813,2.7769677 8.4594769,3.1077516 8.5201305,3.453058 8.5355346,3.6003237 8.5595489,3.7524223 8.516683,3.8966533 8.3845747,4.1340279 8.1472774,4.2952468 7.9319875,4.4513075 7.7747078,4.5480281 7.6194051,4.6504676 7.4510555,4.7276367 7.2884402,4.8021775 7.1150953,4.8527116 6.944733,4.9056418 6.6155466,5.0006981 6.2766495,5.0566784 5.9411576,5.1243879 c -0.1148818,0.015359 -0.2306383,0.048348 -0.3473894,0.04936 -0.055493,4.762e-4 -0.055551,-0.00386 -0.095305,-0.023596 0.5429919,0.3817255 1.0859838,0.7634509 1.628976,1.1451767 0.066466,-0.041188 0.1468792,-0.043188 0.222527,-0.048972 0.1774888,-0.01357 0.3496878,-0.00484 0.5270626,0.00692 0.2520524,0.029883 0.5086977,0.080224 0.7453127,0.1756547 0.1329621,0.053625 0.1894501,0.091981 0.3125771,0.16315 C 6.3128017,5.163321 7.2488257,5.5514293 7.7420569,5.9425864 7.8408608,6.0209427 7.9307236,6.108088 8.0205546,6.1963051 8.2633913,6.4319684 8.3861694,6.74919 8.4929009,7.0631139 8.559463,7.2914591 8.6270669,7.5259804 8.6255694,7.7656881 8.5971708,7.957307 8.5086413,8.130085 8.4127407,8.29564 8.2346044,8.5876609 8.0059044,8.8434484 7.7660861,9.0856779 7.5327972,9.3276253 7.2560991,9.5182094 6.9648352,9.6827379 6.7657194,9.8108404 6.5534516,9.9176318 6.3295712,9.9947496 6.1392078,10.067431 5.9410103,10.112519 5.7389747,10.135908 5.4870581,10.185981 5.2298545,10.195042 4.9740022,10.205852 4.682606,10.220389 4.3908042,10.174464 4.1094471,10.10156 3.9092986,10.048225 3.7064468,9.9963146 3.5176174,9.9088823 3.4384871,9.8722433 3.324216,9.7997985 3.2499863,9.7546101 5.94384,11.285976 4.8274487,10.750025 4.3173024,10.295702 4.2002929,10.191496 4.204772,10.189632 4.1010823,10.072728 3.970942,9.9081454 3.8729845,9.7247614 3.8098168,9.5253161 c 0,0 -1.7155743,-0.8077612 -1.7155743,-0.8077612 v 0 c 0.073423,0.2243944 0.1702902,0.43615 0.3095135,0.6285801 0.031683,0.045028 0.060465,0.092244 0.09505,0.1350833 0.07497,0.092865 0.1451232,0.1527042 0.2338938,0.2316842 0.5804413,0.5164245 1.2219883,0.8267415 1.9571254,1.2041135 0.2843466,0.144854 0.5875305,0.240512 0.8990438,0.30915 0.295598,0.05407 0.593591,0.08909 0.8947575,0.06813 0.2698694,-0.0083 0.5388469,-0.02952 0.8064896,-0.0658 0.2111846,-0.03759 0.4200884,-0.09092 0.617008,-0.177657 0.2186596,-0.10157 0.4287657,-0.215503 0.6231085,-0.359653 0.281646,-0.195121 0.546504,-0.412205 0.789079,-0.654701 C 9.569513,9.7840283 9.808342,9.5192936 10.027034,9.2389075 c 0.132846,-0.184836 0.269756,-0.372501 0.294574,-0.6059222 7.94e-4,-0.038048 0.0047,-0.076161 0.0024,-0.1141434 C 10.309594,8.2873647 10.222859,8.064177 10.156571,7.8447882 10.101882,7.6757174 10.040751,7.5110077 9.971915,7.3471049 9.9531032,7.3023117 9.8576722,7.0816826 9.8319462,7.0355051 9.8088931,6.9941243 9.7789983,6.9569435 9.7525244,6.9176626 9.1296344,6.2318828 8.3437024,5.9185709 7.5038131,5.4444535 7.1509791,5.2840335 6.8120704,5.205538 6.4244376,5.1822284 6.115781,5.1593155 5.8064797,5.1466965 5.497054,5.1578048 c 0.5348081,0.3833105 1.0651921,0.7728703 1.6044242,1.1499317 0.00634,0.00443 0.00916,-0.013023 0.015806,-0.016976 0.015176,-0.00903 0.031961,-0.015121 0.048509,-0.021283 0.099262,-0.036951 0.2039083,-0.055875 0.305435,-0.085103 0.3268824,-0.084177 0.656695,-0.157239 0.9804256,-0.2532308 0.3628181,-0.117864 0.7030524,-0.2828854 1.0161052,-0.502752 0.2572105,-0.1786263 0.54313,-0.3407788 0.734543,-0.5937397 0.01235,-0.02832 0.02777,-0.055489 0.03705,-0.084958 0.0501,-0.159126 -0.007,-0.3264752 -0.03617,-0.4831305 C 10.113448,3.9019294 9.9805071,3.5500069 9.8151105,3.2128599 9.7346973,3.0629317 9.719365,3.018931 9.6162897,2.8857111 9.1137041,2.2361438 8.0615248,1.9357434 7.5229197,1.5188509 7.206567,1.3511778 6.8756553,1.2177723 6.5181607,1.168892 6.1357782,1.1144018 5.7487484,1.091083 5.3640176,1.1397882 4.9538124,1.1887175 4.5485236,1.2827943 4.1697893,1.4516647 3.797256,1.6185725 3.4193051,1.7898795 3.1122609,2.0651256 2.9210638,2.2375372 2.7425267,2.4279306 2.5969502,2.6407346 Z" />
  </g>
</svg>
