<?xml version="1.0" encoding="UTF-8" standalone="no"?>
<!-- Created with Inkscape (http://www.inkscape.org/) -->

<svg
   width="512"
   height="512"
   viewBox="0 0 135.46666 135.46666"
   version="1.1"
   id="svg1"
   inkscape:export-filename="2.svg"
   inkscape:export-xdpi="96"
   inkscape:export-ydpi="96"
   sodipodi:docname="3.svg"
   inkscape:version="1.4.2 (ebf0e940d0, 2025-05-08)"
   xmlns:inkscape="http://www.inkscape.org/namespaces/inkscape"
   xmlns:sodipodi="http://sodipodi.sourceforge.net/DTD/sodipodi-0.dtd"
   xmlns="http://www.w3.org/2000/svg"
   xmlns:svg="http://www.w3.org/2000/svg">
  <sodipodi:namedview
     id="namedview1"
     pagecolor="#505050"
     bordercolor="#eeeeee"
     borderopacity="1"
     inkscape:showpageshadow="0"
     inkscape:pageopacity="0"
     inkscape:pagecheckerboard="0"
     inkscape:deskcolor="#505050"
     inkscape:document-units="px"
     inkscape:zoom="0.44838673"
     inkscape:cx="359.06504"
     inkscape:cy="344.56863"
     inkscape:window-width="1366"
     inkscape:window-height="696"
     inkscape:window-x="0"
     inkscape:window-y="0"
     inkscape:window-maximized="1"
     inkscape:current-layer="layer1">
    <inkscape:page
       x="0"
       y="0"
       width="135.46666"
       height="135.46666"
       id="page2"
       margin="0"
       bleed="0" />
  </sodipodi:namedview>
  <defs
     id="defs1">
    <rect
       x="-20.74062"
       y="-6.9135394"
       width="625.67535"
       height="708.63782"
       id="rect3" />
  </defs>
  <g
     inkscape:label="Camada 1"
     inkscape:groupmode="layer"
     id="layer1">
    <path
       d="m 138.92773,461.76815 q -52.001949,0 -84.472652,-18.55468 Q 21.984375,424.65878 6.6035156,394.87362 -8.5332031,364.84433 -8.5332031,330.90878 H 86.681641 q 0,17.08984 6.103515,29.54101 6.347656,12.45118 17.822264,19.04297 11.71875,6.5918 27.83203,6.5918 14.64844,0 25.63477,-5.12695 11.23047,-5.12696 17.33398,-14.16016 6.34766,-9.27734 6.34766,-20.99609 0,-12.20703 -6.83594,-21.24024 -6.83594,-9.0332 -19.28711,-13.91601 -12.45117,-5.12696 -29.54101,-5.12696 H 96.935547 V 237.15878 H 132.0918 q 16.35742,0 27.83203,-4.39453 11.71875,-4.63867 17.82226,-12.93946 6.34766,-8.54492 6.34766,-20.26367 0,-11.71875 -5.85938,-20.75195 -5.61523,-9.0332 -15.625,-14.16016 -9.76562,-5.12695 -22.70507,-5.12695 -13.42774,0 -24.16992,5.61523 -10.49805,5.61524 -16.601568,15.625 -6.103515,10.00977 -6.103515,23.19336 H -1.6972656 q 0,-33.44726 16.8457036,-60.05859 16.845703,-26.61133 48.583984,-41.99219 31.738281,-15.624998 76.171878,-15.624998 40.2832,0 71.28906,12.939453 31.00586,12.939455 48.33984,35.644535 17.57813,22.70507 17.57813,52.49023 0,33.20313 -20.9961,53.71094 -20.75195,20.26367 -51.75781,23.92578 v 0.73242 q 27.34375,2.68555 45.89844,15.38086 18.79883,12.69531 28.32031,31.73828 9.76563,18.79883 9.76563,40.52735 0,31.00586 -18.79883,55.66406 -18.79883,24.41406 -52.49024,38.57422 -33.44726,14.16015 -78.125,14.16015 z"
       id="text3"
       style="font-weight:900;font-size:500px;font-family:'Adwaita Sans';-inkscape-font-specification:'Adwaita Sans Heavy';letter-spacing:8.43px;word-spacing:0.74px;white-space:pre;fill:#ff7f2a;fill-opacity:0.996078;stroke:#ffffff;stroke-width:10;stroke-linecap:round;stroke-linejoin:bevel;paint-order:stroke fill markers"
       transform="matrix(0.26458332,0,0,0.26458332,31.463522,-4.7908157)"
       aria-label="3" />
  </g>
</svg>
