<?xml version="1.0" encoding="UTF-8" standalone="no"?>
<!-- Created with Inkscape (http://www.inkscape.org/) -->

<svg
   width="48"
   height="48"
   viewBox="0 0 12.699999 12.699999"
   version="1.1"
   id="svg1"
   inkscape:export-filename="3.svg"
   inkscape:export-xdpi="96"
   inkscape:export-ydpi="96"
   xmlns:inkscape="http://www.inkscape.org/namespaces/inkscape"
   xmlns:sodipodi="http://sodipodi.sourceforge.net/DTD/sodipodi-0.dtd"
   xmlns="http://www.w3.org/2000/svg"
   xmlns:svg="http://www.w3.org/2000/svg">
  <sodipodi:namedview
     id="namedview1"
     pagecolor="#505050"
     bordercolor="#eeeeee"
     borderopacity="1"
     inkscape:showpageshadow="0"
     inkscape:pageopacity="0"
     inkscape:pagecheckerboard="0"
     inkscape:deskcolor="#505050"
     inkscape:document-units="px">
    <inkscape:page
       x="0"
       y="0"
       width="12.699999"
       height="12.699999"
       id="page2"
       margin="0"
       bleed="0" />
  </sodipodi:namedview>
  <defs
     id="defs1" />
  <g
     inkscape:label="Camada 1"
     inkscape:groupmode="layer"
     id="layer1">
    <path
       style="fill:#ff2a2a;fill-opacity:0.996078;stroke:none;stroke-width:5.39459;paint-order:markers stroke fill"
       id="path2"
       d="M 9.2536436,11.2311 C 9.1907243,10.980601 9.1244171,10.731708 9.0760727,10.477448 8.9982577,10.021692 8.9858046,9.5579094 8.9752495,9.0966417 8.9600969,8.5955217 8.9737943,8.0939376 9.0000278,7.593436 9.017477,7.0453924 9.0656365,6.499557 9.1152154,5.9537214 9.164982,5.3037796 9.214159,4.6543075 9.3170258,4.0103141 9.3918153,3.5254763 9.5197755,3.0528189 9.675487,2.5885376 9.6940052,2.5390133 9.7132137,2.4897415 9.7310421,2.4399647 9.7787988,2.3066294 9.7797566,2.283374 9.836673,2.1550836 9.8861257,2.0436156 9.9480782,1.9396668 10.01169,1.8359872 10.446586,1.252034 11.344419,2.2308925 8.3582632,0.81681956 8.3243497,0.80076014 8.3291382,0.88614329 8.3109568,0.91896795 8.2441281,1.03962 8.1468826,1.1713073 8.0706397,1.2810584 7.5515,1.9363132 6.9587165,2.5308284 6.3233742,3.0733934 6.1740187,3.2009389 6.0195912,3.3224226 5.8676995,3.4469371 5.7181568,3.5641232 5.5685989,3.6812902 5.4190713,3.7984953 5.0903834,4.0561325 4.8999802,4.2101907 4.5641769,4.4553427 4.1605649,4.749998 3.7437205,5.0218388 3.3214262,5.2885476 2.8669954,5.562541 2.3974708,5.8158407 1.9058208,6.0171468 1.7666168,6.0741436 1.5715992,6.1416991 1.4263411,6.1932232 c -0.055152,0.017939 -0.1101917,0.036228 -0.1654557,0.053819 -0.065107,0.020725 -0.1289021,0.045921 -0.1950719,0.06295 -8.678e-4,2.238e-4 -0.2060421,0.00806 -0.098811,0.081061 0.550963,0.3750792 1.1371619,0.6955875 1.705743,1.0433812 0.108296,-0.086335 0.2542396,-0.1135833 0.3869668,-0.1415299 0.4426942,-0.074811 0.8930084,-0.073224 1.3404711,-0.077493 1.2262209,0.03834 2.4454957,0.186628 3.6637325,0.3228088 0.7141463,0.085998 1.4300553,0.1569908 2.1438911,0.2455616 0.24182,0.042567 0.482072,0.034691 0.722963,-0.00584 0.221466,-0.027778 0.110759,-0.016103 0.332114,-0.035088 0,0 -1.5021268,-1.0688422 -1.5021268,-1.0688422 v 0 C 9.5445312,6.6984707 9.6554377,6.6886864 9.4279688,6.7025699 9.1953186,6.6991224 8.9626305,6.6748091 8.73042,6.6998897 8.1180068,6.7337389 7.5045365,6.6994664 6.8925357,6.6723106 6.3893218,6.646855 6.2609042,6.644832 5.7410652,6.5986321 4.8644594,6.5207253 3.9933805,6.3928371 3.1215695,6.2748702 2.5899593,6.213503 2.053334,6.1320032 1.5190321,6.2142015 c -0.082815,0.012248 -0.1661288,0.021482 -0.2484513,0.036689 -0.040645,0.00751 -0.1381604,0.043382 -0.1824001,0.040614 -0.00938,-5.821e-4 -0.016611,-0.00879 -0.024917,-0.013189 0.5558876,0.3484803 1.1280477,0.6722589 1.6676631,1.0454412 0.024442,0.016904 -0.03705,0.046594 -0.057714,0.067953 -0.00757,0.00782 0.011353,-0.018645 0.018195,-0.027105 C 2.7539054,7.287335 2.8439442,7.2386432 2.924009,7.1828683 3.4885678,6.8277697 4.071693,6.5019047 4.61943,6.1201599 5.0266192,5.8371685 5.4338566,5.554335 5.8261656,5.2507336 6.2144077,4.9502796 6.2739461,4.8900131 6.651307,4.571258 6.7953319,4.449601 6.9398542,4.328534 7.0841277,4.207172 7.187266,4.118856 7.89169,3.515252 7.9902121,3.4325774 8.4043257,3.0850747 8.8273687,2.7509214 9.2547512,2.4201483 9.3545253,2.342928 9.4533699,2.2645141 9.5526792,2.1866969 9.9252064,1.9046998 9.6502652,2.1169526 9.9340504,1.8898193 9.965323,1.8647897 10.061409,1.8388875 10.028694,1.8157741 7.5233122,0.04566917 8.5371124,0.19866521 8.3543943,0.90002373 8.2680193,1.1749697 8.1236102,1.4304304 8.0735701,1.7171973 7.9634542,2.214693 7.9014301,2.7207075 7.829719,3.2247893 7.7421081,3.8681429 7.6578311,4.5118169 7.593838,5.1580654 7.5274149,5.6994224 7.4637098,6.2414446 7.4359169,6.7864137 c -0.024998,0.5035576 -0.039703,1.0076415 -0.033841,1.5118658 0.00437,0.4581194 0.0103,0.9162685 0.038921,1.3736801 0.017643,0.2201576 0.041703,0.4403254 0.049792,0.6609234 z" />
  </g>
</svg>
