<?xml version="1.0" encoding="UTF-8" standalone="no"?>
<!-- Created with Inkscape (http://www.inkscape.org/) -->

<svg
   width="48"
   height="48"
   viewBox="0 0 12.699999 12.699999"
   version="1.1"
   id="svg1"
   inkscape:export-filename="4.svg"
   inkscape:export-xdpi="96"
   inkscape:export-ydpi="96"
   xmlns:inkscape="http://www.inkscape.org/namespaces/inkscape"
   xmlns:sodipodi="http://sodipodi.sourceforge.net/DTD/sodipodi-0.dtd"
   xmlns="http://www.w3.org/2000/svg"
   xmlns:svg="http://www.w3.org/2000/svg">
  <sodipodi:namedview
     id="namedview1"
     pagecolor="#505050"
     bordercolor="#eeeeee"
     borderopacity="1"
     inkscape:showpageshadow="0"
     inkscape:pageopacity="0"
     inkscape:pagecheckerboard="0"
     inkscape:deskcolor="#505050"
     inkscape:document-units="px">
    <inkscape:page
       x="0"
       y="0"
       width="12.699999"
       height="12.699999"
       id="page2"
       margin="0"
       bleed="0" />
  </sodipodi:namedview>
  <defs
     id="defs1" />
  <g
     inkscape:label="Camada 1"
     inkscape:groupmode="layer"
     id="layer1">
    <path
       style="fill:#8080ff;fill-opacity:0.996078;stroke:none;stroke-width:5.39459;paint-order:markers stroke fill"
       id="path2"
       d="M 8.0172415,1.4765099 C 7.6414232,1.558138 7.2500923,1.5432759 6.8681009,1.5335653 6.3362049,1.5165395 5.8100905,1.4384161 5.2858083,1.3529935 5.1810664,1.3290501 5.0721896,1.3246428 4.9668402,1.3055635 4.9079175,1.2948923 4.8499237,1.2745182 4.790882,1.2628542 4.773853,1.2605142 4.756822,1.2581742 4.739793,1.2558342 4.720566,1.2561199 4.701226,1.2588042 4.682114,1.2566914 4.662864,1.2545614 4.644637,1.2467614 4.625597,1.2432164 4.5552377,1.2301203 4.4851951,1.2270217 4.4148866,1.21246 4.2385243,1.1872143 4.0636067,1.1565747 3.8865756,1.1352953 3.7617312,1.1215433 3.6456807,1.0760096 3.5198946,1.0641777 3.4534673,1.0275352 3.3772194,1.0394481 3.3051004,1.0312011 3.2571401,1.0257168 3.2101239,1.0138573 3.1625582,1.0056248 3.0457513,0.99026892 2.9268362,0.9515735 2.8102685,0.98157365 2.7935881,0.99225295 2.773566,0.99897032 2.7602275,1.0136115 2.6349162,1.1511619 2.6726767,1.3763562 2.6751061,1.5445326 2.6686637,1.8676239 2.6188794,2.1888051 2.5446568,2.5028401 2.4886907,2.6782596 2.4479038,2.8560088 2.4175029,3.0373211 2.3968924,3.2369167 2.3634666,3.4346435 2.3367677,3.6334075 2.3110436,3.8449609 2.2653073,4.052708 2.2230215,4.261314 2.2119344,4.2998606 2.201817,4.3426355 2.1839604,4.3791977 2.1730733,4.4014889 2.156311,4.4144736 2.1385033,4.4303084 2.7190065,4.749141 3.29951,5.0679737 3.8800132,5.3868064 3.9098815,5.3115785 3.998605,5.2932182 4.0669098,5.2664464 4.3567431,5.1754654 4.6594603,5.151059 4.9608704,5.1321243 c 0.3997184,-0.022564 0.799561,-0.019958 1.1993344,-0.00356 0.3813355,0.01864 0.7633922,0.041242 1.1408565,0.100348 0.3388453,0.044115 0.6758543,0.1046622 1.0094171,0.1786088 0.232069,0.048751 0.4568788,0.1310521 0.674248,0.2247384 0.033763,0.017463 0.1460407,0.075095 0.1793764,0.09409 0.028307,0.016129 0.1116951,0.067122 0.083437,0.050908 C 6.4591004,4.1772553 7.3256483,4.5846499 7.8280187,4.982127 c 0.142603,0.1260401 0.2348381,0.2939444 0.3250914,0.4586666 0.106426,0.1823706 0.1834943,0.3774765 0.2446594,0.5789328 0.058255,0.1917367 0.081545,0.3898945 0.088667,0.5893234 0.00619,0.1382299 0.00849,0.2767274 0.00708,0.4150979 0.010213,0.1487505 -0.019563,0.294727 -0.042829,0.4407357 C 8.4131648,7.6461801 8.3471632,7.8205683 8.2773439,7.991605 8.2203553,8.1568682 8.1403686,8.3116741 8.0524168,8.4622019 7.9534333,8.6272987 7.8277229,8.770071 7.6973381,8.9102684 7.569901,9.0493487 7.4134825,9.1529823 7.2499772,9.2442501 7.0480599,9.3759335 6.8160386,9.4458168 6.586498,9.5116702 6.2936498,9.5767194 5.996019,9.6215935 5.6959683,9.6292159 5.4591935,9.6324914 5.2200594,9.6213498 4.9867212,9.5779275 4.8939581,9.5606634 4.7138972,9.5121129 4.6227001,9.4883914 4.2944618,9.407226 3.9908723,9.2614236 3.6933658,9.104839 3.163226,8.8044719 2.4193461,8.3826864 5.0643878,9.8934042 5.1003132,9.9139226 4.9930797,9.8513283 4.958809,9.8281513 4.8716547,9.769209 4.7939061,9.6989495 4.7163078,9.6283711 4.5751264,9.4923919 4.4766022,9.32224 4.417208,9.136675 4.395036,9.0651579 4.3863706,8.9907787 4.3728858,8.9173989 c 0,0 -1.7435097,-0.8377848 -1.7435097,-0.8377848 v 0 c 0.022759,0.079209 0.052803,0.1564098 0.061081,0.2391106 0.057964,0.2089528 0.1394918,0.405579 0.2696226,0.581334 0.078476,0.086851 0.1615696,0.163609 0.2516266,0.2385737 0.033252,0.027679 0.063767,0.059509 0.101055,0.081451 1.4708104,0.8655316 1.1462,0.6976533 1.8368955,1.0492066 0.2948953,0.137925 0.599844,0.253013 0.9187735,0.322548 0.3682698,0.08154 0.7437471,0.129353 1.1218078,0.112976 0.3159181,-0.01953 0.6313318,-0.06077 0.9388829,-0.137169 0.2466821,-0.07135 0.4900448,-0.155986 0.7122932,-0.287081 C 9.0214688,10.179161 9.1886667,10.058109 9.3241196,9.9002455 9.4644225,9.7524559 9.5923245,9.5921319 9.7013826,9.4198453 9.8021481,9.2621158 9.8928255,9.099895 9.9512826,8.9209322 10.012787,8.7375437 10.082943,8.5571232 10.137227,8.3712365 c 0.04348,-0.1525473 0.07927,-0.3093706 0.08028,-0.4686733 -0.0015,-0.1449194 0.0013,-0.2899965 -0.01133,-0.4345752 C 10.180769,7.2572424 10.149664,7.0469659 10.107543,6.8388724 10.064379,6.6241609 9.9867018,6.4169893 9.8878858,6.2216146 9.8004711,6.0473545 9.7151462,5.870198 9.5991007,5.7126976 9.0655164,5.0884757 8.2355439,4.7868542 7.4904392,4.4591199 7.2791335,4.3842597 7.0657055,4.3210183 6.8418445,4.2955979 6.5050484,4.2359645 6.1695584,4.1669503 5.8290873,4.130803 5.455439,4.0946551 5.0799067,4.0781091 4.7048979,4.0632861 4.2984832,4.0510067 3.891844,4.0534991 3.485666,4.0739223 3.1496137,4.0936179 2.8114252,4.1169314 2.4827836,4.1940265 2.359646,4.2323678 2.2386366,4.2787198 2.1678763,4.3935416 c 0.5730975,0.3310641 1.1472176,0.6603647 1.7192928,0.9931926 0.00335,0.00196 -0.011263,0.00417 -0.01162,3.175e-4 -0.00108,-0.011718 0.00623,-0.022722 0.00848,-0.034275 0.01275,-0.065672 0.018378,-0.1327102 0.029751,-0.1985943 0.019801,-0.2142622 0.061184,-0.4251698 0.097831,-0.6370219 0.029856,-0.1937457 0.07263,-0.3849079 0.1048792,-0.5780672 0.031624,-0.1861129 0.047616,-0.3732839 0.070876,-0.5606997 0.045838,-0.3247977 0.086196,-0.650418 0.1464847,-0.9729759 0.0053,-0.030693 0.03331,-0.284038 0.060503,-0.3087987 0.00679,-0.00619 -0.019119,0.041788 0.011205,0.025183 0.097108,0.023848 0.1996128,0.020984 0.297311,0.042815 0.073645,0.012151 0.1479145,0.020676 0.2206058,0.037951 0.00364,8.626e-4 0.1034002,0.027911 0.110989,0.029198 0.016603,0.00282 0.03358,0.00261 0.05037,0.00391 0.1117529,0.022359 0.2228056,0.040886 0.3370225,0.044924 0.1772915,0.023732 0.3530126,0.058565 0.5291248,0.089645 0.1327267,0.020043 0.2647551,0.042809 0.3967848,0.065943 0.140471,0.02172 0.282504,0.015256 0.4242027,0.020362 0.4851185,0.015861 0.9697965,0.043493 1.4542861,0.072289 0.4644311,0.025805 0.9302884,0.049237 1.3916262,0.1106067 z" />
  </g>
</svg>
