<?xml version="1.0" encoding="UTF-8" standalone="no"?>
<!-- Created with Inkscape (http://www.inkscape.org/) -->

<svg
   width="512"
   height="512"
   viewBox="0 0 135.46666 135.46666"
   version="1.1"
   id="svg1"
   inkscape:export-filename="4.svg"
   inkscape:export-xdpi="96"
   inkscape:export-ydpi="96"
   sodipodi:docname="5.svg"
   inkscape:version="1.4.2 (ebf0e940d0, 2025-05-08)"
   xmlns:inkscape="http://www.inkscape.org/namespaces/inkscape"
   xmlns:sodipodi="http://sodipodi.sourceforge.net/DTD/sodipodi-0.dtd"
   xmlns="http://www.w3.org/2000/svg"
   xmlns:svg="http://www.w3.org/2000/svg">
  <sodipodi:namedview
     id="namedview1"
     pagecolor="#505050"
     bordercolor="#eeeeee"
     borderopacity="1"
     inkscape:showpageshadow="0"
     inkscape:pageopacity="0"
     inkscape:pagecheckerboard="0"
     inkscape:deskcolor="#505050"
     inkscape:document-units="px"
     inkscape:zoom="0.44838672"
     inkscape:cx="75.827402"
     inkscape:cy="438.23778"
     inkscape:window-width="1366"
     inkscape:window-height="696"
     inkscape:window-x="0"
     inkscape:window-y="0"
     inkscape:window-maximized="1"
     inkscape:current-layer="layer1">
    <inkscape:page
       x="0"
       y="0"
       width="135.46666"
       height="135.46666"
       id="page2"
       margin="0"
       bleed="0" />
  </sodipodi:namedview>
  <defs
     id="defs1">
    <rect
       x="-20.74062"
       y="-6.9135394"
       width="625.67535"
       height="708.63782"
       id="rect3" />
  </defs>
  <g
     inkscape:label="Camada 1"
     inkscape:groupmode="layer"
     id="layer1">
    <path
       style="font-weight:900;font-size:500px;font-family:'Adwaita Sans';-inkscape-font-specification:'Adwaita Sans Heavy';letter-spacing:8.43px;word-spacing:0.74px;white-space:pre;fill:#161650;fill-opacity:0.996078;stroke:#ffffff;stroke-width:10;stroke-linecap:round;stroke-linejoin:bevel;paint-order:stroke fill markers"
       d="m 133.55664,461.76815 q -41.992187,0 -73.730468,-14.64843 Q 28.332031,432.22714 9.7773438,404.63925 -8.5332031,377.05136 -10.974609,338.72128 h 93.99414 q 0,13.91601 6.591797,24.90234 6.835938,10.74219 18.310552,17.08985 11.71875,6.34765 26.36718,6.34765 14.89258,0 26.12305,-6.59179 11.23047,-6.83594 17.57812,-18.79883 6.34766,-11.96289 6.34766,-27.83203 0,-16.11329 -6.5918,-28.32032 -6.34765,-12.45117 -17.57812,-19.28711 -11.23047,-7.08007 -25.87891,-7.08007 -18.79883,0 -31.98242,8.30078 -12.939453,8.30078 -17.089843,21.97265 H -5.6035156 L 4.6503906,92.139247 H 257.0918 V 171.24081 H 93.517578 l -4.638672,58.83789 h 0.488281 q 11.230473,-10.98633 27.832033,-16.60156 16.60156,-5.85938 36.62109,-5.85938 24.16992,0 46.63086,9.52149 22.70508,9.27734 40.52735,26.12304 17.82226,16.84571 28.07617,39.30664 10.49804,22.46094 10.49804,48.33985 0,38.08594 -18.0664,67.62695 -18.06641,29.54102 -51.02539,46.38672 -32.71485,16.8457 -76.9043,16.8457 z"
       id="text3"
       transform="matrix(0.26458332,0,0,0.26458332,33.294671,-4.2407092)"
       aria-label="5" />
  </g>
</svg>
