<?xml version="1.0" encoding="UTF-8" standalone="no"?>
<!-- Created with Inkscape (http://www.inkscape.org/) -->

<svg
   width="512"
   height="512"
   viewBox="0 0 135.46666 135.46666"
   version="1.1"
   id="svg1"
   inkscape:export-filename="6.svg"
   inkscape:export-xdpi="96"
   inkscape:export-ydpi="96"
   sodipodi:docname="6.svg"
   inkscape:version="1.4.2 (ebf0e940d0, 2025-05-08)"
   xmlns:inkscape="http://www.inkscape.org/namespaces/inkscape"
   xmlns:sodipodi="http://sodipodi.sourceforge.net/DTD/sodipodi-0.dtd"
   xmlns="http://www.w3.org/2000/svg"
   xmlns:svg="http://www.w3.org/2000/svg">
  <sodipodi:namedview
     id="namedview1"
     pagecolor="#505050"
     bordercolor="#eeeeee"
     borderopacity="1"
     inkscape:showpageshadow="0"
     inkscape:pageopacity="0"
     inkscape:pagecheckerboard="0"
     inkscape:deskcolor="#505050"
     inkscape:document-units="px"
     inkscape:zoom="0.44838673"
     inkscape:cx="51.295006"
     inkscape:cy="188.45339"
     inkscape:window-width="1366"
     inkscape:window-height="696"
     inkscape:window-x="0"
     inkscape:window-y="0"
     inkscape:window-maximized="1"
     inkscape:current-layer="layer1">
    <inkscape:page
       x="0"
       y="0"
       width="135.46666"
       height="135.46666"
       id="page2"
       margin="0"
       bleed="0" />
  </sodipodi:namedview>
  <defs
     id="defs1">
    <rect
       x="-20.74062"
       y="-6.9135394"
       width="625.67535"
       height="708.63782"
       id="rect3" />
  </defs>
  <g
     inkscape:label="Camada 1"
     inkscape:groupmode="layer"
     id="layer1">
    <path
       style="font-weight:900;font-size:500px;font-family:'Adwaita Sans';-inkscape-font-specification:'Adwaita Sans Heavy';letter-spacing:8.43px;word-spacing:0.74px;white-space:pre;fill:#ffcc00;fill-opacity:0.996078;stroke:#ffffff;stroke-width:10;stroke-linecap:round;stroke-linejoin:bevel;paint-order:stroke fill markers"
       d="m 146.74023,461.76815 q -37.35351,0 -66.650386,-12.20703 Q 51.037109,437.10995 30.529297,413.42831 10.265625,389.74667 -0.4765625,355.81112 -10.974609,321.63143 -10.974609,278.1744 q 0,-44.18945 10.74218712,-79.58984 Q 10.509766,163.18417 31.017578,138.03768 51.525391,112.8912 80.822266,99.707607 110.11914,86.279872 147.22852,86.279872 q 40.2832,0 70.55664,15.136718 30.51757,14.89258 48.58398,40.2832 18.06641,25.14649 20.99609,56.39649 h -93.26171 q -3.17383,-17.33399 -16.60157,-27.34375 -13.18359,-10.25391 -33.93554,-10.25391 -21.24024,0 -35.15625,10.98633 -13.671879,10.98633 -20.507816,31.25 -6.591797,20.26367 -6.591797,48.58398 h 0.488281 q 9.521484,-13.67187 21.728512,-22.46093 12.20704,-8.78907 27.34375,-12.93946 15.38086,-4.15039 33.44727,-4.15039 37.10937,0 65.91797,15.86914 29.05273,15.86914 45.41015,43.45704 16.60157,27.58789 16.60157,63.23242 0,38.08593 -18.79883,66.89453 -18.55469,28.56445 -51.51367,44.67773 -32.71485,15.86914 -75.19532,15.86914 z m -0.97656,-76.17187 q 14.89258,0 26.12305,-6.5918 11.47461,-6.5918 18.0664,-18.0664 6.5918,-11.71875 6.5918,-26.61133 0,-14.89258 -6.5918,-26.36719 -6.59179,-11.71875 -18.0664,-18.31055 -11.23047,-6.59179 -26.12305,-6.59179 -10.98633,0 -20.26367,3.90625 -9.0332,3.66211 -15.86914,10.49804 -6.5918,6.83594 -10.498048,16.35742 -3.662109,9.27735 -3.662109,20.50782 0,14.89258 6.347657,26.61133 6.5918,11.4746 18.06641,18.0664 11.4746,6.5918 25.8789,6.5918 z"
       id="text3"
       transform="matrix(0.26458332,0,0,0.26458332,30.140606,-2.7559955)"
       aria-label="6" />
  </g>
</svg>
