<?xml version="1.0" encoding="UTF-8" standalone="no"?>
<!-- Created with Inkscape (http://www.inkscape.org/) -->

<svg
   width="48"
   height="48"
   viewBox="0 0 12.699999 12.699999"
   version="1.1"
   id="svg1"
   inkscape:export-filename="6.svg"
   inkscape:export-xdpi="96"
   inkscape:export-ydpi="96"
   xmlns:inkscape="http://www.inkscape.org/namespaces/inkscape"
   xmlns:sodipodi="http://sodipodi.sourceforge.net/DTD/sodipodi-0.dtd"
   xmlns="http://www.w3.org/2000/svg"
   xmlns:svg="http://www.w3.org/2000/svg">
  <sodipodi:namedview
     id="namedview1"
     pagecolor="#505050"
     bordercolor="#eeeeee"
     borderopacity="1"
     inkscape:showpageshadow="0"
     inkscape:pageopacity="0"
     inkscape:pagecheckerboard="0"
     inkscape:deskcolor="#505050"
     inkscape:document-units="px">
    <inkscape:page
       x="0"
       y="0"
       width="12.699999"
       height="12.699999"
       id="page2"
       margin="0"
       bleed="0" />
  </sodipodi:namedview>
  <defs
     id="defs1" />
  <g
     inkscape:label="Camada 1"
     inkscape:groupmode="layer"
     id="layer1">
    <path
       style="fill:#ff9955;fill-opacity:0.996078;stroke:none;stroke-width:5.39459;paint-order:markers stroke fill"
       id="path2"
       d="M 4.3353812,4.5690074 C 4.239199,4.2467502 4.20025,3.9146088 4.1707225,3.5809808 c -0.010189,-0.117064 -0.017518,-0.2357553 -0.004,-0.3529742 0.00336,-0.02912 0.013581,-0.078467 0.021937,-0.079174 0.00798,-6.88e-4 0.00384,0.015544 0.00577,0.023318 0.00543,0.009 0.00672,0.022672 0.016298,0.027009 0.022577,0.010221 0.1414748,0.00172 0.1465392,0.00159 0.1454724,-0.00421 0.2907075,-0.00556 0.4362328,-0.00478 0.058933,-1.976e-4 0.1179187,-0.00308 0.1767996,-5.821e-4 0.126833,0.00536 0.2529678,0.021902 0.379658,0.029959 0.2322433,0.014769 0.4646424,0.028048 0.69695,0.041858 0.440459,0.023963 0.8803814,0.05667 1.3207747,0.081707 0.2546853,0.017605 0.5097851,0.015073 0.7646821,0.00564 0.3729158,-0.011234 0.7456796,-0.027017 1.1186354,-0.037817 0.307381,-0.00432 0.6141572,-0.027474 0.9198737,-0.058399 0.08884,-0.00475 0.174402,-0.03853 0.261996,-0.049475 0.01155,-0.00146 0.04466,0.00859 0.03485,0.00233 C 8.7911004,2.1387398 9.1291762,1.5927614 8.7747801,2.1878901 8.6652682,2.3084282 8.5401545,2.4135492 8.4172365,2.5200282 8.2355349,2.671199 8.066318,2.8354459 7.8943204,2.9974926 7.6422497,3.2271046 7.3884458,3.4549402 7.1424243,3.6911809 6.9015845,3.9176118 6.6716669,4.1535801 6.4560344,4.4041318 6.1749352,4.7360828 5.9359845,5.1012355 5.6948629,5.4625182 5.3910347,5.872825 5.1181157,6.3031465 4.8785643,6.7537639 4.7374467,7.0648041 4.5728812,7.3656842 4.4407578,7.6806818 4.3375753,7.9159535 4.260589,8.1592744 4.2076123,8.4103338 4.1470574,8.7445297 4.0550684,9.0712779 3.9831819,9.4029154 3.9156991,9.7188297 3.8456848,10.034019 3.7727921,10.348755 c 0,0 1.6454566,0.876503 1.6454566,0.876503 v 0 c 0.044108,-0.3208 0.112827,-0.637688 0.1807175,-0.954155 C 5.67293,9.9447778 5.7482341,9.6186609 5.8468908,9.2986693 5.920872,9.0612926 5.9937769,8.8239476 6.0747169,8.5888132 6.1818821,8.2671593 6.3030655,7.9495111 6.4376551,7.6383725 6.6360095,7.1788109 6.8787525,6.7404371 7.19188,6.3478883 7.4610808,6.0070989 7.7402683,5.6749339 8.0341892,5.3551718 8.1404249,5.2319712 8.2472049,5.1110346 8.362853,4.996468 8.4411847,4.9188686 8.5237339,4.8455957 8.6018325,4.7677616 8.6390779,4.7306424 8.6743789,4.6916219 8.7106519,4.6535521 8.9484269,4.4119039 9.2004499,4.1851619 9.4711467,3.980598 9.6610598,3.8325586 9.848788,3.6818837 10.035248,3.529516 10.168199,3.4183164 10.302519,3.3086923 10.44579,3.2109323 11.016729,2.788987 10.523963,3.1737443 8.8398424,2.0951705 c -0.00694,-0.00445 -0.010888,0.012712 -0.017865,0.017104 -0.056133,0.035331 -0.1277745,0.040708 -0.1899007,0.057222 -0.2839046,0.043354 -0.570388,0.068312 -0.8570846,0.084318 -0.3831412,0.021339 -0.76645,0.027725 -1.1498645,0.00584 C 6.3742752,2.2515423 6.1233531,2.2481813 5.8724588,2.257723 5.4603034,2.2655573 5.0475341,2.264376 4.6366685,2.2258887 4.1945517,2.1840671 3.7533447,2.1256587 3.3091302,2.1121476 3.1472508,2.1055118 2.9860944,2.0937245 2.8243959,2.0842145 c -0.053923,-0.00317 -0.1626002,-0.014537 -0.2198985,0.00565 -0.029945,0.010549 -0.053776,0.033765 -0.080665,0.050648 -0.016612,0.025076 -0.03767,0.04772 -0.049837,0.075229 -0.0582,0.1315944 0.047164,0.4168301 0.056842,0.5544688 0.046087,0.2996755 0.081166,0.6045326 0.05606,0.907903 z" />
  </g>
</svg>
