<?xml version="1.0" encoding="UTF-8" standalone="no"?>
<!-- Created with Inkscape (http://www.inkscape.org/) -->

<svg
   width="512"
   height="512"
   viewBox="0 0 135.46666 135.46666"
   version="1.1"
   id="svg1"
   inkscape:export-filename="7.svg"
   inkscape:export-xdpi="96"
   inkscape:export-ydpi="96"
   sodipodi:docname="8.svg"
   inkscape:version="1.4.2 (ebf0e940d0, 2025-05-08)"
   xmlns:inkscape="http://www.inkscape.org/namespaces/inkscape"
   xmlns:sodipodi="http://sodipodi.sourceforge.net/DTD/sodipodi-0.dtd"
   xmlns="http://www.w3.org/2000/svg"
   xmlns:svg="http://www.w3.org/2000/svg">
  <sodipodi:namedview
     id="namedview1"
     pagecolor="#505050"
     bordercolor="#eeeeee"
     borderopacity="1"
     inkscape:showpageshadow="0"
     inkscape:pageopacity="0"
     inkscape:pagecheckerboard="0"
     inkscape:deskcolor="#505050"
     inkscape:document-units="px"
     inkscape:zoom="0.89677346"
     inkscape:cx="206.29513"
     inkscape:cy="245.8815"
     inkscape:window-width="1366"
     inkscape:window-height="696"
     inkscape:window-x="0"
     inkscape:window-y="0"
     inkscape:window-maximized="1"
     inkscape:current-layer="layer1">
    <inkscape:page
       x="0"
       y="0"
       width="135.46666"
       height="135.46666"
       id="page2"
       margin="0"
       bleed="0" />
  </sodipodi:namedview>
  <defs
     id="defs1">
    <rect
       x="-20.74062"
       y="-6.9135394"
       width="625.67535"
       height="708.63782"
       id="rect3" />
  </defs>
  <g
     inkscape:label="Camada 1"
     inkscape:groupmode="layer"
     id="layer1">
    <path
       d="m 139.41602,461.76815 q -45.410161,0 -79.345708,-12.93945 Q 26.378906,435.88925 7.5800781,412.45175 -10.974609,388.77011 -10.974609,357.27597 q 0,-25.14649 11.474609,-43.70118 11.71875,-18.79882 33.203125,-30.51757 21.728516,-11.71875 51.513672,-15.625 v 0.24414 q -39.794922,-5.61524 -62.5,-26.61133 -22.46093762,-20.9961 -22.46093762,-55.17578 0,-29.78516 17.33398462,-52.2461 17.578125,-22.46093 48.828125,-34.912106 31.49414,-12.451172 72.998051,-12.451172 42.7246,0 73.9746,12.207032 31.25,12.207026 48.33985,34.667966 17.33398,22.2168 17.33398,52.73438 0,34.17968 -22.46093,55.17578 -22.46094,20.75195 -62.5,26.61133 v -0.24414 q 29.78515,3.90625 51.26953,15.625 21.72851,11.71875 33.20312,30.51757 11.71875,18.55469 11.71875,43.70118 0,31.49414 -18.79883,55.17578 -18.79882,23.4375 -52.73437,36.37695 -33.69141,12.93945 -79.3457,12.93945 z m 0,-67.87109 q 13.91601,0 24.90234,-5.61523 10.98633,-5.85938 17.08984,-15.86915 6.34766,-10.2539 6.34766,-22.94921 0,-12.93946 -6.34766,-22.70508 -6.10351,-10.00977 -17.08984,-15.625 -10.74219,-5.61524 -24.90234,-5.61524 -13.91602,0 -24.65821,5.61524 -10.74218,5.61523 -17.089841,15.625 -6.103516,9.76562 -6.103516,22.70508 0,12.93945 6.103516,22.94921 6.347661,10.00977 17.089841,15.86915 10.74219,5.61523 24.65821,5.61523 z m 0,-159.42383 q 13.18359,0 22.70507,-4.63867 9.76563,-4.88281 14.89258,-13.67188 5.3711,-8.78906 5.3711,-20.50781 0,-11.96289 -5.3711,-20.50781 -5.12695,-8.78906 -14.89258,-13.42773 -9.52148,-4.88282 -22.70507,-4.88282 -12.93946,0 -22.46094,4.88282 -9.52149,4.63867 -14.89258,13.42773 -5.126953,8.54492 -5.126953,20.50781 0,11.71875 5.126953,20.50781 5.37109,8.78907 14.89258,13.67188 9.52148,4.63867 22.46094,4.63867 z"
       id="text3"
       style="font-weight:900;font-size:500px;font-family:'Adwaita Sans';-inkscape-font-specification:'Adwaita Sans Heavy';letter-spacing:8.43px;word-spacing:0.74px;white-space:pre;fill:#222b00;fill-opacity:0.996078;stroke:#ffffff;stroke-width:10;stroke-linecap:round;stroke-linejoin:bevel;paint-order:stroke fill markers"
       transform="matrix(0.26458332,0,0,0.26458332,30.71902,-4.1914643)"
       aria-label="8" />
  </g>
</svg>
