<?xml version="1.0" encoding="UTF-8" standalone="no"?>
<!-- Created with Inkscape (http://www.inkscape.org/) -->

<svg
   width="512"
   height="512"
   viewBox="0 0 135.46666 135.46666"
   version="1.1"
   id="svg1"
   inkscape:export-filename="8.svg"
   inkscape:export-xdpi="96"
   inkscape:export-ydpi="96"
   sodipodi:docname="9.svg"
   inkscape:version="1.4.2 (ebf0e940d0, 2025-05-08)"
   xmlns:inkscape="http://www.inkscape.org/namespaces/inkscape"
   xmlns:sodipodi="http://sodipodi.sourceforge.net/DTD/sodipodi-0.dtd"
   xmlns="http://www.w3.org/2000/svg"
   xmlns:svg="http://www.w3.org/2000/svg">
  <sodipodi:namedview
     id="namedview1"
     pagecolor="#505050"
     bordercolor="#eeeeee"
     borderopacity="1"
     inkscape:showpageshadow="0"
     inkscape:pageopacity="0"
     inkscape:pagecheckerboard="0"
     inkscape:deskcolor="#505050"
     inkscape:document-units="px"
     inkscape:zoom="0.63411459"
     inkscape:cx="119.85215"
     inkscape:cy="235.7618"
     inkscape:window-width="1366"
     inkscape:window-height="696"
     inkscape:window-x="0"
     inkscape:window-y="0"
     inkscape:window-maximized="1"
     inkscape:current-layer="layer1">
    <inkscape:page
       x="0"
       y="0"
       width="135.46666"
       height="135.46666"
       id="page2"
       margin="0"
       bleed="0" />
  </sodipodi:namedview>
  <defs
     id="defs1">
    <rect
       x="-20.74062"
       y="-6.9135394"
       width="625.67535"
       height="708.63782"
       id="rect3" />
  </defs>
  <g
     inkscape:label="Camada 1"
     inkscape:groupmode="layer"
     id="layer1">
    <path
       d="m 68.454016,117.55638 q -10.593667,0 -18.668109,-3.94033 -8.074442,-4.00492 -12.854512,-10.72286 -4.715474,-6.717934 -5.555216,-14.921567 h 24.675495 q 0.839742,4.521686 4.3279,7.2347 3.552756,2.713011 9.043376,2.713011 5.684408,0 9.301757,-2.906797 3.617351,-2.9068 5.361429,-8.268229 1.808676,-5.426027 1.808676,-12.854514 h -0.129191 q -2.519227,3.617352 -5.749004,5.942791 -3.229776,2.325438 -7.2347,3.423562 -4.004924,1.098124 -8.849587,1.098124 -9.818522,0 -17.505391,-4.19871 -7.622274,-4.198709 -12.01477,-11.498005 -4.327901,-7.363891 -4.327901,-16.730243 0,-10.076905 4.909261,-17.634582 4.973856,-7.622275 13.629658,-11.820985 8.720398,-4.263304 19.96002,-4.263304 9.883119,0 17.569986,3.294372 7.751466,3.229778 13.112895,9.495545 5.426022,6.265767 8.203632,15.30914 2.84221,8.978781 2.84221,20.476786 0,11.691794 -2.84221,21.058147 -2.8422,9.366353 -8.268227,16.019688 -5.426025,6.65335 -13.17749,10.2061 -7.751464,3.48816 -17.569987,3.48816 z m 0.387575,-52.064005 q 2.906797,0 5.296834,-0.968933 2.454629,-1.033529 4.19871,-2.842205 1.808673,-1.808673 2.777606,-4.263305 1.033529,-2.519224 1.033529,-5.490619 0,-3.940329 -1.744078,-6.976319 -1.679485,-3.100586 -4.715475,-4.844666 -2.971395,-1.744078 -6.847126,-1.744078 -3.875733,0 -6.911723,1.744078 -3.035991,1.74408 -4.78007,4.844666 -1.744079,3.03599 -1.744079,6.976319 0,3.940328 1.744079,7.040914 1.744079,3.03599 4.78007,4.780068 3.03599,1.74408 6.911723,1.74408 z"
       id="text3"
       style="font-weight:900;font-size:500px;font-family:'Adwaita Sans';-inkscape-font-specification:'Adwaita Sans Heavy';letter-spacing:8.43px;word-spacing:0.74px;white-space:pre;fill:#ff5599;fill-opacity:0.996078;stroke:#ffffff;stroke-width:2.64583;stroke-linecap:round;stroke-linejoin:bevel;paint-order:stroke fill markers"
       aria-label="9" />
  </g>
</svg>
