<?xml version="1.0" encoding="UTF-8" standalone="no"?>
<!-- Created with Inkscape (http://www.inkscape.org/) -->

<svg
   width="53.997715"
   height="45"
   viewBox="0 0 14.286894 11.906249"
   version="1.1"
   id="svg1"
   inkscape:export-filename="clear.svg"
   inkscape:export-xdpi="96"
   inkscape:export-ydpi="96"
   sodipodi:docname="clear.svg"
   inkscape:version="1.4.2 (ebf0e940d0, 2025-05-08)"
   xmlns:inkscape="http://www.inkscape.org/namespaces/inkscape"
   xmlns:sodipodi="http://sodipodi.sourceforge.net/DTD/sodipodi-0.dtd"
   xmlns="http://www.w3.org/2000/svg"
   xmlns:svg="http://www.w3.org/2000/svg">
  <sodipodi:namedview
     id="namedview1"
     pagecolor="#505050"
     bordercolor="#eeeeee"
     borderopacity="1"
     inkscape:showpageshadow="0"
     inkscape:pageopacity="0"
     inkscape:pagecheckerboard="0"
     inkscape:deskcolor="#505050"
     inkscape:document-units="px"
     inkscape:zoom="7.6681802"
     inkscape:cx="27.385898"
     inkscape:cy="22.691173"
     inkscape:window-width="1366"
     inkscape:window-height="696"
     inkscape:window-x="0"
     inkscape:window-y="0"
     inkscape:window-maximized="1"
     inkscape:current-layer="svg1">
    <inkscape:page
       x="0"
       y="0"
       width="14.286894"
       height="11.906249"
       id="page2"
       margin="0"
       bleed="0" />
  </sodipodi:namedview>
  <defs
     id="defs1" />
  <ellipse
     style="fill:#8787de;fill-opacity:0.996078;stroke:none;stroke-width:5.1377;paint-order:markers stroke fill"
     id="path8"
     cx="7.2879548"
     cy="5.9531245"
     rx="6.2366071"
     ry="5.9531245" />
  <path
     style="fill:#ff00ff;fill-opacity:0.996078;stroke:#ffffff;stroke-width:0.550264;stroke-dasharray:none;stroke-opacity:1;paint-order:markers stroke fill"
     id="path19"
     d="M 3.0833519,3.296042 C 3.0888119,3.299492 2.9978589,3.256001 3.0191809,3.266119 3.2821599,3.3908981 4.0719652,3.7633908 3.8081073,3.6404804 3.4449876,3.4713319 3.1337981,3.2934181 2.7737413,3.1636142 2.6363538,3.1175724 2.4928377,3.1052963 2.3496734,3.0921597 2.2372945,3.0819972 2.1243939,3.0830113 2.0119555,3.0909321 1.9597349,3.1013911 1.9055928,3.1039501 1.8547919,3.1211831 1.8005462,3.1395831 1.748763,3.1691501 1.6981406,3.1954741 1.5827759,3.2448691 1.4741951,3.3081151 1.3677812,3.3742013 1.2619168,3.4363073 1.1748111,3.5213413 1.0913883,3.6100064 1.0089998,3.7012144 0.92369693,3.7894196 0.84544399,3.8842177 0.79057659,3.9518887 0.74012102,4.0235401 0.6981744,4.0999495 0.6436417,4.1913825 0.6031726,4.289793 0.55658497,4.385188 0.50816037,4.4950422 0.46199777,4.6056206 0.42527951,4.7199537 0.38946401,4.8448361 0.35716651,4.9707844 0.32738201,5.0972815 0.30482731,5.207897 0.28841641,5.320024 0.27933251,5.4325561 c -0.009369,0.1179076 -9.1169e-4,0.2360564 0.008521,0.3536397 0.009126,0.1264743 0.0201244,0.2528117 0.0306177,0.3791807 0.013745,0.1246767 0.0474721,0.2463601 0.0860159,0.3654012 0.041126,0.1162147 0.0894454,0.2299962 0.1411376,0.3419085 0.042294,0.1005913 0.10596219,0.1898343 0.17167804,0.2761868 0.0807062,0.098097 0.16592702,0.1923055 0.25270281,0.2850259 0.080733,0.091445 0.17700134,0.1640935 0.28188414,0.2251491 0.336638,0.1763408 0.101564,0.054148 0.9452689,0.4435767 0.01894,0.00874 0.075102,0.027224 0.095386,0.032663 0.032644,0.00875 0.065869,0.015193 0.098678,0.023309 0.095728,0.017709 0.1928269,0.025379 0.2894386,0.036659 0.016488,7.856e-4 0.033069,4.3e-4 0.049463,0.00236 0.017232,0.00202 0.034001,0.00708 0.051186,0.00946 0.056761,0.00789 0.066214,0.00482 0.1246948,0.010168 0.043805,0.004 0.087418,0.00991 0.1311853,0.01432 0.077268,0.00777 0.1548856,0.0084 0.2324382,0.00712 0.016609,-2.676e-4 0.033372,0.0014 0.049825,-8.931e-4 0.016727,-0.00232 0.032673,-0.00856 0.049008,-0.012846 0.089247,-0.021248 0.1675073,-0.070785 0.2433443,-0.1204865 0.055653,-0.043218 0.1147333,-0.083538 0.1608569,-0.1376058 0.027502,-0.032239 0.045486,-0.063148 0.068157,-0.0987 0.05305,-0.088906 0.095474,-0.1838534 0.1252819,-0.2829476 0.022162,-0.077108 0.034338,-0.15617 0.040732,-0.2359976 4.723e-4,-0.010227 9.345e-4,-0.020455 0.00141,-0.030683 0,0 -0.8957739,-0.3758222 -0.8957739,-0.3758222 v 0 c 6.548e-4,0.0096 0.00131,0.019203 0.00196,0.028804 0.00298,0.073954 -8.642e-4,0.1478349 -0.021594,0.2194161 C 3.0724307,7.28186 3.0382927,7.3703744 2.991067,7.450783 2.9341155,7.5335837 2.8608057,7.5984924 2.7715144,7.6456649 2.7012953,7.6866558 2.6286729,7.7224665 2.5472083,7.7344658 2.446413,7.7403585 2.3454353,7.7395348 2.2449006,7.7290464 2.121056,7.7167603 1.9982526,7.6988973 1.8749076,7.6826927 1.7810966,7.6723426 1.6866934,7.6621901 1.5956359,7.6361972 1.5472337,7.6226655 1.5007197,7.6069845 1.4537735,7.5890312 1.4390732,7.5834147 1.3955348,7.5652162 1.4097233,7.5720291 2.109126,7.9078503 2.4859218,8.0745565 2.1588601,7.9294068 2.05077,7.8778193 1.9453851,7.8194517 1.8613168,7.732302 1.7767471,7.6415387 1.6890941,7.5534221 1.6117972,7.4561551 1.5450282,7.3763276 1.4839644,7.2920481 1.43444,7.2002747 1.3999579,7.1319398 1.4181792,7.1660756 1.3796678,7.0979231 1.3504168,7.0412584 1.3285612,6.9820444 1.3056032,6.9227411 1.2984503,6.9042632 1.2907599,6.8859987 1.2833382,6.867628 1.2444946,6.7544416 1.2107148,6.6396333 1.1868812,6.5222717 1.1765327,6.3965167 1.1661785,6.2707792 1.1569733,6.144929 c -0.0061,-0.1126075 -0.01271,-0.2254718 -0.0076,-0.338254 0.00853,-0.1095163 0.023984,-0.2181868 0.03754,-0.3271631 0.021756,-0.124667 0.05653,-0.2455148 0.093669,-0.3663276 0.039275,-0.1092157 0.080521,-0.2179665 0.1288875,-0.3235178 0.04423,-0.094251 0.096127,-0.1846037 0.1528204,-0.2719296 0.042672,-0.070668 0.087572,-0.1400513 0.1345711,-0.207919 0.067992,-0.096245 0.1427206,-0.1876816 0.2276708,-0.2696018 0.083531,-0.078627 0.1728178,-0.1513037 0.2679683,-0.21552 0.1056432,-0.064813 0.2164146,-0.120752 0.3313665,-0.1672478 0.097175,-0.043612 0.1906314,-0.067307 0.2977498,-0.069638 0.1070502,-0.00283 0.2142617,-0.00458 0.3209912,0.00645 0.1371902,0.012797 0.2731703,0.034154 0.4013594,0.087622 0.02315,0.00963 0.046475,0.018842 0.069448,0.028883 0.022616,0.00989 0.089583,0.041491 0.067295,0.030888 C 2.0339228,2.9582205 3.3393166,3.5847989 3.8973895,3.8452281 Z" />
  <path
     style="fill:#00ff00;fill-opacity:0.996078;stroke:#ffffff;stroke-width:0.550264;stroke-dasharray:none;stroke-opacity:1;paint-order:markers stroke fill"
     id="path20"
     d="m 4.0868504,3.1522146 c 0.055998,0.1702751 0.049323,0.3531162 0.055359,0.5301058 0.015444,0.3076083 0.028118,0.6152683 0.031514,0.9232559 0.00123,0.2744953 0.022571,0.5481669 0.033984,0.8223198 0.00535,0.1292678 9.304e-4,0.2592412 0.010241,0.3883698 0.00201,0.027888 0.015251,0.1404697 0.018563,0.1692269 0.015083,0.1390223 0.027359,0.2783224 0.043814,0.4171948 0.023162,0.1363644 0.035921,0.2740136 0.051036,0.4113888 0.00812,0.089922 0.00958,0.1801915 0.017121,0.2701334 0.012504,0.1005462 0.024524,0.2011865 0.029879,0.3023982 0.00818,0.079695 0.00543,0.1592151 -3.444e-4,0.2388615 -0.00229,0.0331 -0.00556,0.065929 -0.00604,0.099121 0,0 0.9040928,0.3772966 0.9040928,0.3772966 v 0 c -0.00243,-0.032912 -0.00593,-0.065769 -0.00652,-0.098783 -0.00182,-0.085228 0.00136,-0.1705108 -0.01212,-0.2550304 C 5.2467046,7.6489706 5.242327,7.54941 5.2385598,7.4498288 5.2305475,7.3555868 5.2152961,7.2622236 5.202388,7.1685585 5.1852293,7.0308366 5.157759,6.8945688 5.1445203,6.7563133 5.1334494,6.6137077 5.1127678,6.4722944 5.0888209,6.3313046 5.062057,6.1419516 5.042161,5.9516904 5.0174532,5.7620612 4.9915998,5.4871553 4.9798609,5.2116287 4.9665801,4.9358796 4.9491356,4.6322159 4.9274008,4.3280585 4.9542368,4.0240421 c 0.00635,-0.1658151 0.00657,-0.33378 0.047542,-0.4956692 z" />
  <path
     style="fill:#ff2a2a;fill-opacity:0.996078;stroke:#ffffff;stroke-width:0.550264;stroke-dasharray:none;stroke-opacity:1;paint-order:markers stroke fill"
     id="path21"
     d="m 7.0012175,7.1038301 c 0.1322939,-0.013201 0.2647949,-0.023639 0.3974419,-0.033104 0.2393976,-0.024824 0.4798617,-0.021451 0.7201187,-0.022534 0.022551,-0.00332 0.045992,-0.00287 0.067651,-0.00996 C 8.2948978,7.0026623 8.2981978,6.8803784 8.2999706,6.7864141 8.2995325,6.65707 8.2650123,6.5325576 8.2224593,6.4115327 8.1827027,6.2988015 8.1203298,6.197974 8.0475872,6.1039747 7.981866,6.025795 7.9037504,5.9532663 7.8107562,5.9083929 7.513783,5.7650914 7.2153724,5.6247879 6.9176805,5.4829854 6.8247104,5.4433348 6.727805,5.4241229 6.6274368,5.4184621 6.5369564,5.4135643 6.449238,5.4285397 6.3661814,5.4639981 6.2641748,5.5294061 6.1864302,5.626408 6.1081476,5.71749 6.027725,5.8105894 5.9609848,5.9135896 5.9102821,6.0255053 c -0.049552,0.1049662 -0.074244,0.2186108 -0.097109,0.3317049 -0.018571,0.1112681 -0.026032,0.2240204 -0.033885,0.3364441 -0.00679,0.096593 -0.010435,0.1932279 -0.0058,0.2899723 0.00351,0.1000778 0.018672,0.1981825 0.044001,0.2948937 0.029731,0.1051919 0.083885,0.2009016 0.1466485,0.2896169 0.051976,0.06858 0.1098376,0.1331868 0.1748273,0.1896651 0.286983,0.2075657 0.710192,0.3519763 0.9679435,0.4727276 0.047061,0.022048 0.1006959,0.033522 0.1508427,0.045676 0.056675,0.017271 0.1155118,0.02049 0.1737609,0.027774 0.054855,0.00686 0.1083193,0.015376 0.1635689,0.019392 0.089819,0.010141 0.1773504,-0.00972 0.2656601,-0.022569 0.065549,-0.018244 0.1312782,-0.034688 0.1924765,-0.064933 0.02688,-0.017031 0.053618,-0.032242 0.078903,-0.051563 0,0 -0.8586784,-0.4619044 -0.8586784,-0.4619044 v 0 c -0.020948,0.013275 -0.041836,0.026971 -0.065459,0.035153 -0.056964,0.01976 -0.1149328,0.037558 -0.1744597,0.047734 -0.080319,0.013588 -0.1606986,0.020247 -0.2420055,0.00946 C 6.6822628,7.8027443 6.5725122,7.7898709 6.4679293,7.7540966 6.4162499,7.73583 6.4148261,7.7362855 6.3641151,7.7144701 6.3484186,7.7077171 6.302004,7.6859609 6.3174191,7.6933294 7.7153158,8.3615948 7.3493016,8.1879272 7.058369,8.0460962 6.9841458,8.0021671 6.924097,7.9435234 6.8653991,7.8808264 6.8017777,7.8003045 6.7343202,7.7205648 6.7012378,7.6215263 6.6732534,7.5328411 6.6625064,7.4432578 6.6602139,7.3503762 6.6533354,7.2553858 6.6434771,7.1603136 6.6469256,7.0649414 6.6527386,6.9562146 6.6694398,6.8486584 6.6807063,6.7404359 6.697319,6.6341352 6.719749,6.5278635 6.7647894,6.4295198 6.8138544,6.3266905 6.8698778,6.2272425 6.9453654,6.1410692 7.0143701,6.0580785 7.0942925,5.9775259 7.1995633,5.9437475 7.2771103,5.9246645 7.3557724,5.9191408 7.4350993,5.9318191 7.5268177,5.9472637 7.615463,5.9751926 7.6992936,6.015926 7.4356152,5.8897982 7.1722183,5.7630805 6.9082589,5.6375427 c -0.018441,-0.00877 0.036305,0.0187 0.054449,0.028067 0.070545,0.03642 0.137282,0.074174 0.1917072,0.1335665 0.075535,0.084353 0.1418062,0.1761515 0.1876123,0.2803462 0.047237,0.10721 0.085401,0.2189762 0.083987,0.337728 -0.00101,0.1012495 0.0089,0.1270286 -0.09676,0.1487361 -0.2274138,0.035042 -0.4583236,0.035164 -0.687925,0.037884 -0.1609617,-0.00158 -0.3220199,-0.00245 -0.4826493,-0.013294 z" />
  <path
     style="fill:#0088aa;fill-opacity:0.996078;stroke:#ffffff;stroke-width:0.550264;stroke-dasharray:none;stroke-opacity:1;paint-order:markers stroke fill"
     id="path22"
     d="M 9.337391,6.3642525 C 9.317934,6.2921815 9.331711,6.2151903 9.341751,6.1425336 9.351964,6.0660246 9.381754,5.9959588 9.417213,5.928179 9.457198,5.865341 9.509519,5.8103118 9.5721375,5.7700159 c 0.071951,-0.046182 0.1527681,-0.073733 0.2356683,-0.092345 0.087556,-0.016795 0.1766134,-0.023398 0.2654632,-0.028921 0.05349,6.548e-4 0.104509,0.015441 0.153802,0.035003 0.01303,0.00517 0.05157,0.021941 0.03888,0.015992 C 9.9932596,5.5718425 9.7199892,5.4451692 9.4470057,5.3178816 c 0.098111,0.03728 0.1697324,0.1072165 0.2387839,0.1833523 0.1236262,0.1612698 0.2143526,0.3463522 0.2955559,0.531905 0.061675,0.1437986 0.096801,0.2957764 0.1176645,0.4502159 0.02039,0.1166594 0.0048,0.2349075 -0.0066,0.3516442 -0.01167,0.1744062 -0.0014,0.3492849 0.0079,0.5235477 0.0089,0.158883 0.0059,0.3180902 0.0069,0.4771633 3.62e-4,0.057846 0.0019,0.1156583 0.002,0.1735062 3.3e-5,0.015455 0.0071,0.069355 -0.0093,0.081653 0.307233,0.1141501 0.616067,0.2240825 0.921699,0.3424512 0.0081,0.00315 -0.01908,0.010281 -0.0256,0.00459 -0.01126,-0.00986 -0.01171,-0.027571 -0.01674,-0.04167 C 10.95822,8.3370466 10.945118,8.2763712 10.932625,8.2149369 10.904948,8.0509226 10.875472,7.8872917 10.844042,7.7239416 10.818487,7.5733085 10.767135,7.434606 10.683127,7.3073133 10.434577,7.013232 10.064081,6.9528677 9.6922227,6.7791629 c -0.056434,-0.026362 -0.1540706,-0.034619 -0.21609,-0.04319 -0.092143,-0.0113 -0.1880612,-0.00611 -0.2755427,0.027434 -0.052176,0.020008 -0.0759,0.03732 -0.1234466,0.066152 -0.077027,0.054973 -0.1484021,0.1222555 -0.2055323,0.1981437 -0.022572,0.029985 -0.060056,0.092798 -0.079741,0.1249016 -0.075161,0.11503 -0.1052122,0.2462977 -0.1244416,0.3801401 -0.017362,0.1252819 -0.00312,0.2472339 0.030166,0.3682757 0.031301,0.090078 0.08654,0.1859644 0.1775661,0.2281235 0.3011709,0.1394883 0.6056001,0.2718324 0.9084,0.4077476 0.1663168,0.022538 0.3284654,-0.00782 0.4862444,-0.058923 0.116581,-0.053299 0.225007,-0.1216248 0.336955,-0.1834169 0.0425,-0.019561 0.08303,-0.042803 0.125172,-0.063118 0,0 -0.8578883,-0.4681188 -0.8578883,-0.4681188 v 0 c -0.033245,0.027185 -0.069016,0.050475 -0.1041881,0.075071 -0.094762,0.06813 -0.194682,0.1312928 -0.3039693,0.1734105 -0.1615753,0.046599 -0.2946148,0.061954 -0.4597801,0.012901 0.2567043,0.1230186 0.5151413,0.2424852 0.7701131,0.3690558 0.017458,0.00866 -0.038643,-0.00716 -0.056558,-0.014843 C 9.6593653,8.3530637 9.6142743,8.2924507 9.580418,8.239455 9.535298,8.1258734 9.519138,8.0305283 9.530429,7.9078073 9.541495,7.7867381 9.567118,7.6665456 9.6301,7.560923 9.69852,7.4498973 9.7812227,7.3479506 9.8968857,7.2832691 c 0.018372,-0.00871 0.03617,-0.018743 0.055116,-0.026116 0.098736,-0.038428 0.2044073,-0.034394 0.3070473,-0.016552 0.05981,0.012782 0.0789,0.014688 0.137265,0.036256 0.0229,0.00846 0.08923,0.039572 0.06731,0.028834 C 10.206986,7.1799772 9.9492631,7.0564916 9.6920824,6.931892 c 0.018584,0.010033 0.038003,0.018649 0.055749,0.030098 0.017759,0.011457 0.033632,0.025605 0.050448,0.038407 0.035041,0.041133 0.051188,0.057338 0.080684,0.1032203 0.054985,0.085532 0.08614,0.1840471 0.1123957,0.2814791 0.033585,0.1587543 0.060315,0.3194189 0.07482,0.4811052 0.01457,0.1333333 8.18e-4,0.00451 0.01321,0.1287188 2.93e-4,0.00294 0.0088,0.076478 0.0075,0.08648 -0.0023,0.017759 -0.0302,0.044747 -0.0138,0.051924 0.303402,0.1327174 0.620124,0.2326221 0.930186,0.3489339 -0.0069,-0.064705 0.0026,0.015302 -0.01052,-0.063506 -0.01232,-0.074216 -0.01615,-0.1496317 -0.02335,-0.2244053 -0.01177,-0.1623461 -0.01692,-0.3251013 -0.02922,-0.4874085 -0.0076,-0.1659676 -0.01303,-0.3330368 0.01296,-0.4978419 0.01726,-0.1238667 0.03782,-0.2509513 0.01832,-0.3755524 C 10.938741,6.6656729 10.890139,6.5018564 10.819731,6.345596 10.740061,6.1653562 10.658874,5.9859055 10.572334,5.8088739 10.519882,5.721477 10.456939,5.6384416 10.366133,5.5879907 10.066865,5.4480949 9.768632,5.3059603 9.4683273,5.1683028 9.4076175,5.1404737 9.3170222,5.1442463 9.2521103,5.1496816 9.1615953,5.1608097 9.070578,5.1714 8.9823043,5.1951621 8.8918676,5.2231537 8.8042802,5.2621255 8.7264107,5.3164902 8.6568873,5.3723474 8.5939088,5.4357083 8.5492071,5.5137039 8.5101691,5.5914905 8.475571,5.671561 8.4638501,5.7586741 8.4527422,5.8356984 8.443577,5.9136004 8.4249477,5.9891248 Z" />
  <path
     id="path23"
     style="fill:#784421;fill-opacity:0.996078;stroke:#ffffff;stroke-width:0.550264;stroke-dasharray:none;stroke-opacity:1;paint-order:markers stroke fill"
     d="m 11.337501,5.0303278 c 0.0078,0.034529 0.01655,0.068657 0.02902,0.1018515 0.01556,0.1000101 0.06012,0.1930703 0.08079,0.292067 0.05091,0.2108354 0.08338,0.4252054 0.09834,0.6416441 0.01206,0.214797 0.02153,0.4300129 0.02293,0.6451869 0.0021,0.2689286 0.0065,0.5376268 0.0086,0.8065614 0.0031,0.1083776 0.004,0.1550468 0.0094,0.2615859 0.0043,0.084642 0.01379,0.1702001 0.01303,0.2550655 -1.58e-4,0.014089 -0.0022,0.028221 -0.0033,0.042264 l 0.909176,0.3605116 C 12.430617,8.2495584 12.40073,8.0490695 12.380426,7.8494429 c -0.02149,-0.2638575 -0.0073,-0.5284974 0.0066,-0.7922416 0.01323,-0.2169059 -2.2e-4,-0.434089 -0.0161,-0.6504088 -0.0036,-0.034178 -0.0071,-0.068125 -0.01093,-0.1022866 0.125487,-0.014323 0.255657,-0.014197 0.363916,-0.019754 0.06464,-0.068605 0.143707,-0.1185325 0.22571,-0.1635349 0.0789,-0.047055 0.166521,-0.061771 0.255707,-0.075242 0.09143,-0.00745 0.184118,-0.017417 0.27448,0.00256 0.02948,0.00548 0.05214,0.014967 0.0717,0.027349 -1.055322,-0.9124057 -0.157684,-0.1341834 0.171211,0.1416125 0.01769,0.014834 0.03829,0.025643 0.05756,0.03835 0.315679,0.2386843 0.277494,-0.126955 0.06952,-0.2099336 0.02973,-0.036126 -0.0016,-0.013346 -0.06585,-0.0833 l -0.127121,-0.077282 -0.139531,-0.058123 c -0.04381,-0.02665 -0.02038,-0.012628 -0.06935,-0.043094 -0.05735,-0.035276 -0.114172,-0.070969 -0.168222,-0.1112658 -0.01448,-0.010804 -0.04801,-0.038152 -0.05986,-0.047496 -0.03048,-0.026347 -0.0624,-0.053958 -0.09537,-0.082455 -0.06017,-0.048683 -0.118875,-0.071363 -0.196835,-0.0742 -0.0938,-0.00214 -0.186813,0.00998 -0.279804,0.021209 -0.09965,0.014097 -0.196175,0.035979 -0.281832,0.091886 -0.02824,0.01732 -0.05612,0.035132 -0.08323,0.053952 -0.0039,-0.047196 -0.0076,-0.094085 -0.01507,-0.1408353 -0.004,-0.036325 -0.01356,-0.071672 -0.02219,-0.1070733 z m 2.213906,1.0455529 c 0.02888,0.024968 0.05905,0.051125 0.09091,0.078671 -0.03439,-0.030048 -0.05852,-0.058168 -0.09091,-0.078671 z"
     sodipodi:nodetypes="cccccccccccccccccccsscccccccccccccccccc" />
</svg>
