<?xml version="1.0" encoding="UTF-8" standalone="no"?>
<!-- Created with Inkscape (http://www.inkscape.org/) -->

<svg
   width="53.149639"
   height="45"
   viewBox="0 0 14.062508 11.906249"
   version="1.1"
   id="svg1"
   inkscape:export-filename="clear.svg"
   inkscape:export-xdpi="96"
   inkscape:export-ydpi="96"
   xmlns:inkscape="http://www.inkscape.org/namespaces/inkscape"
   xmlns:sodipodi="http://sodipodi.sourceforge.net/DTD/sodipodi-0.dtd"
   xmlns="http://www.w3.org/2000/svg"
   xmlns:svg="http://www.w3.org/2000/svg">
  <sodipodi:namedview
     id="namedview1"
     pagecolor="#505050"
     bordercolor="#eeeeee"
     borderopacity="1"
     inkscape:showpageshadow="0"
     inkscape:pageopacity="0"
     inkscape:pagecheckerboard="0"
     inkscape:deskcolor="#505050"
     inkscape:document-units="px">
    <inkscape:page
       x="0"
       y="0"
       width="14.062508"
       height="11.906249"
       id="page2"
       margin="0"
       bleed="0" />
  </sodipodi:namedview>
  <defs
     id="defs1" />
  <ellipse
     style="fill:#8787de;fill-opacity:0.996078;stroke:none;stroke-width:5.1377;paint-order:markers stroke fill"
     id="path8"
     cx="7.2921982"
     cy="5.9531245"
     rx="6.2366071"
     ry="5.9531245" />
  <g
     id="g32"
     transform="matrix(0.8318198,-0.09131709,0.09131709,0.8318198,0.01795174,-0.1212813)">
    <path
       style="fill:#2b0022;fill-opacity:0.996078;stroke:#ffffff;stroke-width:0.550264;stroke-dasharray:none;stroke-opacity:1;paint-order:markers stroke fill"
       id="path26-5"
       d="M 12.90248,11.215424 C 12.89458,10.887071 12.85373,10.560693 12.81771,10.234556 12.78603,9.9805271 12.75927,9.7258995 12.72737,9.4718987 12.70826,9.3197893 12.68554,9.1681419 12.66718,9.015941 12.60928,8.5353287 12.565311,8.0534486 12.525711,7.5710648 c -0.02993,-0.3791431 -0.02579,-0.7593919 -0.02228,-1.139249 0,0 -0.730247,-0.2621986 -0.730247,-0.2621986 v 0 c 0.0394,0.3919357 0.07791,0.7839569 0.115999,1.1760232 0.0861,0.8696563 0.168602,1.742162 0.171018,2.6167559 -0.0023,0.09318 -0.0044,0.1863647 -0.0068,0.2795377 -0.0055,0.207333 0.001,0.428618 -0.07629,0.624795 z" />
    <path
       style="fill:#ff7f2a;fill-opacity:0.996078;stroke:#ffffff;stroke-width:0.550264;stroke-dasharray:none;stroke-opacity:1;paint-order:markers stroke fill"
       id="path24"
       d="m -0.70347418,8.7433801 c -0.008759,0.081929 -0.0189288,0.1619718 -0.009977,0.2441715 0.29781823,0.1503839 0.58472781,0.3246657 0.8934547,0.4511519 0.0260598,0.010676 0.0406702,-0.039206 0.0581751,-0.061267 0.0249248,-0.031412 0.0479141,-0.064455 0.0687623,-0.098709 C 0.41768706,9.09677 0.49317361,8.8936409 0.57638519,8.6985234 0.79349403,8.1098364 0.98229737,7.5111842 1.1561785,6.9084679 1.2452734,6.5847285 1.3437842,6.2638985 1.4443495,5.9436177 c 0.00232,-0.00704 0.027711,-0.085069 0.033526,-0.099845 0.00288,-0.00731 0.012634,-0.028689 0.010317,-0.021185 C 1.3744089,6.1910531 1.0844223,5.6236421 0.62020566,5.3905936 c -0.0172926,-0.00868 0.002146,0.03864 0.003217,0.057959 0.007677,0.3210914 0.0532452,0.6390407 0.10751621,0.9550333 0.0466299,0.2900571 0.11386618,0.5758531 0.17778276,0.8623543 -0.001003,0.064048 0.0494456,0.1262403 0.0475265,0.1901261 -2.6722e-4,0.0089 -0.01471,0.021976 -0.006698,0.025863 C 1.2456075,7.6255797 1.5490788,7.7534178 1.8488429,7.8891618 1.8373781,7.6114639 1.9057556,7.3775828 1.9927319,7.1159615 2.1069953,6.8383414 2.25539,6.5750614 2.4366801,6.3355249 2.5160745,6.2306224 2.6047581,6.1346577 2.6920645,6.0365502 2.7901371,5.9343483 2.8937537,5.8372944 3.0026496,5.7466839 c 0.015637,-0.01301 0.098123,-0.081717 0.12748,-0.091862 0.010798,-0.00373 0.022722,0.00243 0.034084,0.00364 0.045484,0.3561252 0.010798,-0.00279 -0.8108651,-0.4341111 -0.016748,-0.00879 0.012896,0.036001 0.014578,0.054842 0.00278,0.031092 5.98e-4,0.062482 -0.00132,0.093639 -0.0043,0.069922 -0.025595,0.2433614 -0.032465,0.3025778 -0.065545,0.5278469 -0.1553375,1.0522216 -0.2378744,1.5775573 -0.06746,0.3905329 -0.11243,0.7845615 -0.1439439,1.1795008 -0.012852,0.1817994 -0.021598,0.3647664 -0.00363,0.5464606 0.00576,0.052043 0.01125,0.1035505 0.024979,0.1541372 0,0 0.8851581,0.4166793 0.8851581,0.4166793 v 0 C 2.8402798,9.5006379 2.8187485,9.453255 2.8115667,9.4004503 2.7677459,9.2183926 2.7507639,9.0309801 2.7521458,8.8437458 2.7505054,8.4391617 2.7659491,8.0347591 2.8159947,7.6328692 2.8346214,7.4936502 2.8704158,7.2172641 2.8936232,7.0801615 2.9499207,6.7475729 3.0266684,6.4177796 3.1144884,6.0922707 3.1500619,5.9665584 3.1887371,5.840643 3.2198619,5.7136906 3.2258309,5.6893463 3.2549633,5.6551039 3.2349431,5.6400235 2.449008,5.0480244 2.6850869,4.9334987 2.3543361,5.1165639 2.3036811,5.1620741 2.2622804,5.2137858 2.2176558,5.2652645 2.125406,5.3716839 2.0324916,5.4775616 1.9449162,5.5879339 1.8637336,5.6918858 1.7794639,5.7971367 1.7039334,5.9052682 1.5284526,6.1564911 1.377423,6.4235107 1.2450635,6.6997071 1.1436344,6.9307693 1.0429671,7.1654455 0.98332554,7.4113788 1.2794596,7.5576672 1.5789772,7.6972968 1.8717277,7.8502437 c 0.00784,0.0041 -0.014454,0.015637 -0.022978,0.013274 C 1.8203809,7.8556528 1.7710881,7.6892921 1.7527997,7.6666374 1.6521583,7.3774907 1.5556827,7.0864375 1.5071182,6.7829824 1.459241,6.4894105 1.4178794,6.1889396 1.4777872,5.8935485 1.5735695,5.5242519 1.5202764,5.7944811 0.64687428,5.3070901 0.61981339,5.291989 0.61999045,5.4309844 0.61981239,5.4338125 c -0.001381,0.021923 -0.003313,0.043809 -0.00497,0.065714 -0.0368069,0.3447182 -0.0836657,0.6891533 -0.16268399,1.0270126 -0.14494803,0.6034103 -0.31832883,1.205104 -0.59308842,1.7637571 -0.10082187,0.1755664 -0.19788368,0.3632001 -0.34197572,0.5090903 -0.0248155,0.025125 -0.052543,0.047805 -0.0826088,0.066329 -0.0166217,0.010242 -0.0719438,0.00825 -0.0554865,0.018754 0.26515838,0.1692224 0.54607085,0.31239 0.81910627,0.4685852 -0.0120391,0.00473 -0.0233911,0.016499 -0.0361172,0.014187 -0.0308209,-0.0056 -0.005091,-0.1332556 0.004407,-0.153452 z" />
    <path
       style="fill:#008000;fill-opacity:0.996078;stroke:#ffffff;stroke-width:0.550264;stroke-dasharray:none;stroke-opacity:1;paint-order:markers stroke fill"
       id="path25"
       d="m 3.0345174,7.6178112 c -0.025157,0.1627746 -0.057322,0.3243141 -0.082713,0.4870656 -0.025225,0.1670738 -0.02976,0.3363418 -0.026339,0.504989 0.00427,0.1059725 0.024284,0.21068 0.078198,0.3026357 0.036843,0.05404 0.074654,0.1073438 0.132489,0.1407988 C 3.4249126,9.2203362 3.7145866,9.3857868 4.0038034,9.55203 4.0665704,9.588258 4.1368909,9.611324 4.2093952,9.613189 4.3443603,9.5901515 4.4257139,9.4661593 4.5020684,9.3637848 4.6135593,9.2145461 4.6909057,9.0447328 4.7721423,8.8781414 4.8487548,8.7263309 4.898832,8.5634772 4.9655951,8.4075831 c 0.00711,-0.01084 0.011843,-0.023696 0.021344,-0.03252 0.00279,-0.00259 0.00747,0.00153 0.01121,0.00228 C 4.7093194,8.2276321 4.4247045,8.069497 4.1316597,7.9282188 c -0.011306,-0.00545 0.00819,0.023863 0.010128,0.036265 0.00678,0.043506 0.00467,0.086513 0.00453,0.130338 -0.00849,0.1783778 -0.020555,0.3565588 -0.029974,0.5348866 -0.00678,0.1021953 -0.013269,0.2044406 -0.021497,0.3065227 4.762e-4,0.073883 -0.00622,0.1471718 -0.012044,0.2207598 0,0 0.8563438,0.4469664 0.8563438,0.4469664 v 0 c 0.00891,-0.074829 0.03141,-0.1479962 0.02738,-0.2232731 -0.00746,-0.1065641 -0.011332,-0.2134759 -0.011877,-0.3202908 0.00254,-0.1761418 0.0086,-0.3525266 0.035764,-0.5269081 0.00669,-0.042609 0.011359,-0.085526 0.018418,-0.1280758 0.00246,-0.014811 0.022286,-0.036161 0.0095,-0.04403 C 4.0527459,7.7671529 4.2280151,7.5622265 4.1282254,7.9448468 4.0838463,8.10566 4.0339634,8.2660604 3.9590135,8.4156127 3.8790668,8.5749525 3.8036536,8.7385697 3.693479,8.8799538 3.6243852,8.9583276 3.543995,9.0586451 3.4278194,9.0253944 3.3636495,9.0044289 3.3031041,8.9764785 3.2447891,8.9423179 3.5110541,9.096489 3.7773871,9.2505424 4.0435839,9.4048315 4.054781,9.4113217 4.0213271,9.3915812 4.0097894,9.3857154 3.9651315,9.3630194 3.9223947,9.3445369 3.8968737,9.2979123 3.8246515,9.2219378 3.7897575,9.1402829 3.7738182,9.0357642 3.7574722,8.8712022 3.7633565,8.707015 3.782097,8.5426717 3.8010517,8.3917521 3.8235365,8.2344501 3.894969,8.0982985 Z" />
    <path
       style="fill:#000080;fill-opacity:0.996078;stroke:#ffffff;stroke-width:0.550264;stroke-dasharray:none;stroke-opacity:1;paint-order:markers stroke fill"
       id="path26"
       d="m 5.7636299,10.075108 c 0.036493,-0.3264132 0.040056,-0.6553193 0.048392,-0.9833331 0.00286,-0.2559801 0.010747,-0.5118901 0.01342,-0.7678728 0.00159,-0.1532962 -4.498e-4,-0.3066233 0.00193,-0.4599096 0.00745,-0.484029 0.02897,-0.9674346 0.054838,-1.4507492 0.021521,-0.379713 0.076944,-0.7559243 0.1316854,-1.1318321 0,0 -0.6881761,-0.3583606 -0.6881761,-0.3583606 v 0 C 5.3118542,5.3167177 5.2971039,5.71035 5.2819282,6.1039692 5.2498607,6.9772881 5.2138446,7.8529461 5.0981981,8.7198632 5.0833603,8.8118821 5.0687315,8.9039346 5.0536873,8.9959199 5.0202109,9.2006068 4.9968503,9.4207533 4.8937691,9.6047001 Z" />
    <path
       id="path28"
       style="fill:#008066;fill-opacity:0.996078;stroke:#ffffff;stroke-width:0.550264;stroke-dasharray:none;stroke-opacity:1;paint-order:markers stroke fill"
       d="M 6.8042353,5.4027706 C 6.7894663,5.5498789 6.7688002,5.6964731 6.7494582,5.8430538 6.7248252,6.027924 6.7015364,6.2130145 6.6745274,6.3975418 6.660388,6.497387 6.6465005,6.5974474 6.6321528,6.6972651 6.4220964,6.66962 6.2127499,6.6369034 6.0048009,6.5949458 5.9247208,6.5787877 5.9061942,6.5708758 5.8409866,6.5494705 l 0.7369059,0.5637899 c -0.021514,0.1619024 -0.055276,0.3218655 -0.081132,0.4831746 -0.027325,0.1512245 -0.055251,0.3026074 -0.06873,0.4557861 -0.0082,0.1499983 -0.019509,0.2994921 -0.025838,0.4495849 -0.00645,0.1331222 -0.010782,0.2663781 -0.024805,0.398942 -0.016555,0.1063366 -0.023424,0.2130766 -0.01602,0.3203939 0.00675,0.1081961 0.03167,0.2091135 0.08785,0.3017904 0.2780514,0.2848007 0.085943,0.096363 0.9260416,0.5529377 0.021003,0.01141 0.1509292,0.0247 0.1705322,0.0248 0.091706,4.5e-4 0.1105763,-0.01113 0.199471,-0.03514 0.121286,-0.04769 0.2194196,-0.131223 0.3126428,-0.219624 L 7.2502028,9.3508497 c -0.00796,0.00851 -0.016161,0.017083 -0.024288,0.025321 0.0011,-0.00996 0.0023,-0.020004 0.00362,-0.029972 0.013817,-0.1372785 0.00665,-0.2741153 0.011369,-0.4118611 0.00838,-0.1479468 0.025301,-0.2947481 0.035657,-0.4423502 0.00741,-0.1539724 0.020961,-0.3077531 0.046509,-0.4599203 0.026313,-0.2144977 0.062694,-0.4274271 0.093018,-0.6413044 0.012437,-0.070891 0.025098,-0.1414255 0.037207,-0.2123901 0.1403032,0.0074 0.2803737,0.015422 0.4206461,0.023254 0.3752884,0.021363 0.7503425,0.049868 1.1249959,0.080099 L 8.3674472,6.818188 C 8.0823796,6.8139574 7.7971975,6.8075999 7.5127191,6.7887324 7.5342508,6.6193462 7.5515532,6.4491955 7.5762811,6.2802363 7.5996861,6.143356 7.6142546,6.000492 7.6739496,5.8735428 Z M 7.3292678,9.892935 c 0.1183069,0.06815 0.1501066,0.08582 0.0093,0.0067 -0.00309,-0.0024 -0.00607,-0.0045 -0.0093,-0.0067 z" />
    <path
       style="fill:#ff0000;fill-opacity:0.996078;stroke:#ffffff;stroke-width:0.550264;stroke-dasharray:none;stroke-opacity:1;paint-order:markers stroke fill"
       id="path29"
       d="m 9.0396708,10.031386 c -0.013629,-0.1653643 0.011655,-0.3329062 0.03098,-0.4970685 0.032818,-0.2290841 0.064505,-0.4582368 0.093283,-0.6878687 0.00574,-0.11484 0.027201,-0.2265979 0.052755,-0.338197 0.017568,-0.055002 0.015203,-0.1127313 0.0157,-0.1696908 2.49e-4,-0.044307 -3.175e-4,-0.0229 0.00151,-0.064228 0,0 -0.8724908,-0.4450405 -0.8724908,-0.4450405 v 0 c 0.00143,0.041738 0.00116,0.020413 6.615e-4,0.063981 -0.00132,0.052583 -0.00496,0.1050055 -0.00895,0.1574498 -0.011835,0.1215599 -0.016706,0.2431434 -0.016838,0.365289 -0.00988,0.2316803 -0.040856,0.4609108 -0.077138,0.6898224 -0.028135,0.1597324 -0.054631,0.3208491 -0.1008887,0.476441 z" />
    <path
       style="fill:#c87137;fill-opacity:0.996078;stroke:#ffffff;stroke-width:0.550264;stroke-dasharray:none;stroke-opacity:1;paint-order:markers stroke fill"
       id="path30"
       d="m 9.4683699,7.9162772 c 0.1079819,0.3080855 0.1163514,0.641495 0.1357821,0.9642352 0.015433,0.39273 0.035062,0.7852422 0.054857,1.1777676 0.00391,0.176056 0.00889,0.352188 0.010641,0.528296 -0.0075,0.06557 0.028296,0.132404 0.015682,0.197076 0.062432,-0.368832 -0.014464,-0.0071 0.929383,0.271862 0.01695,0.005 -0.01215,-0.03327 -0.016,-0.05052 -0.0064,-0.0292 -0.01132,-0.05878 -0.01478,-0.08848 -0.01416,-0.120224 -0.01103,-0.161413 -0.01286,-0.288726 0.0149,-0.410914 0.05003,-0.8208459 0.07199,-1.2314655 0.0096,-0.1638338 0.01178,-0.32796 0.01838,-0.4919075 0.0018,-0.044875 0.0064,-0.1724216 0.01657,-0.2230896 0.0047,-0.023473 0.01526,-0.045403 0.02288,-0.068104 0.01355,-0.015079 0.02421,-0.03337 0.04065,-0.045233 0.114759,-0.082822 0.348239,-0.061501 0.480531,-0.047587 0.325927,0.091725 0.425694,0.1218449 -0.684903,-0.2432331 -0.028,-0.0092 0.05389,0.024244 0.07909,0.03952 0.07354,0.044563 0.124368,0.1053517 0.176261,0.1721379 0.08006,0.1207517 0.119274,0.2583261 0.138333,0.4002932 0.01499,0.1108713 -0.02329,0.2033361 -0.07753,0.2968435 -0.05527,0.090832 -0.132241,0.1587393 -0.214522,0.2238254 -0.09622,0.060068 -0.203277,0.103247 -0.310021,0.1412584 -0.06648,0.012718 -0.145711,0.059828 -0.213763,0.039739 -0.02927,-0.0063 -0.01501,-0.00316 -0.04279,-0.00952 0,0 0.876983,0.4507053 0.876983,0.4507053 v 0 c 0.02928,-0.0018 0.01384,-2.84e-4 0.04628,-0.0047 0.07023,-0.02532 0.143094,-0.0437 0.210887,-0.07574 C 11.315607,9.902703 11.427325,9.855953 11.523206,9.7830197 11.615466,9.7101317 11.694528,9.6267263 11.75514,9.52507 11.81438,9.4131737 11.860775,9.2973959 11.84511,9.1678843 11.824559,9.011404 11.782279,8.8595341 11.705121,8.7206915 11.651321,8.6332655 11.554844,8.4922315 11.454946,8.4541433 10.562636,8.1139372 10.821914,8.156407 10.39529,8.097978 10.225544,8.095508 9.9871033,8.090918 9.8589064,8.2237724 c -0.021924,0.022721 -0.033419,0.053577 -0.050129,0.080365 -0.00554,0.030523 -0.014809,0.060601 -0.016624,0.091571 -0.00112,0.019001 0.012877,0.2295702 0.013153,0.2353154 0.00797,0.1660682 0.012819,0.3324717 0.012129,0.4987297 -0.00301,0.4089088 -0.028512,0.817876 -0.094121,1.2219205 -0.015724,0.12252 -0.031546,0.244624 -0.044403,0.367414 -0.00201,0.01922 -0.025029,0.04946 -0.00745,0.05749 0.9302206,0.425343 0.8227696,0.677243 0.9500186,0.31361 6.22e-4,-0.07455 -0.01487,-0.146689 -0.02934,-0.219649 -0.03587,-0.181422 -0.05442,-0.365731 -0.07985,-0.548773 -0.05601,-0.3943229 -0.08303,-0.7918321 -0.104932,-1.1893623 -0.01393,-0.3107523 -0.01903,-0.6219664 0.0086,-0.9321665 z" />
    <path
       id="path31"
       style="fill:#ff8080;fill-opacity:0.996078;stroke:#ffffff;stroke-width:0.550264;stroke-dasharray:none;stroke-opacity:1;paint-order:markers stroke fill"
       d="m 12.811636,8.2237153 c 0.06116,0.031816 0.10404,0.087638 0.15955,0.1280246 0.177808,0.1751842 0.360855,0.3463205 0.521365,0.5379558 0.203977,0.2491969 0.405855,0.501985 0.55965,0.7863582 0.07783,0.1424764 0.159332,0.2886377 0.172739,0.4538761 l 0.389913,0.07244 c -0.02845,0.250987 -0.07301,0.50007 -0.142628,0.743603 -0.02821,0.07406 -0.05039,0.150409 -0.08425,0.222064 -0.09707,0.20541 -0.257095,0.391559 -0.483745,0.453104 -0.03119,0.0085 -0.06396,0.01054 -0.09628,0.01333 l -0.434316,-0.06041 c 0.06241,0.05322 0.113794,0.118784 0.188126,0.157307 0.0275,0.01425 0.05603,0.02813 0.08626,0.03489 0.3333,0.07453 0.668581,0.139165 1.002921,0.208882 0.03855,-0.0143 0.07891,-0.02419 0.115612,-0.04277 0.218669,-0.10999 0.369447,-0.315618 0.450243,-0.542894 0.02799,-0.07874 0.04319,-0.161484 0.06484,-0.242198 0.07747,-0.396029 0.09477,-0.799764 0.146061,-1.1993617 0.02104,-0.1639246 0.04504,-0.3025588 0.07158,-0.4640149 0.02739,-0.1228774 0.0474,-0.247888 0.0812,-0.3693323 0.01372,-0.049311 0.03181,-0.093673 0.04099,-0.1441014 -4.66e-4,-0.1520499 -0.0067,-0.3041092 -0.0075,-0.4563023 4.36e-4,-0.029614 8.97e-4,-0.059141 0.0013,-0.088744 L 14.695988,8.2279757 c 0.0012,0.029535 0.0029,0.059243 0.0041,0.088769 -5.53e-4,0.1467244 -0.01028,0.2917548 -0.02716,0.4374363 -0.0067,0.1806071 -0.0077,0.3608951 -0.0082,0.5417628 -5.11e-4,0.033776 -0.0012,0.067495 -0.0019,0.1013181 -0.09267,-0.1291 -0.189445,-0.2551922 -0.289157,-0.3791141 -0.146709,-0.1870057 -0.312266,-0.3577591 -0.468259,-0.5369252 -0.04024,-0.046521 -0.0828,-0.091222 -0.12307,-0.1377122 z m 1.6339,3.5830447 c 0.04689,0.0123 0.094,0.02449 0.140803,0.03712 0.0024,6.52e-4 0.0042,0.0015 0.0048,0.0018 l 1.46e-4,4.96e-4 -4.96e-4,1.46e-4 c -0.0065,6.6e-4 -0.06277,-0.008 -0.08374,-0.01354 -0.02157,-0.0057 -0.04247,-0.01471 -0.06156,-0.02601 z" />
  </g>
</svg>
