<?xml version="1.0" encoding="UTF-8" standalone="no"?>
<!-- Created with Inkscape (http://www.inkscape.org/) -->

<svg
   width="50.339012"
   height="45"
   viewBox="0 0 13.318863 11.906249"
   version="1.1"
   id="svg1"
   inkscape:export-filename="divide.svg"
   inkscape:export-xdpi="96"
   inkscape:export-ydpi="96"
   xmlns:inkscape="http://www.inkscape.org/namespaces/inkscape"
   xmlns:sodipodi="http://sodipodi.sourceforge.net/DTD/sodipodi-0.dtd"
   xmlns="http://www.w3.org/2000/svg"
   xmlns:svg="http://www.w3.org/2000/svg">
  <sodipodi:namedview
     id="namedview1"
     pagecolor="#505050"
     bordercolor="#eeeeee"
     borderopacity="1"
     inkscape:showpageshadow="0"
     inkscape:pageopacity="0"
     inkscape:pagecheckerboard="0"
     inkscape:deskcolor="#505050"
     inkscape:document-units="px">
    <inkscape:page
       x="0"
       y="0"
       width="13.318863"
       height="11.906249"
       id="page2"
       margin="0"
       bleed="0" />
  </sodipodi:namedview>
  <defs
     id="defs1" />
  <ellipse
     style="fill:#8787de;fill-opacity:0.996078;stroke:none;stroke-width:5.1377;paint-order:markers stroke fill"
     id="path8"
     cx="6.7506385"
     cy="5.9531245"
     rx="6.2366071"
     ry="5.9531245" />
  <path
     style="fill:#000080;fill-opacity:0.996078;stroke:#ffffff;stroke-width:0.712362;stroke-dasharray:none;stroke-opacity:1;paint-order:markers stroke fill"
     id="path39"
     d="M 2.2516455,8.3273823 C 2.2548275,7.9195214 2.2993114,7.5128327 2.3362817,7.1069635 2.387545,6.5019879 2.4437863,5.8968372 2.467283,5.2899959 2.4582822,4.9183622 2.4234135,4.546009 2.3527578,4.18088 2.3076299,3.9672499 2.2469735,3.7570986 2.2214025,3.5398514 c -0.00344,-0.044651 -0.00492,-0.055185 -0.00602,-0.096422 -1.594e-4,-0.00597 0.0034,-0.022918 1.373e-4,-0.01792 -0.0295,0.045052 0.062675,0.029956 0.090741,0.027655 0.5015515,-0.031121 1.0012862,0.026273 1.4984994,0.085528 0.2640693,0.039631 0.5323874,0.073192 0.7864314,0.1599945 0.055492,0.018962 0.110701,0.039956 0.1624226,0.067594 0.044038,0.023531 0.1674128,0.1084446 0.123287,0.085077 C 4.57196,3.6898747 4.2725664,3.5181342 3.9704015,3.3515223 c 0.2628506,0.2822721 0.4001559,0.6512455 0.5162488,1.0127236 0.057769,0.210627 0.1151804,0.4247423 0.1352844,0.6431023 0.00997,0.1082141 0.00444,0.1449727 -6.507e-4,0.253538 C 4.6111981,5.5586811 4.523129,5.8435091 4.4296607,6.1237418 4.3501052,6.3502138 4.2711028,6.5808112 4.144166,6.7861696 4.1177822,6.8288535 4.0876286,6.8690888 4.0593619,6.910548 3.9068124,7.1074245 3.7297044,7.2837686 3.5101837,7.4049454 c -0.05048,0.027865 -0.1036314,0.05059 -0.1554478,0.075884 -0.3391466,0.14706 -0.6983691,0.2315911 -1.0632651,0.2814325 -0.2502416,0.029879 -0.5024075,0.029328 -0.7538372,0.021305 -0.1014264,-0.00547 -0.2024951,-0.010512 -0.3040621,-0.00817 -0.068371,4.111e-4 -0.034692,7.194e-4 -0.1010395,-8.563e-4 0,0 1.0208613,0.7423732 1.0208613,0.7423732 v 0 c 0.063913,-0.00106 0.030774,-9.933e-4 0.099422,9.52e-5 0.096858,0.00339 0.1934028,0.00281 0.290102,-0.00512 C 2.7808564,8.496758 3.0183399,8.47303 3.2543953,8.439452 3.6239164,8.3751751 3.9850111,8.2690877 4.3321359,8.1264954 4.4769548,8.0587711 4.5213745,8.0455987 4.6507438,7.9568292 4.8234329,7.8383347 4.9574039,7.6761177 5.0848964,7.5122653 5.2529348,7.2607913 5.3951981,6.9924458 5.4795106,6.7005111 5.569392,6.4106983 5.6532825,6.1163792 5.6900237,5.8144979 5.7001899,5.6957706 5.7097395,5.6529456 5.6961994,5.5333309 5.6701264,5.3029986 5.5912025,5.0807821 5.5326209,4.8579378 5.4213893,4.4913244 5.2916141,4.1221877 5.073323,3.8041659 4.6978468,3.5688667 4.3250828,3.3291832 3.9468947,3.0982682 3.9072403,3.0740558 3.8642658,3.0551728 3.8206068,3.0392795 3.5434805,2.9383964 3.2377195,2.95029 2.9507198,2.9030305 2.4014887,2.8413269 1.8529695,2.7613504 1.3005713,2.7353093 c -0.034376,0.00295 -0.069739,1.393e-4 -0.1031317,0.00883 -0.1462147,0.038028 -0.1213943,0.1435847 -0.091424,0.2515904 0.051026,0.22395 0.1070477,0.4460846 0.1701737,0.6669618 0.097455,0.364092 0.1597011,0.7388671 0.1854199,1.1148536 0.00589,0.1593016 0.015087,0.366426 0.014288,0.5241183 -0.00221,0.4355836 -0.038647,0.8706561 -0.096763,1.3021248 -0.06335,0.3787199 -0.1270375,0.7629157 -0.2524086,1.1268228 z" />
  <path
     style="fill:#2ca05a;fill-opacity:0.996078;stroke:#ffffff;stroke-width:0.712362;stroke-dasharray:none;stroke-opacity:1;paint-order:markers stroke fill"
     id="path40"
     d="M 7.0672318,5.2307707 C 6.9257263,5.312919 6.8135215,5.4333467 6.6917885,5.5406407 6.4967623,5.7018378 6.3956791,5.87805 6.3119815,6.1128711 6.2464151,6.3259216 6.2073038,6.5457314 6.1828702,6.7669395 6.1561736,6.9809265 6.219831,7.1496461 6.3270423,7.330737 6.4606353,7.5224322 6.633659,7.6868033 6.837424,7.8027144 7.2226311,8.0218382 7.6105076,8.2362362 7.9970491,8.452997 c 0.2139126,0.081897 0.4398867,0.161938 0.6726906,0.1531831 0.036147,-0.00137 0.071912,-0.00793 0.1078672,-0.011897 0.074021,-0.023548 0.1225685,-0.032246 0.1864374,-0.079261 C 9.0899749,8.4223205 9.1699881,8.2751351 9.2419271,8.1409924 9.3660657,7.9133488 9.4611236,7.6730581 9.5436228,7.427849 9.6185748,7.2075048 9.6400456,6.9804076 9.6309273,6.7494602 9.6118727,6.4824201 9.5195378,6.3294801 9.3366957,6.1410979 8.8910429,5.782281 8.4006158,5.437216 7.8492365,5.2733468 7.7440173,5.2420777 7.6971061,5.2375853 7.5893071,5.2194892 c -0.2521396,-0.042686 -0.5048997,-6.5e-6 -0.7470576,0.072237 -0.030231,0.00985 -0.06046,0.019698 -0.090692,0.02955 0,0 1.0219431,0.6905591 1.0219431,0.6905591 v 0 c 0.026364,-0.010212 0.052727,-0.02042 0.079089,-0.030635 0.2279249,-0.070674 0.4639199,-0.082962 0.6983281,-0.033332 0.1052236,0.025049 0.1444709,0.03046 0.2455741,0.070291 0.04021,0.015841 0.1550202,0.075989 0.1180491,0.05361 C 7.263316,5.0722594 7.8761092,5.4385432 8.215958,5.6818397 8.3893929,5.825222 8.509792,5.9713857 8.5385974,6.2020248 8.5594334,6.4190682 8.5447974,6.6344461 8.4805354,6.8440827 8.4078581,7.0842269 8.3216489,7.318662 8.1933289,7.5356399 8.087563,7.7053268 7.9931727,7.8531859 7.7802989,7.8811507 7.5256172,7.8902618 7.2929997,7.8179502 7.0636733,7.7096535 7.3603205,7.8838463 7.6581274,8.0560788 7.9536145,8.2322322 7.9948826,8.2568323 7.8674934,8.1893549 7.8264504,8.1643797 7.678808,8.0745368 7.5489929,7.9577672 7.4422785,7.8221815 7.3418954,7.6731955 7.2677206,7.5180999 7.271747,7.3338194 7.2856022,7.1197803 7.3138581,6.907616 7.3751827,6.7013415 7.4500405,6.4918914 7.5515456,6.32738 7.7272664,6.1862858 7.8430458,6.0900822 7.9642965,5.9742427 8.1210856,5.9576761 Z" />
  <path
     id="path42"
     style="fill:#d4aa00;fill-opacity:0.996078;stroke:#ffffff;stroke-width:0.712362;stroke-dasharray:none;stroke-opacity:1;paint-order:markers stroke fill"
     d="m 10.050244,3.2491659 c -5.82e-4,0.038384 -0.0013,0.076724 -0.0033,0.1150664 0.0021,0.066839 -0.003,0.1333455 0.004,0.2000292 0.007,0.1444107 0.01603,0.2889232 0.0194,0.4335082 0.004,0.08713 0.0078,0.1744016 0.0107,0.2615766 -0.3023398,-0.00478 -0.6054362,-0.011276 -0.9064865,-0.040809 l 0.9178605,0.6669871 v 0.002 c 0.0028,0.3250831 0.0061,0.6497138 0.01338,0.9747244 0.0053,0.20036 0.0043,0.4004326 -0.0034,0.6007566 0.0033,0.1199832 0.0072,0.2413049 0.04148,0.3572428 0.04045,0.094678 0.06708,0.1957112 0.121756,0.2843224 0.07259,0.1098247 0.142943,0.2219412 0.224783,0.3251313 0.09836,0.1000724 0.196523,0.196022 0.317103,0.2696045 0.318266,0.185005 0.893842,0.6713934 1.401541,0.7238516 0.119542,0.00725 0.237554,-0.013888 0.355235,-0.033449 0.179465,-0.02215 0.363495,-0.040635 0.540549,0.00803 L 12.086642,7.6324152 c -0.176422,0.00605 -0.351949,0.027926 -0.527837,0.043485 -0.03216,-2.334e-4 -0.06458,0.00261 -0.09701,0.00602 -0.01618,-0.024224 -0.03183,-0.048476 -0.0475,-0.07292 -0.05281,-0.079714 -0.09244,-0.1676822 -0.124429,-0.2575665 -0.04814,-0.1030803 -0.06077,-0.215276 -0.07024,-0.3271378 -0.01428,-0.2067542 -0.02029,-0.4135139 -0.0368,-0.6201575 -0.02944,-0.3272336 -0.0368,-0.6557563 -0.04148,-0.9840901 -0.0027,-0.1635997 -0.002,-0.3274707 0.0019,-0.4910417 0.339307,-0.00293 0.678988,7.407e-4 1.018208,0.0087 L 11.218307,4.252657 c -0.0159,3.977e-4 -0.0316,9.651e-4 -0.0475,0.00133 0.0022,-0.038471 0.0046,-0.07726 0.0067,-0.1157358 0.0072,-0.065233 0.0019,-0.1306042 0.004,-0.1960152 -0.0021,-0.039395 -0.0027,-0.078977 -0.0034,-0.1184115 z m 0.903143,4.3130046 c 4.67e-4,2.458e-4 0.0013,2.745e-4 0.002,6.691e-4 0.04697,0.026797 0.09358,0.053359 0.140487,0.08028 -0.03353,-0.012557 -0.06551,-0.027669 -0.09633,-0.048167 -0.01139,-0.00756 -0.03955,-0.027342 -0.04617,-0.032782 z" />
</svg>
